<?xml version="1.0" encoding="UTF-8" standalone="no"?>
<!DOCTYPE svg PUBLIC "-//W3C//DTD SVG 1.1//EN"
 "http://www.w3.org/Graphics/SVG/1.1/DTD/svg11.dtd">
<!-- Generated by graphviz version 2.43.0 (0)
 -->
<!-- Title: Assessment Pages: 1 -->
<svg width="322pt" height="236pt"
 viewBox="0.00 0.00 322.00 236.00" xmlns="http://www.w3.org/2000/svg" xmlns:xlink="http://www.w3.org/1999/xlink">
<g id="graph0" class="graph" transform="scale(1 1) rotate(0) translate(4 232)">
<title>Assessment</title>
<polygon fill="white" stroke="transparent" points="-4,4 -4,-232 318,-232 318,4 -4,4"/>
<!-- Assessment -->
<g id="node1" class="node">
<title>Assessment</title>
<g id="a_node1_0"><a xlink:href="../IDMEFv1/Assessment.html" xlink:title="The Assessment class is used to provide the analyzer&#39;s assessment of an event &#45;&#45; its impact, actions taken in response, and confidence. ">
<polygon fill="#cecece" stroke="transparent" points="8.5,-82 8.5,-103 89.5,-103 89.5,-82 8.5,-82"/>
<polygon fill="none" stroke="black" points="8.5,-82 8.5,-103 89.5,-103 89.5,-82 8.5,-82"/>
<text text-anchor="start" x="11.5" y="-88.8" font-family="Nimbus Sans L" font-size="14.00">Assessment</text>
</a>
</g>
</g>
<!-- Impact -->
<g id="node2" class="node">
<title>Impact</title>
<g id="a_node2_1"><a xlink:href="../IDMEFv1/Impact.html" xlink:title="The Impact class is used to provide the analyzer&#39;s assessment of the impact of the event on the target(s). It is represented in the IDMEF DTD as follows: ">
<polygon fill="#cecece" stroke="transparent" points="169.5,-203 169.5,-224 306.5,-224 306.5,-203 169.5,-203"/>
<polygon fill="none" stroke="black" points="169.5,-203 169.5,-224 306.5,-224 306.5,-203 169.5,-203"/>
<text text-anchor="start" x="217" y="-209.8" font-family="Nimbus Sans L" font-size="14.00">Impact</text>
</a>
</g>
<g id="a_node2_2"><a xlink:href="../IDMEFv1/Impact.html" xlink:title="Section 10.)">
<polygon fill="none" stroke="black" points="169.5,-182 169.5,-203 306.5,-203 306.5,-182 169.5,-182"/>
<text text-anchor="start" x="182" y="-188.8" font-family="Nimbus Sans L" font-size="14.00">[ENUM] severity ()</text>
</a>
</g>
<g id="a_node2_3"><a xlink:href="../IDMEFv1/Impact.html" xlink:title="Section 10.)">
<polygon fill="none" stroke="black" points="169.5,-161 169.5,-182 306.5,-182 306.5,-161 169.5,-161"/>
<text text-anchor="start" x="172.5" y="-167.8" font-family="Nimbus Sans L" font-size="14.00">[ENUM] completion ()</text>
</a>
</g>
<g id="a_node2_4"><a xlink:href="../IDMEFv1/Impact.html" xlink:title="value is &quot;other&quot;. &#160;(See also Section 10.)">
<polygon fill="none" stroke="black" points="169.5,-140 169.5,-161 306.5,-161 306.5,-140 169.5,-140"/>
<text text-anchor="start" x="192.5" y="-146.8" font-family="Nimbus Sans L" font-size="14.00">[ENUM] type ()</text>
</a>
</g>
</g>
<!-- Assessment&#45;&gt;Impact -->
<g id="edge1" class="edge">
<title>Assessment&#45;&gt;Impact</title>
<path fill="none" stroke="black" d="M87.34,-111.01C105.91,-119.85 129.09,-130.88 151.6,-141.59"/>
<polygon fill="black" stroke="black" points="150.32,-144.86 160.85,-146 153.33,-138.54 150.32,-144.86"/>
<text text-anchor="middle" x="129" y="-140.8" font-family="Times,serif" font-size="14.00">0..1</text>
</g>
<!-- Action -->
<g id="node3" class="node">
<title>Action</title>
<g id="a_node3_5"><a xlink:href="../IDMEFv1/Action.html" xlink:title="The Action class is used to describe any actions taken by the analyzer in response to the event. Is is represented in the IDMEF DTD as follows: ">
<polygon fill="#cecece" stroke="transparent" points="176.5,-93 176.5,-114 299.5,-114 299.5,-93 176.5,-93"/>
<polygon fill="none" stroke="black" points="176.5,-93 176.5,-114 299.5,-114 299.5,-93 176.5,-93"/>
<text text-anchor="start" x="219" y="-99.8" font-family="Nimbus Sans L" font-size="14.00">Action</text>
</a>
</g>
<g id="a_node3_6"><a xlink:href="../IDMEFv1/Action.html" xlink:title="The default value is &quot;other&quot;. &#160;(See also Section 10.)">
<polygon fill="none" stroke="black" points="176.5,-72 176.5,-93 299.5,-93 299.5,-72 176.5,-72"/>
<text text-anchor="start" x="179.5" y="-78.8" font-family="Nimbus Sans L" font-size="14.00">[ENUM] category ()</text>
</a>
</g>
</g>
<!-- Assessment&#45;&gt;Action -->
<g id="edge2" class="edge">
<title>Assessment&#45;&gt;Action</title>
<path fill="none" stroke="black" d="M97.17,-93C115.58,-93 137.15,-93 157.73,-93"/>
<polygon fill="black" stroke="black" points="157.74,-96.5 167.74,-93 157.74,-89.5 157.74,-96.5"/>
<text text-anchor="middle" x="129" y="-96.8" font-family="Times,serif" font-size="14.00">0..*</text>
</g>
<!-- Confidence -->
<g id="node4" class="node">
<title>Confidence</title>
<g id="a_node4_7"><a xlink:href="../IDMEFv1/Confidence.html" xlink:title="The Confidence class is used to represent the analyzer&#39;s best estimate of the validity of its analysis. It is represented in the IDMEF DTD as follows: ">
<polygon fill="#cecece" stroke="transparent" points="185.5,-25 185.5,-46 290.5,-46 290.5,-25 185.5,-25"/>
<polygon fill="none" stroke="black" points="185.5,-25 185.5,-46 290.5,-46 290.5,-25 185.5,-25"/>
<text text-anchor="start" x="203.5" y="-31.8" font-family="Nimbus Sans L" font-size="14.00">Confidence</text>
</a>
</g>
<g id="a_node4_8"><a xlink:href="../IDMEFv1/Confidence.html" xlink:title="also Section 10.)">
<polygon fill="none" stroke="black" points="185.5,-4 185.5,-25 290.5,-25 290.5,-4 185.5,-4"/>
<text text-anchor="start" x="188.5" y="-10.8" font-family="Nimbus Sans L" font-size="14.00">[ENUM] rating ()</text>
</a>
</g>
</g>
<!-- Assessment&#45;&gt;Confidence -->
<g id="edge3" class="edge">
<title>Assessment&#45;&gt;Confidence</title>
<path fill="none" stroke="black" d="M97.17,-75.66C118.48,-67.92 144,-58.64 167.34,-50.15"/>
<polygon fill="black" stroke="black" points="168.65,-53.4 176.85,-46.69 166.26,-46.82 168.65,-53.4"/>
<text text-anchor="middle" x="129" y="-72.8" font-family="Times,serif" font-size="14.00">0..1</text>
</g>
</g>
</svg>
