<?xml version="1.0" encoding="UTF-8" standalone="no"?>
<!DOCTYPE svg PUBLIC "-//W3C//DTD SVG 1.1//EN"
 "http://www.w3.org/Graphics/SVG/1.1/DTD/svg11.dtd">
<!-- Generated by graphviz version 2.43.0 (0)
 -->
<!-- Title: FileAccess Pages: 1 -->
<svg width="405pt" height="142pt"
 viewBox="0.00 0.00 405.00 142.00" xmlns="http://www.w3.org/2000/svg" xmlns:xlink="http://www.w3.org/1999/xlink">
<g id="graph0" class="graph" transform="scale(1 1) rotate(0) translate(4 138)">
<title>FileAccess</title>
<polygon fill="white" stroke="transparent" points="-4,4 -4,-138 401,-138 401,4 -4,4"/>
<!-- FileAccess -->
<g id="node1" class="node">
<title>FileAccess</title>
<g id="a_node1_0"><a xlink:href="../IDMEFv1/FileAccess.html" xlink:title="The FileAccess class represents the access permissions on a file. The representation is intended to be useful across operating systems. ">
<polygon fill="#cecece" stroke="transparent" points="8.5,-67 8.5,-88 167.5,-88 167.5,-67 8.5,-67"/>
<polygon fill="none" stroke="black" points="8.5,-67 8.5,-88 167.5,-88 167.5,-67 8.5,-67"/>
<text text-anchor="start" x="55" y="-73.8" font-family="Nimbus Sans L" font-size="14.00">FileAccess</text>
</a>
</g>
<g id="a_node1_1"><a xlink:href="../IDMEFv1/FileAccess.html" xlink:title="Level of access allowed. &#160;The permitted values are shown below. &#160;There is no default value. &#160;(See also Section 10.)">
<polygon fill="none" stroke="black" points="8.5,-46 8.5,-67 167.5,-67 167.5,-46 8.5,-46"/>
<text text-anchor="start" x="11.5" y="-52.8" font-family="Nimbus Sans L" font-size="14.00">[ENUM] Permission (1..*)</text>
</a>
</g>
</g>
<!-- UserId -->
<g id="node2" class="node">
<title>UserId</title>
<g id="a_node2_2"><a xlink:href="../IDMEFv1/UserId.html" xlink:title="The UserId class provides specific information about a user. More than one UserId can be used within the User class to indicate attempts to transition from one user to another, or to provide complete information about a user&#39;s (or process&#39;) privileges. ">
<polygon fill="#cecece" stroke="transparent" points="229,-109 229,-130 389,-130 389,-109 229,-109"/>
<polygon fill="none" stroke="black" points="229,-109 229,-130 389,-130 389,-109 229,-109"/>
<text text-anchor="start" x="289" y="-115.8" font-family="Nimbus Sans L" font-size="14.00">UserId</text>
</a>
</g>
<g id="a_node2_3"><a xlink:href="../IDMEFv1/UserId.html" xlink:title="A user or group name.">
<polygon fill="none" stroke="black" points="229,-88 229,-109 389,-109 389,-88 229,-88"/>
<text text-anchor="start" x="242.5" y="-94.8" font-family="Nimbus Sans L" font-size="14.00">[STRING] name (0..1)</text>
</a>
</g>
<g id="a_node2_4"><a xlink:href="../IDMEFv1/UserId.html" xlink:title="A user or group number.">
<polygon fill="none" stroke="black" points="229,-67 229,-88 389,-88 389,-67 229,-67"/>
<text text-anchor="start" x="232" y="-73.8" font-family="Nimbus Sans L" font-size="14.00">[INTEGER] number (0..1)</text>
</a>
</g>
<g id="a_node2_5"><a xlink:href="../IDMEFv1/UserId.html" xlink:title="A unique identifier for the user id, see Section 3.2.9.">
<polygon fill="none" stroke="black" points="229,-46 229,-67 389,-67 389,-46 229,-46"/>
<text text-anchor="start" x="256.5" y="-52.8" font-family="Nimbus Sans L" font-size="14.00">[] ident (Optional)</text>
</a>
</g>
<g id="a_node2_6"><a xlink:href="../IDMEFv1/UserId.html" xlink:title="The type of user information represented. &#160;The permitted values for this attribute are shown below. &#160;The default value is &quot;original&#45;user&quot;. &#160;(See also Section 10.)">
<polygon fill="none" stroke="black" points="229,-25 229,-46 389,-46 389,-25 229,-25"/>
<text text-anchor="start" x="238" y="-31.8" font-family="Nimbus Sans L" font-size="14.00">[ENUM] type (Optional)</text>
</a>
</g>
<g id="a_node2_7"><a xlink:href="../IDMEFv1/UserId.html" xlink:title="The tty the user is using.">
<polygon fill="none" stroke="black" points="229,-4 229,-25 389,-25 389,-4 229,-4"/>
<text text-anchor="start" x="238" y="-10.8" font-family="Nimbus Sans L" font-size="14.00">[STRING] tty (Optional)</text>
</a>
</g>
</g>
<!-- FileAccess&#45;&gt;UserId -->
<g id="edge1" class="edge">
<title>FileAccess&#45;&gt;UserId</title>
<path fill="none" stroke="black" d="M175.25,-67C186.84,-67 198.78,-67 210.53,-67"/>
<polygon fill="black" stroke="black" points="210.8,-70.5 220.8,-67 210.8,-63.5 210.8,-70.5"/>
<text text-anchor="middle" x="198" y="-70.8" font-family="Times,serif" font-size="14.00">1</text>
</g>
</g>
</svg>
