<?xml version="1.0" encoding="UTF-8" standalone="no"?>
<!DOCTYPE svg PUBLIC "-//W3C//DTD SVG 1.1//EN"
 "http://www.w3.org/Graphics/SVG/1.1/DTD/svg11.dtd">
<!-- Generated by graphviz version 2.43.0 (0)
 -->
<!-- Title: Impact Pages: 1 -->
<svg width="161pt" height="100pt"
 viewBox="0.00 0.00 161.00 100.00" xmlns="http://www.w3.org/2000/svg" xmlns:xlink="http://www.w3.org/1999/xlink">
<g id="graph0" class="graph" transform="scale(1 1) rotate(0) translate(4 96)">
<title>Impact</title>
<polygon fill="white" stroke="transparent" points="-4,4 -4,-96 157,-96 157,4 -4,4"/>
<!-- Impact -->
<g id="node1" class="node">
<title>Impact</title>
<g id="a_node1_0"><a xlink:href="../IDMEFv1/Impact.html" xlink:title="The Impact class is used to provide the analyzer&#39;s assessment of the impact of the event on the target(s). It is represented in the IDMEF DTD as follows: ">
<polygon fill="#cecece" stroke="transparent" points="8.5,-67 8.5,-88 145.5,-88 145.5,-67 8.5,-67"/>
<polygon fill="none" stroke="black" points="8.5,-67 8.5,-88 145.5,-88 145.5,-67 8.5,-67"/>
<text text-anchor="start" x="56" y="-73.8" font-family="Nimbus Sans L" font-size="14.00">Impact</text>
</a>
</g>
<g id="a_node1_1"><a xlink:href="../IDMEFv1/Impact.html" xlink:title="Section 10.)">
<polygon fill="none" stroke="black" points="8.5,-46 8.5,-67 145.5,-67 145.5,-46 8.5,-46"/>
<text text-anchor="start" x="21" y="-52.8" font-family="Nimbus Sans L" font-size="14.00">[ENUM] severity ()</text>
</a>
</g>
<g id="a_node1_2"><a xlink:href="../IDMEFv1/Impact.html" xlink:title="Section 10.)">
<polygon fill="none" stroke="black" points="8.5,-25 8.5,-46 145.5,-46 145.5,-25 8.5,-25"/>
<text text-anchor="start" x="11.5" y="-31.8" font-family="Nimbus Sans L" font-size="14.00">[ENUM] completion ()</text>
</a>
</g>
<g id="a_node1_3"><a xlink:href="../IDMEFv1/Impact.html" xlink:title="value is &quot;other&quot;. &#160;(See also Section 10.)">
<polygon fill="none" stroke="black" points="8.5,-4 8.5,-25 145.5,-25 145.5,-4 8.5,-4"/>
<text text-anchor="start" x="31.5" y="-10.8" font-family="Nimbus Sans L" font-size="14.00">[ENUM] type ()</text>
</a>
</g>
</g>
</g>
</svg>
