<?xml version="1.0" encoding="UTF-8" standalone="no"?>
<!DOCTYPE svg PUBLIC "-//W3C//DTD SVG 1.1//EN"
 "http://www.w3.org/Graphics/SVG/1.1/DTD/svg11.dtd">
<!-- Generated by graphviz version 2.43.0 (0)
 -->
<!-- Title: Inode Pages: 1 -->
<svg width="227pt" height="163pt"
 viewBox="0.00 0.00 227.00 163.00" xmlns="http://www.w3.org/2000/svg" xmlns:xlink="http://www.w3.org/1999/xlink">
<g id="graph0" class="graph" transform="scale(1 1) rotate(0) translate(4 159)">
<title>Inode</title>
<polygon fill="white" stroke="transparent" points="-4,4 -4,-159 223,-159 223,4 -4,4"/>
<!-- Inode -->
<g id="node1" class="node">
<title>Inode</title>
<g id="a_node1_0"><a xlink:href="../IDMEFv1/Inode.html" xlink:title="The Inode class is used to represent the additional information contained in a Unix file system i&#45;node. ">
<polygon fill="#cecece" stroke="transparent" points="8.5,-129.5 8.5,-150.5 211.5,-150.5 211.5,-129.5 8.5,-129.5"/>
<polygon fill="none" stroke="black" points="8.5,-129.5 8.5,-150.5 211.5,-150.5 211.5,-129.5 8.5,-129.5"/>
<text text-anchor="start" x="93" y="-136.3" font-family="Nimbus Sans L" font-size="14.00">Inode</text>
</a>
</g>
<g id="a_node1_1"><a xlink:href="../IDMEFv1/Inode.html" xlink:title="The time of the last inode change, given by the st_ctime element of &quot;struct stat&quot;.">
<polygon fill="none" stroke="black" points="8.5,-108.5 8.5,-129.5 211.5,-129.5 211.5,-108.5 8.5,-108.5"/>
<text text-anchor="start" x="15" y="-115.3" font-family="Nimbus Sans L" font-size="14.00">[DATETIME] change&#45;time (0..1)</text>
</a>
</g>
<g id="a_node1_2"><a xlink:href="../IDMEFv1/Inode.html" xlink:title="The inode number.">
<polygon fill="none" stroke="black" points="8.5,-87.5 8.5,-108.5 211.5,-108.5 211.5,-87.5 8.5,-87.5"/>
<text text-anchor="start" x="33" y="-94.3" font-family="Nimbus Sans L" font-size="14.00">[INTEGER] number (0..1)</text>
</a>
</g>
<g id="a_node1_3"><a xlink:href="../IDMEFv1/Inode.html" xlink:title="The major device number of the device the file resides on.">
<polygon fill="none" stroke="black" points="8.5,-66.5 8.5,-87.5 211.5,-87.5 211.5,-66.5 8.5,-66.5"/>
<text text-anchor="start" x="17" y="-73.3" font-family="Nimbus Sans L" font-size="14.00">[INTEGER] major&#45;device (0..1)</text>
</a>
</g>
<g id="a_node1_4"><a xlink:href="../IDMEFv1/Inode.html" xlink:title="The minor device number of the device the file resides on.">
<polygon fill="none" stroke="black" points="8.5,-45.5 8.5,-66.5 211.5,-66.5 211.5,-45.5 8.5,-45.5"/>
<text text-anchor="start" x="17" y="-52.3" font-family="Nimbus Sans L" font-size="14.00">[INTEGER] minor&#45;device (0..1)</text>
</a>
</g>
<g id="a_node1_5"><a xlink:href="../IDMEFv1/Inode.html" xlink:title="The major device of the file itself, if it is a character special device.">
<polygon fill="none" stroke="black" points="8.5,-24.5 8.5,-45.5 211.5,-45.5 211.5,-24.5 8.5,-24.5"/>
<text text-anchor="start" x="11.5" y="-31.3" font-family="Nimbus Sans L" font-size="14.00">[INTEGER] c&#45;major&#45;device (0..1)</text>
</a>
</g>
<g id="a_node1_6"><a xlink:href="../IDMEFv1/Inode.html" xlink:title="The minor device of the file itself, if it is a character special device.">
<polygon fill="none" stroke="black" points="8.5,-3.5 8.5,-24.5 211.5,-24.5 211.5,-3.5 8.5,-3.5"/>
<text text-anchor="start" x="11.5" y="-10.3" font-family="Nimbus Sans L" font-size="14.00">[INTEGER] c&#45;minor&#45;device (0..1)</text>
</a>
</g>
</g>
</g>
</svg>
