<?xml version="1.0" encoding="UTF-8" standalone="no"?>
<!DOCTYPE svg PUBLIC "-//W3C//DTD SVG 1.1//EN"
 "http://www.w3.org/Graphics/SVG/1.1/DTD/svg11.dtd">
<!-- Generated by graphviz version 2.43.0 (0)
 -->
<!-- Title: Node Pages: 1 -->
<svg width="449pt" height="163pt"
 viewBox="0.00 0.00 449.00 163.00" xmlns="http://www.w3.org/2000/svg" xmlns:xlink="http://www.w3.org/1999/xlink">
<g id="graph0" class="graph" transform="scale(1 1) rotate(0) translate(4 159)">
<title>Node</title>
<polygon fill="white" stroke="transparent" points="-4,4 -4,-159 445,-159 445,4 -4,4"/>
<!-- Node -->
<g id="node1" class="node">
<title>Node</title>
<g id="a_node1_0"><a xlink:href="../IDMEFv1/Node.html" xlink:title="The Node class is used to identify hosts and other network devices (routers, switches, etc.). ">
<polygon fill="#cecece" stroke="transparent" points="8,-108.5 8,-129.5 182,-129.5 182,-108.5 8,-108.5"/>
<polygon fill="none" stroke="black" points="8,-108.5 8,-129.5 182,-129.5 182,-108.5 8,-108.5"/>
<text text-anchor="start" x="78.5" y="-115.3" font-family="Nimbus Sans L" font-size="14.00">Node</text>
</a>
</g>
<g id="a_node1_1"><a xlink:href="../IDMEFv1/Node.html" xlink:title="The location of the equipment.">
<polygon fill="none" stroke="black" points="8,-87.5 8,-108.5 182,-108.5 182,-87.5 8,-87.5"/>
<text text-anchor="start" x="22.5" y="-94.3" font-family="Nimbus Sans L" font-size="14.00">[STRING] location (0..1)</text>
</a>
</g>
<g id="a_node1_2"><a xlink:href="../IDMEFv1/Node.html" xlink:title="The name of the equipment. &#160;This information MUST be provided if no Address information is given.">
<polygon fill="none" stroke="black" points="8,-66.5 8,-87.5 182,-87.5 182,-66.5 8,-66.5"/>
<text text-anchor="start" x="28.5" y="-73.3" font-family="Nimbus Sans L" font-size="14.00">[STRING] name (0..1)</text>
</a>
</g>
<g id="a_node1_3"><a xlink:href="../IDMEFv1/Node.html" xlink:title="A unique identifier for the node; see Section 3.2.9.">
<polygon fill="none" stroke="black" points="8,-45.5 8,-66.5 182,-66.5 182,-45.5 8,-45.5"/>
<text text-anchor="start" x="42.5" y="-52.3" font-family="Nimbus Sans L" font-size="14.00">[] ident (Optional)</text>
</a>
</g>
<g id="a_node1_4"><a xlink:href="../IDMEFv1/Node.html" xlink:title="The &quot;domain&quot; from which the name information was obtained, if relevant. &#160;The permitted values for this attribute are shown in the table below. &#160;The default value is &quot;unknown&quot;. (See also Section 10 for extensions to the table.)">
<polygon fill="none" stroke="black" points="8,-24.5 8,-45.5 182,-45.5 182,-24.5 8,-24.5"/>
<text text-anchor="start" x="11" y="-31.3" font-family="Nimbus Sans L" font-size="14.00">[ENUM] category (Optional)</text>
</a>
</g>
</g>
<!-- Address -->
<g id="node2" class="node">
<title>Address</title>
<g id="a_node2_5"><a xlink:href="../IDMEFv1/Address.html" xlink:title="The Address class is used to represent network, hardware, and application addresses. ">
<polygon fill="#cecece" stroke="transparent" points="259,-129.5 259,-150.5 433,-150.5 433,-129.5 259,-129.5"/>
<polygon fill="none" stroke="black" points="259,-129.5 259,-150.5 433,-150.5 433,-129.5 259,-129.5"/>
<text text-anchor="start" x="321" y="-136.3" font-family="Nimbus Sans L" font-size="14.00">Address</text>
</a>
</g>
<g id="a_node2_6"><a xlink:href="../IDMEFv1/Address.html" xlink:title="The address information. &#160;The format of this data is governed by the category attribute.">
<polygon fill="none" stroke="black" points="259,-108.5 259,-129.5 433,-129.5 433,-108.5 259,-108.5"/>
<text text-anchor="start" x="280" y="-115.3" font-family="Nimbus Sans L" font-size="14.00">[STRING] address (1)</text>
</a>
</g>
<g id="a_node2_7"><a xlink:href="../IDMEFv1/Address.html" xlink:title="The network mask for the address, if appropriate.">
<polygon fill="none" stroke="black" points="259,-87.5 259,-108.5 433,-108.5 433,-87.5 259,-87.5"/>
<text text-anchor="start" x="270.5" y="-94.3" font-family="Nimbus Sans L" font-size="14.00">[STRING] netmask (0..1)</text>
</a>
</g>
<g id="a_node2_8"><a xlink:href="../IDMEFv1/Address.html" xlink:title="A unique identifier for the address; see Section 3.2.9.">
<polygon fill="none" stroke="black" points="259,-66.5 259,-87.5 433,-87.5 433,-66.5 259,-66.5"/>
<text text-anchor="start" x="293.5" y="-73.3" font-family="Nimbus Sans L" font-size="14.00">[] ident (Optional)</text>
</a>
</g>
<g id="a_node2_9"><a xlink:href="../IDMEFv1/Address.html" xlink:title="The type of address represented. &#160;The permitted values for this attribute are shown below. &#160;The default value is &quot;unknown&quot;. &#160;(See also Section 10.)">
<polygon fill="none" stroke="black" points="259,-45.5 259,-66.5 433,-66.5 433,-45.5 259,-45.5"/>
<text text-anchor="start" x="262" y="-52.3" font-family="Nimbus Sans L" font-size="14.00">[ENUM] category (Optional)</text>
</a>
</g>
<g id="a_node2_10"><a xlink:href="../IDMEFv1/Address.html" xlink:title="The name of the Virtual LAN to which the address belongs.">
<polygon fill="none" stroke="black" points="259,-24.5 259,-45.5 433,-45.5 433,-24.5 259,-24.5"/>
<text text-anchor="start" x="276.5" y="-31.3" font-family="Nimbus Sans L" font-size="14.00">[] vlan&#45;name (Optional)</text>
</a>
</g>
<g id="a_node2_11"><a xlink:href="../IDMEFv1/Address.html" xlink:title="The number of the Virtual LAN to which the address belongs.">
<polygon fill="none" stroke="black" points="259,-3.5 259,-24.5 433,-24.5 433,-3.5 259,-3.5"/>
<text text-anchor="start" x="280" y="-10.3" font-family="Nimbus Sans L" font-size="14.00">[] vlan&#45;num (Optional)</text>
</a>
</g>
</g>
<!-- Node&#45;&gt;Address -->
<g id="edge1" class="edge">
<title>Node&#45;&gt;Address</title>
<path fill="none" stroke="black" d="M190.14,-77.5C206.56,-77.5 223.73,-77.5 240.42,-77.5"/>
<polygon fill="black" stroke="black" points="240.73,-81 250.73,-77.5 240.73,-74 240.73,-81"/>
<text text-anchor="middle" x="220.5" y="-81.3" font-family="Times,serif" font-size="14.00">0..*</text>
</g>
</g>
</svg>
