<?xml version="1.0" encoding="UTF-8" standalone="no"?>
<!DOCTYPE svg PUBLIC "-//W3C//DTD SVG 1.1//EN"
 "http://www.w3.org/Graphics/SVG/1.1/DTD/svg11.dtd">
<!-- Generated by graphviz version 2.43.0 (0)
 -->
<!-- Title: Process Pages: 1 -->
<svg width="156pt" height="163pt"
 viewBox="0.00 0.00 156.00 163.00" xmlns="http://www.w3.org/2000/svg" xmlns:xlink="http://www.w3.org/1999/xlink">
<g id="graph0" class="graph" transform="scale(1 1) rotate(0) translate(4 159)">
<title>Process</title>
<polygon fill="white" stroke="transparent" points="-4,4 -4,-159 152,-159 152,4 -4,4"/>
<!-- Process -->
<g id="node1" class="node">
<title>Process</title>
<g id="a_node1_0"><a xlink:href="../IDMEFv1/Process.html" xlink:title="The Process class is used to describe processes being executed on sources, targets, and analyzers. ">
<polygon fill="#cecece" stroke="transparent" points="8,-129.5 8,-150.5 140,-150.5 140,-129.5 8,-129.5"/>
<polygon fill="none" stroke="black" points="8,-129.5 8,-150.5 140,-150.5 140,-129.5 8,-129.5"/>
<text text-anchor="start" x="49.5" y="-136.3" font-family="Nimbus Sans L" font-size="14.00">Process</text>
</a>
</g>
<g id="a_node1_1"><a xlink:href="../IDMEFv1/Process.html" xlink:title="The name of the program being executed. This is a short name; path and argument information are provided elsewhere.">
<polygon fill="none" stroke="black" points="8,-108.5 8,-129.5 140,-129.5 140,-108.5 8,-108.5"/>
<text text-anchor="start" x="15" y="-115.3" font-family="Nimbus Sans L" font-size="14.00">[STRING] name (1)</text>
</a>
</g>
<g id="a_node1_2"><a xlink:href="../IDMEFv1/Process.html" xlink:title="The process identifier of the process.">
<polygon fill="none" stroke="black" points="8,-87.5 8,-108.5 140,-108.5 140,-87.5 8,-87.5"/>
<text text-anchor="start" x="11" y="-94.3" font-family="Nimbus Sans L" font-size="14.00">[INTEGER] pid (0..1)</text>
</a>
</g>
<g id="a_node1_3"><a xlink:href="../IDMEFv1/Process.html" xlink:title="The full path of the program being executed.">
<polygon fill="none" stroke="black" points="8,-66.5 8,-87.5 140,-87.5 140,-66.5 8,-66.5"/>
<text text-anchor="start" x="11.5" y="-73.3" font-family="Nimbus Sans L" font-size="14.00">[STRING] path (0..1)</text>
</a>
</g>
<g id="a_node1_4"><a xlink:href="../IDMEFv1/Process.html" xlink:title="A command&#45;line argument to the program. Multiple arguments may be specified (they are assumed to have occurred in the same order they are provided) with multiple uses of arg.">
<polygon fill="none" stroke="black" points="8,-45.5 8,-66.5 140,-66.5 140,-45.5 8,-45.5"/>
<text text-anchor="start" x="16" y="-52.3" font-family="Nimbus Sans L" font-size="14.00">[STRING] arg (0..*)</text>
</a>
</g>
<g id="a_node1_5"><a xlink:href="../IDMEFv1/Process.html" xlink:title="An environment string associated with the process; generally of the format &quot;VARIABLE=value&quot;. &#160;Multiple environment strings may be specified with multiple uses of env.">
<polygon fill="none" stroke="black" points="8,-24.5 8,-45.5 140,-45.5 140,-24.5 8,-24.5"/>
<text text-anchor="start" x="15" y="-31.3" font-family="Nimbus Sans L" font-size="14.00">[STRING] env (0..*)</text>
</a>
</g>
<g id="a_node1_6"><a xlink:href="../IDMEFv1/Process.html" xlink:title="A unique identifier for the process; see Section 3.2.9.">
<polygon fill="none" stroke="black" points="8,-3.5 8,-24.5 140,-24.5 140,-3.5 8,-3.5"/>
<text text-anchor="start" x="21.5" y="-10.3" font-family="Nimbus Sans L" font-size="14.00">[] ident (Optional)</text>
</a>
</g>
</g>
</g>
</svg>
