<?xml version="1.0" encoding="UTF-8" standalone="no"?>
<!DOCTYPE svg PUBLIC "-//W3C//DTD SVG 1.1//EN"
 "http://www.w3.org/Graphics/SVG/1.1/DTD/svg11.dtd">
<!-- Generated by graphviz version 2.43.0 (0)
 -->
<!-- Title: Reference Pages: 1 -->
<svg width="183pt" height="121pt"
 viewBox="0.00 0.00 183.00 121.00" xmlns="http://www.w3.org/2000/svg" xmlns:xlink="http://www.w3.org/1999/xlink">
<g id="graph0" class="graph" transform="scale(1 1) rotate(0) translate(4 117)">
<title>Reference</title>
<polygon fill="white" stroke="transparent" points="-4,4 -4,-117 179,-117 179,4 -4,4"/>
<!-- Reference -->
<g id="node1" class="node">
<title>Reference</title>
<g id="a_node1_0"><a xlink:href="../IDMEFv1/Reference.html" xlink:title="The Reference class provides the &quot;name&quot; of an alert, or other information allowing the manager to determine what it is. ">
<polygon fill="#cecece" stroke="transparent" points="8.5,-87.5 8.5,-108.5 167.5,-108.5 167.5,-87.5 8.5,-87.5"/>
<polygon fill="none" stroke="black" points="8.5,-87.5 8.5,-108.5 167.5,-108.5 167.5,-87.5 8.5,-87.5"/>
<text text-anchor="start" x="56.5" y="-94.3" font-family="Nimbus Sans L" font-size="14.00">Reference</text>
</a>
</g>
<g id="a_node1_1"><a xlink:href="../IDMEFv1/Reference.html" xlink:title="The name of the alert, from one of the origins listed below.">
<polygon fill="none" stroke="black" points="8.5,-66.5 8.5,-87.5 167.5,-87.5 167.5,-66.5 8.5,-66.5"/>
<text text-anchor="start" x="29" y="-73.3" font-family="Nimbus Sans L" font-size="14.00">[STRING] name (1)</text>
</a>
</g>
<g id="a_node1_2"><a xlink:href="../IDMEFv1/Reference.html" xlink:title="A URL at which the manager (or the human operator of the manager) can find additional information about the alert. &#160;The document pointed to by the URL may include an in&#45;depth description of the attack, appropriate countermeasures, or other information deemed relevant by the vendor.">
<polygon fill="none" stroke="black" points="8.5,-45.5 8.5,-66.5 167.5,-66.5 167.5,-45.5 8.5,-45.5"/>
<text text-anchor="start" x="38.5" y="-52.3" font-family="Nimbus Sans L" font-size="14.00">[STRING] url (1)</text>
</a>
</g>
<g id="a_node1_3"><a xlink:href="../IDMEFv1/Reference.html" xlink:title="The source from which the name of the alert originates. The permitted values for this attribute are shown below. &#160;The default value is &quot;unknown&quot;. &#160;(See also Section 10.)">
<polygon fill="none" stroke="black" points="8.5,-24.5 8.5,-45.5 167.5,-45.5 167.5,-24.5 8.5,-24.5"/>
<text text-anchor="start" x="11.5" y="-31.3" font-family="Nimbus Sans L" font-size="14.00">[ENUM] origin (Required)</text>
</a>
</g>
<g id="a_node1_4"><a xlink:href="../IDMEFv1/Reference.html" xlink:title="The meaning of the reference, as understood by the alert provider. &#160;This field is only valid if the value of the &lt;origin&gt; attribute is set to &quot;vendor&#45;specific&quot; or &quot;user&#45;specific&quot;.">
<polygon fill="none" stroke="black" points="8.5,-3.5 8.5,-24.5 167.5,-24.5 167.5,-3.5 8.5,-3.5"/>
<text text-anchor="start" x="24" y="-10.3" font-family="Nimbus Sans L" font-size="14.00">[] meaning (Optional)</text>
</a>
</g>
</g>
</g>
</svg>
