<?xml version="1.0" encoding="UTF-8" standalone="no"?>
<!DOCTYPE svg PUBLIC "-//W3C//DTD SVG 1.1//EN"
 "http://www.w3.org/Graphics/SVG/1.1/DTD/svg11.dtd">
<!-- Generated by graphviz version 2.43.0 (0)
 -->
<!-- Title: Service Pages: 1 -->
<svg width="301pt" height="205pt"
 viewBox="0.00 0.00 301.00 205.00" xmlns="http://www.w3.org/2000/svg" xmlns:xlink="http://www.w3.org/1999/xlink">
<g id="graph0" class="graph" transform="scale(1 1) rotate(0) translate(4 201)">
<title>Service</title>
<polygon fill="white" stroke="transparent" points="-4,4 -4,-201 297,-201 297,4 -4,4"/>
<!-- Service -->
<g id="node1" class="node">
<title>Service</title>
<g id="a_node1_0"><a xlink:href="../IDMEFv1/Service.html" xlink:title="The Service class describes network services on sources and targets. It can identify services by name, port, and protocol. When Service occurs as an aggregate class of Source, it is understood that the service is one from which activity of interest is originating; and that the service is &quot;attached&quot; to the Node, Process, and User information also contained in Source. Likewise, when Service occurs as an aggregate class of Target, it is understood that the service is one to which activity of interest is being directed; and that the service is &quot;attached&quot; to the Node, Process, and User information also contained in Target. If Service occurs in both Source and Target, then information in both locations should be the same. If information is the same in both locations and implementers wish to carry it in only one location, they should specify it as an aggregate of the Target class. ">
<polygon fill="#cecece" stroke="transparent" points="8.5,-171.5 8.5,-192.5 285.5,-192.5 285.5,-171.5 8.5,-171.5"/>
<polygon fill="none" stroke="black" points="8.5,-171.5 8.5,-192.5 285.5,-192.5 285.5,-171.5 8.5,-171.5"/>
<text text-anchor="start" x="124" y="-178.3" font-family="Nimbus Sans L" font-size="14.00">Service</text>
</a>
</g>
<g id="a_node1_1"><a xlink:href="../IDMEFv1/Service.html" xlink:title="The name of the service. &#160;Whenever possible, the name from the IANA list of well&#45;known ports SHOULD be used.">
<polygon fill="none" stroke="black" points="8.5,-150.5 8.5,-171.5 285.5,-171.5 285.5,-150.5 8.5,-150.5"/>
<text text-anchor="start" x="80.5" y="-157.3" font-family="Nimbus Sans L" font-size="14.00">[STRING] name (0..1)</text>
</a>
</g>
<g id="a_node1_2"><a xlink:href="../IDMEFv1/Service.html" xlink:title="The port number being used.">
<polygon fill="none" stroke="black" points="8.5,-129.5 8.5,-150.5 285.5,-150.5 285.5,-129.5 8.5,-129.5"/>
<text text-anchor="start" x="81.5" y="-136.3" font-family="Nimbus Sans L" font-size="14.00">[INTEGER] port (0..1)</text>
</a>
</g>
<g id="a_node1_3"><a xlink:href="../IDMEFv1/Service.html" xlink:title="A list of port numbers being used; see Section 3.2.8 for formatting rules. &#160;If a portlist is given, the iana_protocol_number and iana_protocol_name MUST apply to all the elements of the list.">
<polygon fill="none" stroke="black" points="8.5,-108.5 8.5,-129.5 285.5,-129.5 285.5,-108.5 8.5,-108.5"/>
<text text-anchor="start" x="70" y="-115.3" font-family="Nimbus Sans L" font-size="14.00">[PORTLIST] portlist (0..1)</text>
</a>
</g>
<g id="a_node1_4"><a xlink:href="../IDMEFv1/Service.html" xlink:title="Additional information about the protocol being used. &#160;The intent of the protocol field is to carry additional information related to the protocol being used when the &lt;Service&gt; attributes iana_protocol_number or/and iana_protocol_name are filed.">
<polygon fill="none" stroke="black" points="8.5,-87.5 8.5,-108.5 285.5,-108.5 285.5,-87.5 8.5,-87.5"/>
<text text-anchor="start" x="73.5" y="-94.3" font-family="Nimbus Sans L" font-size="14.00">[STRING] protocol (0..1)</text>
</a>
</g>
<g id="a_node1_5"><a xlink:href="../IDMEFv1/Service.html" xlink:title="A unique identifier for the service; see Section 3.2.9.">
<polygon fill="none" stroke="black" points="8.5,-66.5 8.5,-87.5 285.5,-87.5 285.5,-66.5 8.5,-66.5"/>
<text text-anchor="start" x="94.5" y="-73.3" font-family="Nimbus Sans L" font-size="14.00">[] ident (Optional)</text>
</a>
</g>
<g id="a_node1_6"><a xlink:href="../IDMEFv1/Service.html" xlink:title="The IP version number.">
<polygon fill="none" stroke="black" points="8.5,-45.5 8.5,-66.5 285.5,-66.5 285.5,-45.5 8.5,-45.5"/>
<text text-anchor="start" x="48" y="-52.3" font-family="Nimbus Sans L" font-size="14.00">[INTEGER] ip_version (Optional)</text>
</a>
</g>
<g id="a_node1_7"><a xlink:href="../IDMEFv1/Service.html" xlink:title="The IANA protocol number.">
<polygon fill="none" stroke="black" points="8.5,-24.5 8.5,-45.5 285.5,-45.5 285.5,-24.5 8.5,-24.5"/>
<text text-anchor="start" x="11.5" y="-31.3" font-family="Nimbus Sans L" font-size="14.00">[INTEGER] iana_protocol_number (Optional)</text>
</a>
</g>
<g id="a_node1_8"><a xlink:href="../IDMEFv1/Service.html" xlink:title="The IANA protocol name.">
<polygon fill="none" stroke="black" points="8.5,-3.5 8.5,-24.5 285.5,-24.5 285.5,-3.5 8.5,-3.5"/>
<text text-anchor="start" x="22" y="-10.3" font-family="Nimbus Sans L" font-size="14.00">[STRING] iana_protocol_name (Optional)</text>
</a>
</g>
</g>
</g>
</svg>
