<?xml version="1.0" encoding="UTF-8" standalone="no"?>
<!DOCTYPE svg PUBLIC "-//W3C//DTD SVG 1.1//EN"
 "http://www.w3.org/Graphics/SVG/1.1/DTD/svg11.dtd">
<!-- Generated by graphviz version 2.43.0 (0)
 -->
<!-- Title: User Pages: 1 -->
<svg width="435pt" height="142pt"
 viewBox="0.00 0.00 435.00 142.00" xmlns="http://www.w3.org/2000/svg" xmlns:xlink="http://www.w3.org/1999/xlink">
<g id="graph0" class="graph" transform="scale(1 1) rotate(0) translate(4 138)">
<title>User</title>
<polygon fill="white" stroke="transparent" points="-4,4 -4,-138 431,-138 431,4 -4,4"/>
<!-- User -->
<g id="node1" class="node">
<title>User</title>
<g id="a_node1_0"><a xlink:href="../IDMEFv1/User.html" xlink:title="The User class is used to describe users. It is primarily used as a &quot;container&quot; class for the UserId aggregate class, as shown in Figure 16. ">
<polygon fill="#cecece" stroke="transparent" points="8,-77 8,-98 182,-98 182,-77 8,-77"/>
<polygon fill="none" stroke="black" points="8,-77 8,-98 182,-98 182,-77 8,-77"/>
<text text-anchor="start" x="80.5" y="-83.8" font-family="Nimbus Sans L" font-size="14.00">User</text>
</a>
</g>
<g id="a_node1_1"><a xlink:href="../IDMEFv1/User.html" xlink:title="A unique identifier for the user; see Section 3.2.9.">
<polygon fill="none" stroke="black" points="8,-56 8,-77 182,-77 182,-56 8,-56"/>
<text text-anchor="start" x="42.5" y="-62.8" font-family="Nimbus Sans L" font-size="14.00">[] ident (Optional)</text>
</a>
</g>
<g id="a_node1_2"><a xlink:href="../IDMEFv1/User.html" xlink:title="The type of user represented. &#160;The permitted values for this attribute are shown below. &#160;The default value is &quot;unknown&quot;. (See also Section 10.)">
<polygon fill="none" stroke="black" points="8,-35 8,-56 182,-56 182,-35 8,-35"/>
<text text-anchor="start" x="11" y="-41.8" font-family="Nimbus Sans L" font-size="14.00">[ENUM] category (Optional)</text>
</a>
</g>
</g>
<!-- UserId -->
<g id="node2" class="node">
<title>UserId</title>
<g id="a_node2_3"><a xlink:href="../IDMEFv1/UserId.html" xlink:title="The UserId class provides specific information about a user. More than one UserId can be used within the User class to indicate attempts to transition from one user to another, or to provide complete information about a user&#39;s (or process&#39;) privileges. ">
<polygon fill="#cecece" stroke="transparent" points="259,-109 259,-130 419,-130 419,-109 259,-109"/>
<polygon fill="none" stroke="black" points="259,-109 259,-130 419,-130 419,-109 259,-109"/>
<text text-anchor="start" x="319" y="-115.8" font-family="Nimbus Sans L" font-size="14.00">UserId</text>
</a>
</g>
<g id="a_node2_4"><a xlink:href="../IDMEFv1/UserId.html" xlink:title="A user or group name.">
<polygon fill="none" stroke="black" points="259,-88 259,-109 419,-109 419,-88 259,-88"/>
<text text-anchor="start" x="272.5" y="-94.8" font-family="Nimbus Sans L" font-size="14.00">[STRING] name (0..1)</text>
</a>
</g>
<g id="a_node2_5"><a xlink:href="../IDMEFv1/UserId.html" xlink:title="A user or group number.">
<polygon fill="none" stroke="black" points="259,-67 259,-88 419,-88 419,-67 259,-67"/>
<text text-anchor="start" x="262" y="-73.8" font-family="Nimbus Sans L" font-size="14.00">[INTEGER] number (0..1)</text>
</a>
</g>
<g id="a_node2_6"><a xlink:href="../IDMEFv1/UserId.html" xlink:title="A unique identifier for the user id, see Section 3.2.9.">
<polygon fill="none" stroke="black" points="259,-46 259,-67 419,-67 419,-46 259,-46"/>
<text text-anchor="start" x="286.5" y="-52.8" font-family="Nimbus Sans L" font-size="14.00">[] ident (Optional)</text>
</a>
</g>
<g id="a_node2_7"><a xlink:href="../IDMEFv1/UserId.html" xlink:title="The type of user information represented. &#160;The permitted values for this attribute are shown below. &#160;The default value is &quot;original&#45;user&quot;. &#160;(See also Section 10.)">
<polygon fill="none" stroke="black" points="259,-25 259,-46 419,-46 419,-25 259,-25"/>
<text text-anchor="start" x="268" y="-31.8" font-family="Nimbus Sans L" font-size="14.00">[ENUM] type (Optional)</text>
</a>
</g>
<g id="a_node2_8"><a xlink:href="../IDMEFv1/UserId.html" xlink:title="The tty the user is using.">
<polygon fill="none" stroke="black" points="259,-4 259,-25 419,-25 419,-4 259,-4"/>
<text text-anchor="start" x="268" y="-10.8" font-family="Nimbus Sans L" font-size="14.00">[STRING] tty (Optional)</text>
</a>
</g>
</g>
<!-- User&#45;&gt;UserId -->
<g id="edge1" class="edge">
<title>User&#45;&gt;UserId</title>
<path fill="none" stroke="black" d="M190.26,-67C206.74,-67 223.92,-67 240.5,-67"/>
<polygon fill="black" stroke="black" points="240.72,-70.5 250.72,-67 240.72,-63.5 240.72,-70.5"/>
<text text-anchor="middle" x="220.5" y="-70.8" font-family="Times,serif" font-size="14.00">1..*</text>
</g>
</g>
</svg>
