<?xml version="1.0" encoding="UTF-8" standalone="no"?>
<!DOCTYPE svg PUBLIC "-//W3C//DTD SVG 1.1//EN"
 "http://www.w3.org/Graphics/SVG/1.1/DTD/svg11.dtd">
<!-- Generated by graphviz version 2.43.0 (0)
 -->
<!-- Title: Attachment Pages: 1 -->
<svg width="209pt" height="247pt"
 viewBox="0.00 0.00 209.00 247.00" xmlns="http://www.w3.org/2000/svg" xmlns:xlink="http://www.w3.org/1999/xlink">
<g id="graph0" class="graph" transform="scale(1 1) rotate(0) translate(4 243)">
<title>Attachment</title>
<polygon fill="white" stroke="transparent" points="-4,4 -4,-243 205,-243 205,4 -4,4"/>
<!-- Attachment -->
<g id="node1" class="node">
<title>Attachment</title>
<g id="a_node1_0"><a xlink:href="../IDMEFv2/Attachment.html" xlink:title="The Attachment class contains additional data which was captured in relation with the event. ">
<polygon fill="#cecece" stroke="transparent" points="8.5,-213.5 8.5,-234.5 193.5,-234.5 193.5,-213.5 8.5,-213.5"/>
<polygon fill="none" stroke="black" points="8.5,-213.5 8.5,-234.5 193.5,-234.5 193.5,-213.5 8.5,-213.5"/>
<text text-anchor="start" x="66" y="-220.3" font-family="Nimbus Sans L" font-size="14.00">Attachment</text>
</a>
</g>
<g id="a_node1_1"><a xlink:href="../IDMEFv2/Attachment.html" xlink:title="&quot;Attachment&quot; attribute.">
<polygon fill="none" stroke="black" points="8.5,-192.5 8.5,-213.5 193.5,-213.5 193.5,-192.5 8.5,-192.5"/>
<text text-anchor="start" x="70.5" y="-199.3" font-family="Nimbus Sans L" font-size="14.00">[] Name ()</text>
</a>
</g>
<g id="a_node1_2"><a xlink:href="../IDMEFv2/Attachment.html" xlink:title="Attachment filename.">
<polygon fill="none" stroke="black" points="8.5,-171.5 8.5,-192.5 193.5,-192.5 193.5,-171.5 8.5,-171.5"/>
<text text-anchor="start" x="34" y="-178.3" font-family="Nimbus Sans L" font-size="14.00">[] FileName (Optional)</text>
</a>
</g>
<g id="a_node1_3"><a xlink:href="../IDMEFv2/Attachment.html" xlink:title="A list of hash results for the attachment&#39;s Content.">
<polygon fill="none" stroke="black" points="8.5,-150.5 8.5,-171.5 193.5,-171.5 193.5,-150.5 8.5,-150.5"/>
<text text-anchor="start" x="47.5" y="-157.3" font-family="Nimbus Sans L" font-size="14.00">[] Hash (Optional)</text>
</a>
</g>
<g id="a_node1_4"><a xlink:href="../IDMEFv2/Attachment.html" xlink:title="Length of the content (in bytes).">
<polygon fill="none" stroke="black" points="8.5,-129.5 8.5,-150.5 193.5,-150.5 193.5,-129.5 8.5,-129.5"/>
<text text-anchor="start" x="50" y="-136.3" font-family="Nimbus Sans L" font-size="14.00">[] Size (Optional)</text>
</a>
</g>
<g id="a_node1_5"><a xlink:href="../IDMEFv2/Attachment.html" xlink:title="References to sources of information related to the alert and/or vulnerability, and specific to this attachment.">
<polygon fill="none" stroke="black" points="8.5,-108.5 8.5,-129.5 193.5,-129.5 193.5,-108.5 8.5,-108.5"/>
<text text-anchor="start" x="52.5" y="-115.3" font-family="Nimbus Sans L" font-size="14.00">[] Ref (Optional)</text>
</a>
</g>
<g id="a_node1_6"><a xlink:href="../IDMEFv2/Attachment.html" xlink:title="If the attachment&#39;s content is available and/or recognizable from an external resource, this is the URI (usually a URL) to that resource.">
<polygon fill="none" stroke="black" points="8.5,-87.5 8.5,-108.5 193.5,-108.5 193.5,-87.5 8.5,-87.5"/>
<text text-anchor="start" x="27" y="-94.3" font-family="Nimbus Sans L" font-size="14.00">[] ExternalURI (Optional)</text>
</a>
</g>
<g id="a_node1_7"><a xlink:href="../IDMEFv2/Attachment.html" xlink:title="Free text human&#45;readable additional note for this attachment.">
<polygon fill="none" stroke="black" points="8.5,-66.5 8.5,-87.5 193.5,-87.5 193.5,-66.5 8.5,-66.5"/>
<text text-anchor="start" x="49" y="-73.3" font-family="Nimbus Sans L" font-size="14.00">[] Note (Optional)</text>
</a>
</g>
<g id="a_node1_8"><a xlink:href="../IDMEFv2/Attachment.html" xlink:title="Internet Media Type of the attachment.">
<polygon fill="none" stroke="black" points="8.5,-45.5 8.5,-66.5 193.5,-66.5 193.5,-45.5 8.5,-45.5"/>
<text text-anchor="start" x="25" y="-52.3" font-family="Nimbus Sans L" font-size="14.00">[] ContentType (Optional)</text>
</a>
</g>
<g id="a_node1_9"><a xlink:href="../IDMEFv2/Attachment.html" xlink:title="Content encoding.">
<polygon fill="none" stroke="black" points="8.5,-24.5 8.5,-45.5 193.5,-45.5 193.5,-24.5 8.5,-24.5"/>
<text text-anchor="start" x="11.5" y="-31.3" font-family="Nimbus Sans L" font-size="14.00">[] ContentEncoding (Optional)</text>
</a>
</g>
<g id="a_node1_10"><a xlink:href="../IDMEFv2/Attachment.html" xlink:title="The attachment&#39;s content, in case it is directly embedded inside the message.">
<polygon fill="none" stroke="black" points="8.5,-3.5 8.5,-24.5 193.5,-24.5 193.5,-3.5 8.5,-3.5"/>
<text text-anchor="start" x="39.5" y="-10.3" font-family="Nimbus Sans L" font-size="14.00">[] Content (Optional)</text>
</a>
</g>
</g>
</g>
</svg>
