<?xml version="1.0" encoding="UTF-8" standalone="no"?>
<!DOCTYPE svg PUBLIC "-//W3C//DTD SVG 1.1//EN"
 "http://www.w3.org/Graphics/SVG/1.1/DTD/svg11.dtd">
<!-- Generated by graphviz version 2.43.0 (0)
 -->
<!-- Title: Sensor Pages: 1 -->
<svg width="184pt" height="184pt"
 viewBox="0.00 0.00 184.00 184.00" xmlns="http://www.w3.org/2000/svg" xmlns:xlink="http://www.w3.org/1999/xlink">
<g id="graph0" class="graph" transform="scale(1 1) rotate(0) translate(4 180)">
<title>Sensor</title>
<polygon fill="white" stroke="transparent" points="-4,4 -4,-180 180,-180 180,4 -4,4"/>
<!-- Sensor -->
<g id="node1" class="node">
<title>Sensor</title>
<g id="a_node1_0"><a xlink:href="../IDMEFv2/Sensor.html" xlink:title="The Sensor class describes the module that captured the data before sending it to an analyzer. The Sensor may be a subpart of the Analyzer. ">
<polygon fill="#cecece" stroke="transparent" points="8,-151 8,-172 168,-172 168,-151 8,-151"/>
<polygon fill="none" stroke="black" points="8,-151 8,-172 168,-172 168,-151 8,-151"/>
<text text-anchor="start" x="66.5" y="-157.8" font-family="Nimbus Sans L" font-size="14.00">Sensor</text>
</a>
</g>
<g id="a_node1_1"><a xlink:href="../IDMEFv2/Sensor.html" xlink:title="The sensor&#39;s IP address.">
<polygon fill="none" stroke="black" points="8,-130 8,-151 168,-151 168,-130 8,-130"/>
<text text-anchor="start" x="37" y="-136.8" font-family="Nimbus Sans L" font-size="14.00">[Mandatory] IP ()</text>
</a>
</g>
<g id="a_node1_2"><a xlink:href="../IDMEFv2/Sensor.html" xlink:title="however still bear some meaningful sense.">
<polygon fill="none" stroke="black" points="8,-109 8,-130 168,-130 168,-109 8,-109"/>
<text text-anchor="start" x="57.5" y="-115.8" font-family="Nimbus Sans L" font-size="14.00">[] Name ()</text>
</a>
</g>
<g id="a_node1_3"><a xlink:href="../IDMEFv2/Sensor.html" xlink:title="The sensor&#39;s hostname.">
<polygon fill="none" stroke="black" points="8,-88 8,-109 168,-109 168,-88 8,-88"/>
<text text-anchor="start" x="19" y="-94.8" font-family="Nimbus Sans L" font-size="14.00">[] Hostname (Optional)</text>
</a>
</g>
<g id="a_node1_4"><a xlink:href="../IDMEFv2/Sensor.html" xlink:title="Expires 18 April 2023 &#160;&#160;&#160;&#160;&#160;&#160;&#160;&#160;&#160;&#160;&#160;&#160;&#160;&#160;&#160;[Page 37]">
<polygon fill="none" stroke="black" points="8,-67 8,-88 168,-88 168,-67 8,-67"/>
<text text-anchor="start" x="57" y="-73.8" font-family="Nimbus Sans L" font-size="14.00">[] Model ()</text>
</a>
</g>
<g id="a_node1_5"><a xlink:href="../IDMEFv2/Sensor.html" xlink:title="Standard UN/Locode for the sensor.">
<polygon fill="none" stroke="black" points="8,-46 8,-67 168,-67 168,-46 8,-46"/>
<text text-anchor="start" x="16" y="-52.8" font-family="Nimbus Sans L" font-size="14.00">[] UnLocation (Optional)</text>
</a>
</g>
<g id="a_node1_6"><a xlink:href="../IDMEFv2/Sensor.html" xlink:title="Internal name for the location of the sensor.">
<polygon fill="none" stroke="black" points="8,-25 8,-46 168,-46 168,-25 8,-25"/>
<text text-anchor="start" x="24.5" y="-31.8" font-family="Nimbus Sans L" font-size="14.00">[] Location (Optional)</text>
</a>
</g>
<g id="a_node1_7"><a xlink:href="../IDMEFv2/Sensor.html" xlink:title="A string that describes the &quot;capture zone&quot; of the sensor, as a JSON&#45;serialized string.">
<polygon fill="none" stroke="black" points="8,-4 8,-25 168,-25 168,-4 8,-4"/>
<text text-anchor="start" x="11" y="-10.8" font-family="Nimbus Sans L" font-size="14.00">[] CaptureZone (Optional)</text>
</a>
</g>
</g>
</g>
</svg>
