<?xml version="1.0" encoding="UTF-8" standalone="no"?>
<!DOCTYPE svg PUBLIC "-//W3C//DTD SVG 1.1//EN"
 "http://www.w3.org/Graphics/SVG/1.1/DTD/svg11.dtd">
<!-- Generated by graphviz version 2.43.0 (0)
 -->
<!-- Title: Source Pages: 1 -->
<svg width="183pt" height="310pt"
 viewBox="0.00 0.00 183.00 310.00" xmlns="http://www.w3.org/2000/svg" xmlns:xlink="http://www.w3.org/1999/xlink">
<g id="graph0" class="graph" transform="scale(1 1) rotate(0) translate(4 306)">
<title>Source</title>
<polygon fill="white" stroke="transparent" points="-4,4 -4,-306 179,-306 179,4 -4,4"/>
<!-- Source -->
<g id="node1" class="node">
<title>Source</title>
<g id="a_node1_0"><a xlink:href="../IDMEFv2/Source.html" xlink:title="The Source class describes the source(s) of the event(s) leading up to the alert. ">
<polygon fill="#cecece" stroke="transparent" points="8.5,-277 8.5,-298 167.5,-298 167.5,-277 8.5,-277"/>
<polygon fill="none" stroke="black" points="8.5,-277 8.5,-298 167.5,-298 167.5,-277 8.5,-277"/>
<text text-anchor="start" x="66.5" y="-283.8" font-family="Nimbus Sans L" font-size="14.00">Source</text>
</a>
</g>
<g id="a_node1_1"><a xlink:href="../IDMEFv2/Source.html" xlink:title="Source IP address.">
<polygon fill="none" stroke="black" points="8.5,-256 8.5,-277 167.5,-277 167.5,-256 8.5,-256"/>
<text text-anchor="start" x="44" y="-262.8" font-family="Nimbus Sans L" font-size="14.00">[] IP (Optional)</text>
</a>
</g>
<g id="a_node1_2"><a xlink:href="../IDMEFv2/Source.html" xlink:title="Hostname of this source.">
<polygon fill="none" stroke="black" points="8.5,-235 8.5,-256 167.5,-256 167.5,-235 8.5,-235"/>
<text text-anchor="start" x="19" y="-241.8" font-family="Nimbus Sans L" font-size="14.00">[] Hostname (Optional)</text>
</a>
</g>
<g id="a_node1_3"><a xlink:href="../IDMEFv2/Source.html" xlink:title="Free text human&#45;readable additional note for this source.">
<polygon fill="none" stroke="black" points="8.5,-214 8.5,-235 167.5,-235 167.5,-214 8.5,-214"/>
<text text-anchor="start" x="36" y="-220.8" font-family="Nimbus Sans L" font-size="14.00">[] Note (Optional)</text>
</a>
</g>
<g id="a_node1_4"><a xlink:href="../IDMEFv2/Source.html" xlink:title="Threat Intelligence data about the source.">
<polygon fill="none" stroke="black" points="8.5,-193 8.5,-214 167.5,-214 167.5,-193 8.5,-193"/>
<text text-anchor="start" x="44" y="-199.8" font-family="Nimbus Sans L" font-size="14.00">[] TI (Optional)</text>
</a>
</g>
<g id="a_node1_5"><a xlink:href="../IDMEFv2/Source.html" xlink:title="User ID or login responsible for the alert.">
<polygon fill="none" stroke="black" points="8.5,-172 8.5,-193 167.5,-193 167.5,-172 8.5,-172"/>
<text text-anchor="start" x="36" y="-178.8" font-family="Nimbus Sans L" font-size="14.00">[] User (Optional)</text>
</a>
</g>
<g id="a_node1_6"><a xlink:href="../IDMEFv2/Source.html" xlink:title="Email address responsible for the alert.">
<polygon fill="none" stroke="black" points="8.5,-151 8.5,-172 167.5,-172 167.5,-151 8.5,-151"/>
<text text-anchor="start" x="33" y="-157.8" font-family="Nimbus Sans L" font-size="14.00">[] Email (Optional)</text>
</a>
</g>
<g id="a_node1_7"><a xlink:href="../IDMEFv2/Source.html" xlink:title="Protocols related to connections from/to this source.">
<polygon fill="none" stroke="black" points="8.5,-130 8.5,-151 167.5,-151 167.5,-130 8.5,-130"/>
<text text-anchor="start" x="25.5" y="-136.8" font-family="Nimbus Sans L" font-size="14.00">[] Protocol (Optional)</text>
</a>
</g>
<g id="a_node1_8"><a xlink:href="../IDMEFv2/Source.html" xlink:title="Source ports involved in the alert.">
<polygon fill="none" stroke="black" points="8.5,-109 8.5,-130 167.5,-130 167.5,-109 8.5,-109"/>
<text text-anchor="start" x="38" y="-115.8" font-family="Nimbus Sans L" font-size="14.00">[] Port (Optional)</text>
</a>
</g>
<g id="a_node1_9"><a xlink:href="../IDMEFv2/Source.html" xlink:title="GPS coordinates for the source.">
<polygon fill="none" stroke="black" points="8.5,-88 8.5,-109 167.5,-109 167.5,-88 8.5,-88"/>
<text text-anchor="start" x="11.5" y="-94.8" font-family="Nimbus Sans L" font-size="14.00">[] GeoLocation (Optional)</text>
</a>
</g>
<g id="a_node1_10"><a xlink:href="../IDMEFv2/Source.html" xlink:title="Standard UN/Locode for the source.">
<polygon fill="none" stroke="black" points="8.5,-67 8.5,-88 167.5,-88 167.5,-67 8.5,-67"/>
<text text-anchor="start" x="16" y="-73.8" font-family="Nimbus Sans L" font-size="14.00">[] UnLocation (Optional)</text>
</a>
</g>
<g id="a_node1_11"><a xlink:href="../IDMEFv2/Source.html" xlink:title="Internal name for the location of the source.">
<polygon fill="none" stroke="black" points="8.5,-46 8.5,-67 167.5,-67 167.5,-46 8.5,-46"/>
<text text-anchor="start" x="24.5" y="-52.8" font-family="Nimbus Sans L" font-size="14.00">[] Location (Optional)</text>
</a>
</g>
<g id="a_node1_12"><a xlink:href="../IDMEFv2/Source.html" xlink:title="Identifiers for attachments related to this source.">
<polygon fill="none" stroke="black" points="8.5,-25 8.5,-46 167.5,-46 167.5,-25 8.5,-25"/>
<text text-anchor="start" x="16" y="-31.8" font-family="Nimbus Sans L" font-size="14.00">[] Attachment (Optional)</text>
</a>
</g>
<g id="a_node1_13"><a xlink:href="../IDMEFv2/Source.html" xlink:title="Identifiers for observables related to this source.">
<polygon fill="none" stroke="black" points="8.5,-4 8.5,-25 167.5,-25 167.5,-4 8.5,-4"/>
<text text-anchor="start" x="15.5" y="-10.8" font-family="Nimbus Sans L" font-size="14.00">[] Observable (Optional)</text>
</a>
</g>
</g>
</g>
</svg>
