<?xml version="1.0" encoding="UTF-8" standalone="no"?>
<!DOCTYPE svg PUBLIC "-//W3C//DTD SVG 1.1//EN"
 "http://www.w3.org/Graphics/SVG/1.1/DTD/svg11.dtd">
<!-- Generated by graphviz version 2.43.0 (0)
 -->
<!-- Title: Target Pages: 1 -->
<svg width="183pt" height="289pt"
 viewBox="0.00 0.00 183.00 289.00" xmlns="http://www.w3.org/2000/svg" xmlns:xlink="http://www.w3.org/1999/xlink">
<g id="graph0" class="graph" transform="scale(1 1) rotate(0) translate(4 285)">
<title>Target</title>
<polygon fill="white" stroke="transparent" points="-4,4 -4,-285 179,-285 179,4 -4,4"/>
<!-- Target -->
<g id="node1" class="node">
<title>Target</title>
<g id="a_node1_0"><a xlink:href="../IDMEFv2/Target.html" xlink:title="The Target class describes the target(s) of the event(s) leading up to the alert. ">
<polygon fill="#cecece" stroke="transparent" points="8.5,-255.5 8.5,-276.5 167.5,-276.5 167.5,-255.5 8.5,-255.5"/>
<polygon fill="none" stroke="black" points="8.5,-255.5 8.5,-276.5 167.5,-276.5 167.5,-255.5 8.5,-255.5"/>
<text text-anchor="start" x="69" y="-262.3" font-family="Nimbus Sans L" font-size="14.00">Target</text>
</a>
</g>
<g id="a_node1_1"><a xlink:href="../IDMEFv2/Target.html" xlink:title="Target IP address.">
<polygon fill="none" stroke="black" points="8.5,-234.5 8.5,-255.5 167.5,-255.5 167.5,-234.5 8.5,-234.5"/>
<text text-anchor="start" x="44" y="-241.3" font-family="Nimbus Sans L" font-size="14.00">[] IP (Optional)</text>
</a>
</g>
<g id="a_node1_2"><a xlink:href="../IDMEFv2/Target.html" xlink:title="Hostname of this target.">
<polygon fill="none" stroke="black" points="8.5,-213.5 8.5,-234.5 167.5,-234.5 167.5,-213.5 8.5,-213.5"/>
<text text-anchor="start" x="19" y="-220.3" font-family="Nimbus Sans L" font-size="14.00">[] Hostname (Optional)</text>
</a>
</g>
<g id="a_node1_3"><a xlink:href="../IDMEFv2/Target.html" xlink:title="Expires 18 April 2023 &#160;&#160;&#160;&#160;&#160;&#160;&#160;&#160;&#160;&#160;&#160;&#160;&#160;&#160;&#160;[Page 41]">
<polygon fill="none" stroke="black" points="8.5,-192.5 8.5,-213.5 167.5,-213.5 167.5,-192.5 8.5,-192.5"/>
<text text-anchor="start" x="61.5" y="-199.3" font-family="Nimbus Sans L" font-size="14.00">[] Note ()</text>
</a>
</g>
<g id="a_node1_4"><a xlink:href="../IDMEFv2/Target.html" xlink:title="Service or process impacted by the alert.">
<polygon fill="none" stroke="black" points="8.5,-171.5 8.5,-192.5 167.5,-192.5 167.5,-171.5 8.5,-171.5"/>
<text text-anchor="start" x="27.5" y="-178.3" font-family="Nimbus Sans L" font-size="14.00">[] Service (Optional)</text>
</a>
</g>
<g id="a_node1_5"><a xlink:href="../IDMEFv2/Target.html" xlink:title="User ID or login targeted by the alert.">
<polygon fill="none" stroke="black" points="8.5,-150.5 8.5,-171.5 167.5,-171.5 167.5,-150.5 8.5,-150.5"/>
<text text-anchor="start" x="36" y="-157.3" font-family="Nimbus Sans L" font-size="14.00">[] User (Optional)</text>
</a>
</g>
<g id="a_node1_6"><a xlink:href="../IDMEFv2/Target.html" xlink:title="Email address targeted by the alert.">
<polygon fill="none" stroke="black" points="8.5,-129.5 8.5,-150.5 167.5,-150.5 167.5,-129.5 8.5,-129.5"/>
<text text-anchor="start" x="33" y="-136.3" font-family="Nimbus Sans L" font-size="14.00">[] Email (Optional)</text>
</a>
</g>
<g id="a_node1_7"><a xlink:href="../IDMEFv2/Target.html" xlink:title="Target ports involved in the alert.">
<polygon fill="none" stroke="black" points="8.5,-108.5 8.5,-129.5 167.5,-129.5 167.5,-108.5 8.5,-108.5"/>
<text text-anchor="start" x="38" y="-115.3" font-family="Nimbus Sans L" font-size="14.00">[] Port (Optional)</text>
</a>
</g>
<g id="a_node1_8"><a xlink:href="../IDMEFv2/Target.html" xlink:title="GPS coordinates for the target.">
<polygon fill="none" stroke="black" points="8.5,-87.5 8.5,-108.5 167.5,-108.5 167.5,-87.5 8.5,-87.5"/>
<text text-anchor="start" x="11.5" y="-94.3" font-family="Nimbus Sans L" font-size="14.00">[] GeoLocation (Optional)</text>
</a>
</g>
<g id="a_node1_9"><a xlink:href="../IDMEFv2/Target.html" xlink:title="Standard UN/Locode for the target.">
<polygon fill="none" stroke="black" points="8.5,-66.5 8.5,-87.5 167.5,-87.5 167.5,-66.5 8.5,-66.5"/>
<text text-anchor="start" x="16" y="-73.3" font-family="Nimbus Sans L" font-size="14.00">[] UnLocation (Optional)</text>
</a>
</g>
<g id="a_node1_10"><a xlink:href="../IDMEFv2/Target.html" xlink:title="Internal name for the location of the target.">
<polygon fill="none" stroke="black" points="8.5,-45.5 8.5,-66.5 167.5,-66.5 167.5,-45.5 8.5,-45.5"/>
<text text-anchor="start" x="24.5" y="-52.3" font-family="Nimbus Sans L" font-size="14.00">[] Location (Optional)</text>
</a>
</g>
<g id="a_node1_11"><a xlink:href="../IDMEFv2/Target.html" xlink:title="Identifiers for attachments related to this target.">
<polygon fill="none" stroke="black" points="8.5,-24.5 8.5,-45.5 167.5,-45.5 167.5,-24.5 8.5,-24.5"/>
<text text-anchor="start" x="16" y="-31.3" font-family="Nimbus Sans L" font-size="14.00">[] Attachment (Optional)</text>
</a>
</g>
<g id="a_node1_12"><a xlink:href="../IDMEFv2/Target.html" xlink:title="Identifiers for observables related to this target.">
<polygon fill="none" stroke="black" points="8.5,-3.5 8.5,-24.5 167.5,-24.5 167.5,-3.5 8.5,-3.5"/>
<text text-anchor="start" x="15.5" y="-10.3" font-family="Nimbus Sans L" font-size="14.00">[] Observable (Optional)</text>
</a>
</g>
</g>
</g>
</svg>
