<?xml version="1.0" encoding="UTF-8" standalone="no"?>
<!DOCTYPE svg PUBLIC "-//W3C//DTD SVG 1.1//EN"
 "http://www.w3.org/Graphics/SVG/1.1/DTD/svg11.dtd">
<!-- Generated by graphviz version 2.43.0 (0)
 -->
<!-- Title: Analyzer Pages: 1 -->
<svg width="691pt" height="317pt"
 viewBox="0.00 0.00 691.00 317.00" xmlns="http://www.w3.org/2000/svg" xmlns:xlink="http://www.w3.org/1999/xlink">
<g id="graph0" class="graph" transform="scale(1 1) rotate(0) translate(4 313)">
<title>Analyzer</title>
<polygon fill="white" stroke="transparent" points="-4,4 -4,-313 687,-313 687,4 -4,4"/>
<!-- Analyzer -->
<g id="node1" class="node">
<title>Analyzer</title>
<g id="a_node1_0"><a xlink:href="../IDMEFv1/Analyzer.html" xlink:title="The Analyzer class identifies the analyzer from which the Alert or Heartbeat message originates. Only one analyzer may be encoded for each alert or heartbeat, and that MUST be the analyzer at which the alert or heartbeat originated. Although the IDMEF data model does not prevent the use of hierarchical intrusion detection systems (where alerts get relayed up the tree), it does not provide any way to record the identity of the &quot;relay&quot; analyzers along the path from the originating analyzer to the manager that ultimately receives the alert. ">
<polygon fill="#cecece" stroke="transparent" points="8,-171.5 8,-192.5 170,-192.5 170,-171.5 8,-171.5"/>
<polygon fill="none" stroke="black" points="8,-171.5 8,-192.5 170,-192.5 170,-171.5 8,-171.5"/>
<text text-anchor="start" x="62.5" y="-178.3" font-family="Nimbus Sans L" font-size="14.00">Analyzer</text>
</a>
</g>
<g id="a_node1_1"><a xlink:href="../IDMEFv1/Analyzer.html" xlink:title="(but see below). &#160;A unique identifier for the analyzer; see Section 3.2.9.">
<polygon fill="none" stroke="black" points="8,-150.5 8,-171.5 170,-171.5 170,-150.5 8,-150.5"/>
<text text-anchor="start" x="20.5" y="-157.3" font-family="Nimbus Sans L" font-size="14.00">[] analyzerid (Optional)</text>
</a>
</g>
<g id="a_node1_2"><a xlink:href="../IDMEFv1/Analyzer.html" xlink:title="An explicit name for the analyzer that may be easier to understand than the analyzerid.">
<polygon fill="none" stroke="black" points="8,-129.5 8,-150.5 170,-150.5 170,-129.5 8,-129.5"/>
<text text-anchor="start" x="34" y="-136.3" font-family="Nimbus Sans L" font-size="14.00">[] name (Optional)</text>
</a>
</g>
<g id="a_node1_3"><a xlink:href="../IDMEFv1/Analyzer.html" xlink:title="The manufacturer of the analyzer software and/or hardware.">
<polygon fill="none" stroke="black" points="8,-108.5 8,-129.5 170,-129.5 170,-108.5 8,-108.5"/>
<text text-anchor="start" x="11" y="-115.3" font-family="Nimbus Sans L" font-size="14.00">[] manufacturer (Optional)</text>
</a>
</g>
<g id="a_node1_4"><a xlink:href="../IDMEFv1/Analyzer.html" xlink:title="The model name/number of the analyzer software and/or hardware.">
<polygon fill="none" stroke="black" points="8,-87.5 8,-108.5 170,-108.5 170,-87.5 8,-87.5"/>
<text text-anchor="start" x="32.5" y="-94.3" font-family="Nimbus Sans L" font-size="14.00">[] model (Optional)</text>
</a>
</g>
<g id="a_node1_5"><a xlink:href="../IDMEFv1/Analyzer.html" xlink:title="The version number of the analyzer software and/or hardware.">
<polygon fill="none" stroke="black" points="8,-66.5 8,-87.5 170,-87.5 170,-66.5 8,-66.5"/>
<text text-anchor="start" x="29.5" y="-73.3" font-family="Nimbus Sans L" font-size="14.00">[] version (Optional)</text>
</a>
</g>
<g id="a_node1_6"><a xlink:href="../IDMEFv1/Analyzer.html" xlink:title="The class of analyzer software and/or hardware.">
<polygon fill="none" stroke="black" points="8,-45.5 8,-66.5 170,-66.5 170,-45.5 8,-45.5"/>
<text text-anchor="start" x="36" y="-52.3" font-family="Nimbus Sans L" font-size="14.00">[] class (Optional)</text>
</a>
</g>
<g id="a_node1_7"><a xlink:href="../IDMEFv1/Analyzer.html" xlink:title="Operating system name. &#160;On POSIX 1003.1 compliant systems, this is the value returned in utsname.sysname by the uname() system call, or the output of the &quot;uname &#45;s&quot; command.">
<polygon fill="none" stroke="black" points="8,-24.5 8,-45.5 170,-45.5 170,-24.5 8,-24.5"/>
<text text-anchor="start" x="31.5" y="-31.3" font-family="Nimbus Sans L" font-size="14.00">[] ostype (Optional)</text>
</a>
</g>
<g id="a_node1_8"><a xlink:href="../IDMEFv1/Analyzer.html" xlink:title="Operating system version. &#160;On POSIX 1003.1 compliant systems, this is the value returned in utsname.release by the uname() system call, or the output of the &quot;uname &#45;r&quot; command.">
<polygon fill="none" stroke="black" points="8,-3.5 8,-24.5 170,-24.5 170,-3.5 8,-3.5"/>
<text text-anchor="start" x="22.5" y="-10.3" font-family="Nimbus Sans L" font-size="14.00">[] osversion (Optional)</text>
</a>
</g>
</g>
<!-- Analyzer&#45;&gt;Analyzer -->
<g id="edge4" class="edge">
<title>Analyzer&#45;&gt;Analyzer</title>
<path fill="none" stroke="black" d="M70.07,-197.09C73.67,-207.97 79.98,-215 89,-215 95.06,-215 99.9,-211.83 103.51,-206.45"/>
<polygon fill="black" stroke="black" points="106.82,-207.63 107.93,-197.09 100.49,-204.64 106.82,-207.63"/>
<text text-anchor="middle" x="89" y="-218.8" font-family="Times,serif" font-size="14.00">0..1</text>
</g>
<!-- Node -->
<g id="node2" class="node">
<title>Node</title>
<g id="a_node2_9"><a xlink:href="../IDMEFv1/Node.html" xlink:title="The Node class is used to identify hosts and other network devices (routers, switches, etc.). ">
<polygon fill="#cecece" stroke="transparent" points="250,-262.5 250,-283.5 424,-283.5 424,-262.5 250,-262.5"/>
<polygon fill="none" stroke="black" points="250,-262.5 250,-283.5 424,-283.5 424,-262.5 250,-262.5"/>
<text text-anchor="start" x="320.5" y="-269.3" font-family="Nimbus Sans L" font-size="14.00">Node</text>
</a>
</g>
<g id="a_node2_10"><a xlink:href="../IDMEFv1/Node.html" xlink:title="The location of the equipment.">
<polygon fill="none" stroke="black" points="250,-241.5 250,-262.5 424,-262.5 424,-241.5 250,-241.5"/>
<text text-anchor="start" x="264.5" y="-248.3" font-family="Nimbus Sans L" font-size="14.00">[STRING] location (0..1)</text>
</a>
</g>
<g id="a_node2_11"><a xlink:href="../IDMEFv1/Node.html" xlink:title="The name of the equipment. &#160;This information MUST be provided if no Address information is given.">
<polygon fill="none" stroke="black" points="250,-220.5 250,-241.5 424,-241.5 424,-220.5 250,-220.5"/>
<text text-anchor="start" x="270.5" y="-227.3" font-family="Nimbus Sans L" font-size="14.00">[STRING] name (0..1)</text>
</a>
</g>
<g id="a_node2_12"><a xlink:href="../IDMEFv1/Node.html" xlink:title="A unique identifier for the node; see Section 3.2.9.">
<polygon fill="none" stroke="black" points="250,-199.5 250,-220.5 424,-220.5 424,-199.5 250,-199.5"/>
<text text-anchor="start" x="284.5" y="-206.3" font-family="Nimbus Sans L" font-size="14.00">[] ident (Optional)</text>
</a>
</g>
<g id="a_node2_13"><a xlink:href="../IDMEFv1/Node.html" xlink:title="The &quot;domain&quot; from which the name information was obtained, if relevant. &#160;The permitted values for this attribute are shown in the table below. &#160;The default value is &quot;unknown&quot;. (See also Section 10 for extensions to the table.)">
<polygon fill="none" stroke="black" points="250,-178.5 250,-199.5 424,-199.5 424,-178.5 250,-178.5"/>
<text text-anchor="start" x="253" y="-185.3" font-family="Nimbus Sans L" font-size="14.00">[ENUM] category (Optional)</text>
</a>
</g>
</g>
<!-- Analyzer&#45;&gt;Node -->
<g id="edge2" class="edge">
<title>Analyzer&#45;&gt;Node</title>
<path fill="none" stroke="black" d="M178.12,-146.14C195.89,-155.75 214.72,-165.93 232.95,-175.79"/>
<polygon fill="black" stroke="black" points="231.38,-178.92 241.84,-180.59 234.71,-172.76 231.38,-178.92"/>
<text text-anchor="middle" x="210" y="-173.3" font-family="Times,serif" font-size="14.00">0..1</text>
</g>
<!-- Process -->
<g id="node4" class="node">
<title>Process</title>
<g id="a_node4_14"><a xlink:href="../IDMEFv1/Process.html" xlink:title="The Process class is used to describe processes being executed on sources, targets, and analyzers. ">
<polygon fill="#cecece" stroke="transparent" points="271,-131.5 271,-152.5 403,-152.5 403,-131.5 271,-131.5"/>
<polygon fill="none" stroke="black" points="271,-131.5 271,-152.5 403,-152.5 403,-131.5 271,-131.5"/>
<text text-anchor="start" x="312.5" y="-138.3" font-family="Nimbus Sans L" font-size="14.00">Process</text>
</a>
</g>
<g id="a_node4_15"><a xlink:href="../IDMEFv1/Process.html" xlink:title="The name of the program being executed. This is a short name; path and argument information are provided elsewhere.">
<polygon fill="none" stroke="black" points="271,-110.5 271,-131.5 403,-131.5 403,-110.5 271,-110.5"/>
<text text-anchor="start" x="278" y="-117.3" font-family="Nimbus Sans L" font-size="14.00">[STRING] name (1)</text>
</a>
</g>
<g id="a_node4_16"><a xlink:href="../IDMEFv1/Process.html" xlink:title="The process identifier of the process.">
<polygon fill="none" stroke="black" points="271,-89.5 271,-110.5 403,-110.5 403,-89.5 271,-89.5"/>
<text text-anchor="start" x="274" y="-96.3" font-family="Nimbus Sans L" font-size="14.00">[INTEGER] pid (0..1)</text>
</a>
</g>
<g id="a_node4_17"><a xlink:href="../IDMEFv1/Process.html" xlink:title="The full path of the program being executed.">
<polygon fill="none" stroke="black" points="271,-68.5 271,-89.5 403,-89.5 403,-68.5 271,-68.5"/>
<text text-anchor="start" x="274.5" y="-75.3" font-family="Nimbus Sans L" font-size="14.00">[STRING] path (0..1)</text>
</a>
</g>
<g id="a_node4_18"><a xlink:href="../IDMEFv1/Process.html" xlink:title="A command&#45;line argument to the program. Multiple arguments may be specified (they are assumed to have occurred in the same order they are provided) with multiple uses of arg.">
<polygon fill="none" stroke="black" points="271,-47.5 271,-68.5 403,-68.5 403,-47.5 271,-47.5"/>
<text text-anchor="start" x="279" y="-54.3" font-family="Nimbus Sans L" font-size="14.00">[STRING] arg (0..*)</text>
</a>
</g>
<g id="a_node4_19"><a xlink:href="../IDMEFv1/Process.html" xlink:title="An environment string associated with the process; generally of the format &quot;VARIABLE=value&quot;. &#160;Multiple environment strings may be specified with multiple uses of env.">
<polygon fill="none" stroke="black" points="271,-26.5 271,-47.5 403,-47.5 403,-26.5 271,-26.5"/>
<text text-anchor="start" x="278" y="-33.3" font-family="Nimbus Sans L" font-size="14.00">[STRING] env (0..*)</text>
</a>
</g>
<g id="a_node4_20"><a xlink:href="../IDMEFv1/Process.html" xlink:title="A unique identifier for the process; see Section 3.2.9.">
<polygon fill="none" stroke="black" points="271,-5.5 271,-26.5 403,-26.5 403,-5.5 271,-5.5"/>
<text text-anchor="start" x="284.5" y="-12.3" font-family="Nimbus Sans L" font-size="14.00">[] ident (Optional)</text>
</a>
</g>
</g>
<!-- Analyzer&#45;&gt;Process -->
<g id="edge3" class="edge">
<title>Analyzer&#45;&gt;Process</title>
<path fill="none" stroke="black" d="M178.12,-91.69C202.36,-89.82 228.58,-87.8 252.56,-85.94"/>
<polygon fill="black" stroke="black" points="252.98,-89.42 262.68,-85.16 252.44,-82.44 252.98,-89.42"/>
<text text-anchor="middle" x="210" y="-94.3" font-family="Times,serif" font-size="14.00">0..1</text>
</g>
<!-- Address -->
<g id="node3" class="node">
<title>Address</title>
<g id="a_node3_21"><a xlink:href="../IDMEFv1/Address.html" xlink:title="The Address class is used to represent network, hardware, and application addresses. ">
<polygon fill="#cecece" stroke="transparent" points="501,-283.5 501,-304.5 675,-304.5 675,-283.5 501,-283.5"/>
<polygon fill="none" stroke="black" points="501,-283.5 501,-304.5 675,-304.5 675,-283.5 501,-283.5"/>
<text text-anchor="start" x="563" y="-290.3" font-family="Nimbus Sans L" font-size="14.00">Address</text>
</a>
</g>
<g id="a_node3_22"><a xlink:href="../IDMEFv1/Address.html" xlink:title="The address information. &#160;The format of this data is governed by the category attribute.">
<polygon fill="none" stroke="black" points="501,-262.5 501,-283.5 675,-283.5 675,-262.5 501,-262.5"/>
<text text-anchor="start" x="522" y="-269.3" font-family="Nimbus Sans L" font-size="14.00">[STRING] address (1)</text>
</a>
</g>
<g id="a_node3_23"><a xlink:href="../IDMEFv1/Address.html" xlink:title="The network mask for the address, if appropriate.">
<polygon fill="none" stroke="black" points="501,-241.5 501,-262.5 675,-262.5 675,-241.5 501,-241.5"/>
<text text-anchor="start" x="512.5" y="-248.3" font-family="Nimbus Sans L" font-size="14.00">[STRING] netmask (0..1)</text>
</a>
</g>
<g id="a_node3_24"><a xlink:href="../IDMEFv1/Address.html" xlink:title="A unique identifier for the address; see Section 3.2.9.">
<polygon fill="none" stroke="black" points="501,-220.5 501,-241.5 675,-241.5 675,-220.5 501,-220.5"/>
<text text-anchor="start" x="535.5" y="-227.3" font-family="Nimbus Sans L" font-size="14.00">[] ident (Optional)</text>
</a>
</g>
<g id="a_node3_25"><a xlink:href="../IDMEFv1/Address.html" xlink:title="The type of address represented. &#160;The permitted values for this attribute are shown below. &#160;The default value is &quot;unknown&quot;. &#160;(See also Section 10.)">
<polygon fill="none" stroke="black" points="501,-199.5 501,-220.5 675,-220.5 675,-199.5 501,-199.5"/>
<text text-anchor="start" x="504" y="-206.3" font-family="Nimbus Sans L" font-size="14.00">[ENUM] category (Optional)</text>
</a>
</g>
<g id="a_node3_26"><a xlink:href="../IDMEFv1/Address.html" xlink:title="The name of the Virtual LAN to which the address belongs.">
<polygon fill="none" stroke="black" points="501,-178.5 501,-199.5 675,-199.5 675,-178.5 501,-178.5"/>
<text text-anchor="start" x="518.5" y="-185.3" font-family="Nimbus Sans L" font-size="14.00">[] vlan&#45;name (Optional)</text>
</a>
</g>
<g id="a_node3_27"><a xlink:href="../IDMEFv1/Address.html" xlink:title="The number of the Virtual LAN to which the address belongs.">
<polygon fill="none" stroke="black" points="501,-157.5 501,-178.5 675,-178.5 675,-157.5 501,-157.5"/>
<text text-anchor="start" x="522" y="-164.3" font-family="Nimbus Sans L" font-size="14.00">[] vlan&#45;num (Optional)</text>
</a>
</g>
</g>
<!-- Node&#45;&gt;Address -->
<g id="edge1" class="edge">
<title>Node&#45;&gt;Address</title>
<path fill="none" stroke="black" d="M432.14,-231.5C448.56,-231.5 465.73,-231.5 482.42,-231.5"/>
<polygon fill="black" stroke="black" points="482.73,-235 492.73,-231.5 482.73,-228 482.73,-235"/>
<text text-anchor="middle" x="462.5" y="-235.3" font-family="Times,serif" font-size="14.00">0..*</text>
</g>
</g>
</svg>
