<?xml version="1.0" encoding="UTF-8" standalone="no"?>
<!DOCTYPE svg PUBLIC "-//W3C//DTD SVG 1.1//EN"
 "http://www.w3.org/Graphics/SVG/1.1/DTD/svg11.dtd">
<!-- Generated by graphviz version 2.43.0 (0)
 -->
<!-- Title: Checksum Pages: 1 -->
<svg width="151pt" height="100pt"
 viewBox="0.00 0.00 151.00 100.00" xmlns="http://www.w3.org/2000/svg" xmlns:xlink="http://www.w3.org/1999/xlink">
<g id="graph0" class="graph" transform="scale(1 1) rotate(0) translate(4 96)">
<title>Checksum</title>
<polygon fill="white" stroke="transparent" points="-4,4 -4,-96 147,-96 147,4 -4,4"/>
<!-- Checksum -->
<g id="node1" class="node">
<title>Checksum</title>
<g id="a_node1_0"><a xlink:href="../IDMEFv1/Checksum.html" xlink:title="The Checksum class represents checksum information associated with the file. This checksum information can be provided by file integrity checkers, among others. ">
<polygon fill="#cecece" stroke="transparent" points="8.5,-67 8.5,-88 135.5,-88 135.5,-67 8.5,-67"/>
<polygon fill="none" stroke="black" points="8.5,-67 8.5,-88 135.5,-88 135.5,-67 8.5,-67"/>
<text text-anchor="start" x="39.5" y="-73.8" font-family="Nimbus Sans L" font-size="14.00">Checksum</text>
</a>
</g>
<g id="a_node1_1"><a xlink:href="../IDMEFv1/Checksum.html" xlink:title="The value of the checksum.">
<polygon fill="none" stroke="black" points="8.5,-46 8.5,-67 135.5,-67 135.5,-46 8.5,-46"/>
<text text-anchor="start" x="14" y="-52.8" font-family="Nimbus Sans L" font-size="14.00">[STRING] value (1)</text>
</a>
</g>
<g id="a_node1_2"><a xlink:href="../IDMEFv1/Checksum.html" xlink:title="The key to the checksum, if appropriate.">
<polygon fill="none" stroke="black" points="8.5,-25 8.5,-46 135.5,-46 135.5,-25 8.5,-25"/>
<text text-anchor="start" x="12" y="-31.8" font-family="Nimbus Sans L" font-size="14.00">[STRING] key (0..1)</text>
</a>
</g>
<g id="a_node1_3"><a xlink:href="../IDMEFv1/Checksum.html" xlink:title="default value. &#160;(See also Section 10.)">
<polygon fill="none" stroke="black" points="8.5,-4 8.5,-25 135.5,-25 135.5,-4 8.5,-4"/>
<text text-anchor="start" x="11.5" y="-10.8" font-family="Nimbus Sans L" font-size="14.00">[ENUM] algorithm ()</text>
</a>
</g>
</g>
</g>
</svg>
