<?xml version="1.0" encoding="UTF-8" standalone="no"?>
<!DOCTYPE svg PUBLIC "-//W3C//DTD SVG 1.1//EN"
 "http://www.w3.org/Graphics/SVG/1.1/DTD/svg11.dtd">
<!-- Generated by graphviz version 2.43.0 (0)
 -->
<!-- Title: Classification Pages: 1 -->
<svg width="371pt" height="121pt"
 viewBox="0.00 0.00 371.00 121.00" xmlns="http://www.w3.org/2000/svg" xmlns:xlink="http://www.w3.org/1999/xlink">
<g id="graph0" class="graph" transform="scale(1 1) rotate(0) translate(4 117)">
<title>Classification</title>
<polygon fill="white" stroke="transparent" points="-4,4 -4,-117 367,-117 367,4 -4,4"/>
<!-- Classification -->
<g id="node1" class="node">
<title>Classification</title>
<g id="a_node1_0"><a xlink:href="../IDMEFv1/Classification.html" xlink:title="The Classification class provides the &quot;name&quot; of an alert, or other information allowing the manager to determine what it is. This name is chosen by the alert provider. ">
<polygon fill="#cecece" stroke="transparent" points="8.5,-66.5 8.5,-87.5 119.5,-87.5 119.5,-66.5 8.5,-66.5"/>
<polygon fill="none" stroke="black" points="8.5,-66.5 8.5,-87.5 119.5,-87.5 119.5,-66.5 8.5,-66.5"/>
<text text-anchor="start" x="24" y="-73.3" font-family="Nimbus Sans L" font-size="14.00">Classification</text>
</a>
</g>
<g id="a_node1_1"><a xlink:href="../IDMEFv1/Classification.html" xlink:title="A unique identifier for this classification; see Section 3.2.9.">
<polygon fill="none" stroke="black" points="8.5,-45.5 8.5,-66.5 119.5,-66.5 119.5,-45.5 8.5,-45.5"/>
<text text-anchor="start" x="11.5" y="-52.3" font-family="Nimbus Sans L" font-size="14.00">[] ident (Optional)</text>
</a>
</g>
<g id="a_node1_2"><a xlink:href="../IDMEFv1/Classification.html" xlink:title="A vendor&#45;provided string identifying the Alert message.">
<polygon fill="none" stroke="black" points="8.5,-24.5 8.5,-45.5 119.5,-45.5 119.5,-24.5 8.5,-24.5"/>
<text text-anchor="start" x="13.5" y="-31.3" font-family="Nimbus Sans L" font-size="14.00">[] text (Required)</text>
</a>
</g>
</g>
<!-- Reference -->
<g id="node2" class="node">
<title>Reference</title>
<g id="a_node2_3"><a xlink:href="../IDMEFv1/Reference.html" xlink:title="The Reference class provides the &quot;name&quot; of an alert, or other information allowing the manager to determine what it is. ">
<polygon fill="#cecece" stroke="transparent" points="196.5,-87.5 196.5,-108.5 355.5,-108.5 355.5,-87.5 196.5,-87.5"/>
<polygon fill="none" stroke="black" points="196.5,-87.5 196.5,-108.5 355.5,-108.5 355.5,-87.5 196.5,-87.5"/>
<text text-anchor="start" x="244.5" y="-94.3" font-family="Nimbus Sans L" font-size="14.00">Reference</text>
</a>
</g>
<g id="a_node2_4"><a xlink:href="../IDMEFv1/Reference.html" xlink:title="The name of the alert, from one of the origins listed below.">
<polygon fill="none" stroke="black" points="196.5,-66.5 196.5,-87.5 355.5,-87.5 355.5,-66.5 196.5,-66.5"/>
<text text-anchor="start" x="217" y="-73.3" font-family="Nimbus Sans L" font-size="14.00">[STRING] name (1)</text>
</a>
</g>
<g id="a_node2_5"><a xlink:href="../IDMEFv1/Reference.html" xlink:title="A URL at which the manager (or the human operator of the manager) can find additional information about the alert. &#160;The document pointed to by the URL may include an in&#45;depth description of the attack, appropriate countermeasures, or other information deemed relevant by the vendor.">
<polygon fill="none" stroke="black" points="196.5,-45.5 196.5,-66.5 355.5,-66.5 355.5,-45.5 196.5,-45.5"/>
<text text-anchor="start" x="226.5" y="-52.3" font-family="Nimbus Sans L" font-size="14.00">[STRING] url (1)</text>
</a>
</g>
<g id="a_node2_6"><a xlink:href="../IDMEFv1/Reference.html" xlink:title="The source from which the name of the alert originates. The permitted values for this attribute are shown below. &#160;The default value is &quot;unknown&quot;. &#160;(See also Section 10.)">
<polygon fill="none" stroke="black" points="196.5,-24.5 196.5,-45.5 355.5,-45.5 355.5,-24.5 196.5,-24.5"/>
<text text-anchor="start" x="199.5" y="-31.3" font-family="Nimbus Sans L" font-size="14.00">[ENUM] origin (Required)</text>
</a>
</g>
<g id="a_node2_7"><a xlink:href="../IDMEFv1/Reference.html" xlink:title="The meaning of the reference, as understood by the alert provider. &#160;This field is only valid if the value of the &lt;origin&gt; attribute is set to &quot;vendor&#45;specific&quot; or &quot;user&#45;specific&quot;.">
<polygon fill="none" stroke="black" points="196.5,-3.5 196.5,-24.5 355.5,-24.5 355.5,-3.5 196.5,-3.5"/>
<text text-anchor="start" x="212" y="-10.3" font-family="Nimbus Sans L" font-size="14.00">[] meaning (Optional)</text>
</a>
</g>
</g>
<!-- Classification&#45;&gt;Reference -->
<g id="edge1" class="edge">
<title>Classification&#45;&gt;Reference</title>
<path fill="none" stroke="black" d="M127.22,-56.5C143.08,-56.5 160.49,-56.5 177.61,-56.5"/>
<polygon fill="black" stroke="black" points="177.64,-60 187.64,-56.5 177.64,-53 177.64,-60"/>
<text text-anchor="middle" x="157.5" y="-60.3" font-family="Times,serif" font-size="14.00">0..*</text>
</g>
</g>
</svg>
