<?xml version="1.0" encoding="UTF-8" standalone="no"?>
<!DOCTYPE svg PUBLIC "-//W3C//DTD SVG 1.1//EN"
 "http://www.w3.org/Graphics/SVG/1.1/DTD/svg11.dtd">
<!-- Generated by graphviz version 2.43.0 (0)
 -->
<!-- Title: Heartbeat Pages: 1 -->
<svg width="928pt" height="465pt"
 viewBox="0.00 0.00 928.00 464.50" xmlns="http://www.w3.org/2000/svg" xmlns:xlink="http://www.w3.org/1999/xlink">
<g id="graph0" class="graph" transform="scale(1 1) rotate(0) translate(4 460.5)">
<title>Heartbeat</title>
<polygon fill="white" stroke="transparent" points="-4,4 -4,-460.5 924,-460.5 924,4 -4,4"/>
<!-- Heartbeat -->
<g id="node1" class="node">
<title>Heartbeat</title>
<g id="a_node1_0"><a xlink:href="../IDMEFv1/Heartbeat.html" xlink:title="Analyzers use Heartbeat messages to indicate their current status to managers. Heartbeats are intended to be sent in a regular period, say, every ten minutes or every hour. The receipt of a Heartbeat message from an analyzer indicates to the manager that the analyzer is up and running; lack of a Heartbeat message (or more likely, lack of some number of consecutive Heartbeat messages) indicates that the analyzer or its network connection has failed. ">
<polygon fill="#cecece" stroke="transparent" points="8.5,-123 8.5,-144 165.5,-144 165.5,-123 8.5,-123"/>
<polygon fill="none" stroke="black" points="8.5,-123 8.5,-144 165.5,-144 165.5,-123 8.5,-123"/>
<text text-anchor="start" x="57" y="-129.8" font-family="Nimbus Sans L" font-size="14.00">Heartbeat</text>
</a>
</g>
<g id="a_node1_1"><a xlink:href="../IDMEFv1/Heartbeat.html" xlink:title="The interval in seconds at which heartbeats are generated.">
<polygon fill="none" stroke="black" points="8.5,-102 8.5,-123 165.5,-123 165.5,-102 8.5,-102"/>
<text text-anchor="start" x="11.5" y="-108.8" font-family="Nimbus Sans L" font-size="14.00">[] HeartbeatInterval (0..1)</text>
</a>
</g>
<g id="a_node1_2"><a xlink:href="../IDMEFv1/Heartbeat.html" xlink:title="A unique identifier for the heartbeat; see Section 3.2.9.">
<polygon fill="none" stroke="black" points="8.5,-81 8.5,-102 165.5,-102 165.5,-81 8.5,-81"/>
<text text-anchor="start" x="16" y="-87.8" font-family="Nimbus Sans L" font-size="14.00">[] messageid (Optional)</text>
</a>
</g>
</g>
<!-- Analyzer -->
<g id="node2" class="node">
<title>Analyzer</title>
<g id="a_node2_3"><a xlink:href="../IDMEFv1/Analyzer.html" xlink:title="The Analyzer class identifies the analyzer from which the Alert or Heartbeat message originates. Only one analyzer may be encoded for each alert or heartbeat, and that MUST be the analyzer at which the alert or heartbeat originated. Although the IDMEF data model does not prevent the use of hierarchical intrusion detection systems (where alerts get relayed up the tree), it does not provide any way to record the identity of the &quot;relay&quot; analyzers along the path from the originating analyzer to the manager that ultimately receives the alert. ">
<polygon fill="#cecece" stroke="transparent" points="245,-348 245,-369 407,-369 407,-348 245,-348"/>
<polygon fill="none" stroke="black" points="245,-348 245,-369 407,-369 407,-348 245,-348"/>
<text text-anchor="start" x="299.5" y="-354.8" font-family="Nimbus Sans L" font-size="14.00">Analyzer</text>
</a>
</g>
<g id="a_node2_4"><a xlink:href="../IDMEFv1/Analyzer.html" xlink:title="(but see below). &#160;A unique identifier for the analyzer; see Section 3.2.9.">
<polygon fill="none" stroke="black" points="245,-327 245,-348 407,-348 407,-327 245,-327"/>
<text text-anchor="start" x="257.5" y="-333.8" font-family="Nimbus Sans L" font-size="14.00">[] analyzerid (Optional)</text>
</a>
</g>
<g id="a_node2_5"><a xlink:href="../IDMEFv1/Analyzer.html" xlink:title="An explicit name for the analyzer that may be easier to understand than the analyzerid.">
<polygon fill="none" stroke="black" points="245,-306 245,-327 407,-327 407,-306 245,-306"/>
<text text-anchor="start" x="271" y="-312.8" font-family="Nimbus Sans L" font-size="14.00">[] name (Optional)</text>
</a>
</g>
<g id="a_node2_6"><a xlink:href="../IDMEFv1/Analyzer.html" xlink:title="The manufacturer of the analyzer software and/or hardware.">
<polygon fill="none" stroke="black" points="245,-285 245,-306 407,-306 407,-285 245,-285"/>
<text text-anchor="start" x="248" y="-291.8" font-family="Nimbus Sans L" font-size="14.00">[] manufacturer (Optional)</text>
</a>
</g>
<g id="a_node2_7"><a xlink:href="../IDMEFv1/Analyzer.html" xlink:title="The model name/number of the analyzer software and/or hardware.">
<polygon fill="none" stroke="black" points="245,-264 245,-285 407,-285 407,-264 245,-264"/>
<text text-anchor="start" x="269.5" y="-270.8" font-family="Nimbus Sans L" font-size="14.00">[] model (Optional)</text>
</a>
</g>
<g id="a_node2_8"><a xlink:href="../IDMEFv1/Analyzer.html" xlink:title="The version number of the analyzer software and/or hardware.">
<polygon fill="none" stroke="black" points="245,-243 245,-264 407,-264 407,-243 245,-243"/>
<text text-anchor="start" x="266.5" y="-249.8" font-family="Nimbus Sans L" font-size="14.00">[] version (Optional)</text>
</a>
</g>
<g id="a_node2_9"><a xlink:href="../IDMEFv1/Analyzer.html" xlink:title="The class of analyzer software and/or hardware.">
<polygon fill="none" stroke="black" points="245,-222 245,-243 407,-243 407,-222 245,-222"/>
<text text-anchor="start" x="273" y="-228.8" font-family="Nimbus Sans L" font-size="14.00">[] class (Optional)</text>
</a>
</g>
<g id="a_node2_10"><a xlink:href="../IDMEFv1/Analyzer.html" xlink:title="Operating system name. &#160;On POSIX 1003.1 compliant systems, this is the value returned in utsname.sysname by the uname() system call, or the output of the &quot;uname &#45;s&quot; command.">
<polygon fill="none" stroke="black" points="245,-201 245,-222 407,-222 407,-201 245,-201"/>
<text text-anchor="start" x="268.5" y="-207.8" font-family="Nimbus Sans L" font-size="14.00">[] ostype (Optional)</text>
</a>
</g>
<g id="a_node2_11"><a xlink:href="../IDMEFv1/Analyzer.html" xlink:title="Operating system version. &#160;On POSIX 1003.1 compliant systems, this is the value returned in utsname.release by the uname() system call, or the output of the &quot;uname &#45;r&quot; command.">
<polygon fill="none" stroke="black" points="245,-180 245,-201 407,-201 407,-180 245,-180"/>
<text text-anchor="start" x="259.5" y="-186.8" font-family="Nimbus Sans L" font-size="14.00">[] osversion (Optional)</text>
</a>
</g>
</g>
<!-- Heartbeat&#45;&gt;Analyzer -->
<g id="edge5" class="edge">
<title>Heartbeat&#45;&gt;Analyzer</title>
<path fill="none" stroke="black" d="M139.62,-148.55C165.58,-166.26 197.82,-188.25 228.1,-208.91"/>
<polygon fill="black" stroke="black" points="226.35,-211.95 236.58,-214.69 230.3,-206.17 226.35,-211.95"/>
<text text-anchor="middle" x="205" y="-202.8" font-family="Times,serif" font-size="14.00">1</text>
</g>
<!-- CreateTime -->
<g id="node6" class="node">
<title>CreateTime</title>
<g id="a_node6_12"><a xlink:href="../IDMEFv1/CreateTime.html" xlink:title="The CreateTime class is used to indicate the date and time the alert or heartbeat was created by the analyzer. ">
<polygon fill="#cecece" stroke="transparent" points="287,-129 287,-150 365,-150 365,-129 287,-129"/>
<polygon fill="none" stroke="black" points="287,-129 287,-150 365,-150 365,-129 287,-129"/>
<text text-anchor="start" x="290" y="-135.8" font-family="Nimbus Sans L" font-size="14.00">CreateTime</text>
</a>
</g>
</g>
<!-- Heartbeat&#45;&gt;CreateTime -->
<g id="edge6" class="edge">
<title>Heartbeat&#45;&gt;CreateTime</title>
<path fill="none" stroke="black" d="M173.24,-122.75C204.96,-126.35 240.08,-130.35 268.55,-133.58"/>
<polygon fill="black" stroke="black" points="268.38,-137.09 278.71,-134.74 269.17,-130.13 268.38,-137.09"/>
<text text-anchor="middle" x="205" y="-131.8" font-family="Times,serif" font-size="14.00">1</text>
</g>
<!-- AnalyzerTime -->
<g id="node7" class="node">
<title>AnalyzerTime</title>
<g id="a_node7_13"><a xlink:href="../IDMEFv1/AnalyzerTime.html" xlink:title="The AnalyzerTime class is used to indicate the current date and time on the analyzer. Its values should be filled in as late as possible in the message transmission process, ideally immediately before placing the message &quot;on the wire&quot;. ">
<polygon fill="#cecece" stroke="transparent" points="281,-75 281,-96 371,-96 371,-75 281,-75"/>
<polygon fill="none" stroke="black" points="281,-75 281,-96 371,-96 371,-75 281,-75"/>
<text text-anchor="start" x="284" y="-81.8" font-family="Nimbus Sans L" font-size="14.00">AnalyzerTime</text>
</a>
</g>
</g>
<!-- Heartbeat&#45;&gt;AnalyzerTime -->
<g id="edge7" class="edge">
<title>Heartbeat&#45;&gt;AnalyzerTime</title>
<path fill="none" stroke="black" d="M173.24,-103.25C202.82,-99.89 235.35,-96.19 262.69,-93.08"/>
<polygon fill="black" stroke="black" points="263.36,-96.53 272.9,-91.92 262.57,-89.58 263.36,-96.53"/>
<text text-anchor="middle" x="205" y="-105.8" font-family="Times,serif" font-size="14.00">0..1</text>
</g>
<!-- AdditionalData -->
<g id="node8" class="node">
<title>AdditionalData</title>
<g id="a_node8_14"><a xlink:href="../IDMEFv1/AdditionalData.html" xlink:title="The AdditionalData class is used to provide information that cannot be represented by the data model. AdditionalData can be used to provide atomic data (integers, strings, etc.) in cases where only small amounts of additional information need to be sent; it can also be used to extend the data model and the DTD to support the transmission of complex data (such as packet headers). Detailed instructions for extending the data model and the DTD are provided in Section 5. ">
<polygon fill="#cecece" stroke="transparent" points="259,-25 259,-46 393,-46 393,-25 259,-25"/>
<polygon fill="none" stroke="black" points="259,-25 259,-46 393,-46 393,-25 259,-25"/>
<text text-anchor="start" x="282" y="-31.8" font-family="Nimbus Sans L" font-size="14.00">AdditionalData</text>
</a>
</g>
<g id="a_node8_15"><a xlink:href="../IDMEFv1/AdditionalData.html" xlink:title="A string describing the meaning of the element content. These values will be vendor/implementation dependent; the method for ensuring that managers understand the strings sent by analyzers is outside the scope of this specification. &#160;A list of acceptable meaning keywords is not within the scope of the document, although later versions may undertake to establish such a list.">
<polygon fill="none" stroke="black" points="259,-4 259,-25 393,-25 393,-4 259,-4"/>
<text text-anchor="start" x="262" y="-10.8" font-family="Nimbus Sans L" font-size="14.00">[] meaning (Optional)</text>
</a>
</g>
</g>
<!-- Heartbeat&#45;&gt;AdditionalData -->
<g id="edge8" class="edge">
<title>Heartbeat&#45;&gt;AdditionalData</title>
<path fill="none" stroke="black" d="M173.24,-81.23C197.53,-72.23 223.82,-62.49 247.59,-53.68"/>
<polygon fill="black" stroke="black" points="249.1,-56.86 257.26,-50.1 246.67,-50.29 249.1,-56.86"/>
<text text-anchor="middle" x="205" y="-78.8" font-family="Times,serif" font-size="14.00">0..*</text>
</g>
<!-- Analyzer&#45;&gt;Analyzer -->
<g id="edge4" class="edge">
<title>Analyzer&#45;&gt;Analyzer</title>
<path fill="none" stroke="black" d="M307.07,-373.59C310.67,-384.47 316.98,-391.5 326,-391.5 332.06,-391.5 336.9,-388.33 340.51,-382.95"/>
<polygon fill="black" stroke="black" points="343.82,-384.13 344.93,-373.59 337.49,-381.14 343.82,-384.13"/>
<text text-anchor="middle" x="326" y="-395.3" font-family="Times,serif" font-size="14.00">0..1</text>
</g>
<!-- Node -->
<g id="node3" class="node">
<title>Node</title>
<g id="a_node3_16"><a xlink:href="../IDMEFv1/Node.html" xlink:title="The Node class is used to identify hosts and other network devices (routers, switches, etc.). ">
<polygon fill="#cecece" stroke="transparent" points="487,-410 487,-431 661,-431 661,-410 487,-410"/>
<polygon fill="none" stroke="black" points="487,-410 487,-431 661,-431 661,-410 487,-410"/>
<text text-anchor="start" x="557.5" y="-416.8" font-family="Nimbus Sans L" font-size="14.00">Node</text>
</a>
</g>
<g id="a_node3_17"><a xlink:href="../IDMEFv1/Node.html" xlink:title="The location of the equipment.">
<polygon fill="none" stroke="black" points="487,-389 487,-410 661,-410 661,-389 487,-389"/>
<text text-anchor="start" x="501.5" y="-395.8" font-family="Nimbus Sans L" font-size="14.00">[STRING] location (0..1)</text>
</a>
</g>
<g id="a_node3_18"><a xlink:href="../IDMEFv1/Node.html" xlink:title="The name of the equipment. &#160;This information MUST be provided if no Address information is given.">
<polygon fill="none" stroke="black" points="487,-368 487,-389 661,-389 661,-368 487,-368"/>
<text text-anchor="start" x="507.5" y="-374.8" font-family="Nimbus Sans L" font-size="14.00">[STRING] name (0..1)</text>
</a>
</g>
<g id="a_node3_19"><a xlink:href="../IDMEFv1/Node.html" xlink:title="A unique identifier for the node; see Section 3.2.9.">
<polygon fill="none" stroke="black" points="487,-347 487,-368 661,-368 661,-347 487,-347"/>
<text text-anchor="start" x="521.5" y="-353.8" font-family="Nimbus Sans L" font-size="14.00">[] ident (Optional)</text>
</a>
</g>
<g id="a_node3_20"><a xlink:href="../IDMEFv1/Node.html" xlink:title="The &quot;domain&quot; from which the name information was obtained, if relevant. &#160;The permitted values for this attribute are shown in the table below. &#160;The default value is &quot;unknown&quot;. (See also Section 10 for extensions to the table.)">
<polygon fill="none" stroke="black" points="487,-326 487,-347 661,-347 661,-326 487,-326"/>
<text text-anchor="start" x="490" y="-332.8" font-family="Nimbus Sans L" font-size="14.00">[ENUM] category (Optional)</text>
</a>
</g>
</g>
<!-- Analyzer&#45;&gt;Node -->
<g id="edge2" class="edge">
<title>Analyzer&#45;&gt;Node</title>
<path fill="none" stroke="black" d="M415.12,-312.25C432.73,-319.7 451.38,-327.58 469.45,-335.22"/>
<polygon fill="black" stroke="black" points="468.27,-338.52 478.84,-339.19 471,-332.08 468.27,-338.52"/>
<text text-anchor="middle" x="447" y="-334.8" font-family="Times,serif" font-size="14.00">0..1</text>
</g>
<!-- Process -->
<g id="node5" class="node">
<title>Process</title>
<g id="a_node5_21"><a xlink:href="../IDMEFv1/Process.html" xlink:title="The Process class is used to describe processes being executed on sources, targets, and analyzers. ">
<polygon fill="#cecece" stroke="transparent" points="508,-279 508,-300 640,-300 640,-279 508,-279"/>
<polygon fill="none" stroke="black" points="508,-279 508,-300 640,-300 640,-279 508,-279"/>
<text text-anchor="start" x="549.5" y="-285.8" font-family="Nimbus Sans L" font-size="14.00">Process</text>
</a>
</g>
<g id="a_node5_22"><a xlink:href="../IDMEFv1/Process.html" xlink:title="The name of the program being executed. This is a short name; path and argument information are provided elsewhere.">
<polygon fill="none" stroke="black" points="508,-258 508,-279 640,-279 640,-258 508,-258"/>
<text text-anchor="start" x="515" y="-264.8" font-family="Nimbus Sans L" font-size="14.00">[STRING] name (1)</text>
</a>
</g>
<g id="a_node5_23"><a xlink:href="../IDMEFv1/Process.html" xlink:title="The process identifier of the process.">
<polygon fill="none" stroke="black" points="508,-237 508,-258 640,-258 640,-237 508,-237"/>
<text text-anchor="start" x="511" y="-243.8" font-family="Nimbus Sans L" font-size="14.00">[INTEGER] pid (0..1)</text>
</a>
</g>
<g id="a_node5_24"><a xlink:href="../IDMEFv1/Process.html" xlink:title="The full path of the program being executed.">
<polygon fill="none" stroke="black" points="508,-216 508,-237 640,-237 640,-216 508,-216"/>
<text text-anchor="start" x="511.5" y="-222.8" font-family="Nimbus Sans L" font-size="14.00">[STRING] path (0..1)</text>
</a>
</g>
<g id="a_node5_25"><a xlink:href="../IDMEFv1/Process.html" xlink:title="A command&#45;line argument to the program. Multiple arguments may be specified (they are assumed to have occurred in the same order they are provided) with multiple uses of arg.">
<polygon fill="none" stroke="black" points="508,-195 508,-216 640,-216 640,-195 508,-195"/>
<text text-anchor="start" x="516" y="-201.8" font-family="Nimbus Sans L" font-size="14.00">[STRING] arg (0..*)</text>
</a>
</g>
<g id="a_node5_26"><a xlink:href="../IDMEFv1/Process.html" xlink:title="An environment string associated with the process; generally of the format &quot;VARIABLE=value&quot;. &#160;Multiple environment strings may be specified with multiple uses of env.">
<polygon fill="none" stroke="black" points="508,-174 508,-195 640,-195 640,-174 508,-174"/>
<text text-anchor="start" x="515" y="-180.8" font-family="Nimbus Sans L" font-size="14.00">[STRING] env (0..*)</text>
</a>
</g>
<g id="a_node5_27"><a xlink:href="../IDMEFv1/Process.html" xlink:title="A unique identifier for the process; see Section 3.2.9.">
<polygon fill="none" stroke="black" points="508,-153 508,-174 640,-174 640,-153 508,-153"/>
<text text-anchor="start" x="521.5" y="-159.8" font-family="Nimbus Sans L" font-size="14.00">[] ident (Optional)</text>
</a>
</g>
</g>
<!-- Analyzer&#45;&gt;Process -->
<g id="edge3" class="edge">
<title>Analyzer&#45;&gt;Process</title>
<path fill="none" stroke="black" d="M415.12,-257.81C439.36,-253.08 465.58,-247.96 489.56,-243.28"/>
<polygon fill="black" stroke="black" points="490.54,-246.66 499.68,-241.31 489.2,-239.79 490.54,-246.66"/>
<text text-anchor="middle" x="447" y="-257.8" font-family="Times,serif" font-size="14.00">0..1</text>
</g>
<!-- Address -->
<g id="node4" class="node">
<title>Address</title>
<g id="a_node4_28"><a xlink:href="../IDMEFv1/Address.html" xlink:title="The Address class is used to represent network, hardware, and application addresses. ">
<polygon fill="#cecece" stroke="transparent" points="738,-431 738,-452 912,-452 912,-431 738,-431"/>
<polygon fill="none" stroke="black" points="738,-431 738,-452 912,-452 912,-431 738,-431"/>
<text text-anchor="start" x="800" y="-437.8" font-family="Nimbus Sans L" font-size="14.00">Address</text>
</a>
</g>
<g id="a_node4_29"><a xlink:href="../IDMEFv1/Address.html" xlink:title="The address information. &#160;The format of this data is governed by the category attribute.">
<polygon fill="none" stroke="black" points="738,-410 738,-431 912,-431 912,-410 738,-410"/>
<text text-anchor="start" x="759" y="-416.8" font-family="Nimbus Sans L" font-size="14.00">[STRING] address (1)</text>
</a>
</g>
<g id="a_node4_30"><a xlink:href="../IDMEFv1/Address.html" xlink:title="The network mask for the address, if appropriate.">
<polygon fill="none" stroke="black" points="738,-389 738,-410 912,-410 912,-389 738,-389"/>
<text text-anchor="start" x="749.5" y="-395.8" font-family="Nimbus Sans L" font-size="14.00">[STRING] netmask (0..1)</text>
</a>
</g>
<g id="a_node4_31"><a xlink:href="../IDMEFv1/Address.html" xlink:title="A unique identifier for the address; see Section 3.2.9.">
<polygon fill="none" stroke="black" points="738,-368 738,-389 912,-389 912,-368 738,-368"/>
<text text-anchor="start" x="772.5" y="-374.8" font-family="Nimbus Sans L" font-size="14.00">[] ident (Optional)</text>
</a>
</g>
<g id="a_node4_32"><a xlink:href="../IDMEFv1/Address.html" xlink:title="The type of address represented. &#160;The permitted values for this attribute are shown below. &#160;The default value is &quot;unknown&quot;. &#160;(See also Section 10.)">
<polygon fill="none" stroke="black" points="738,-347 738,-368 912,-368 912,-347 738,-347"/>
<text text-anchor="start" x="741" y="-353.8" font-family="Nimbus Sans L" font-size="14.00">[ENUM] category (Optional)</text>
</a>
</g>
<g id="a_node4_33"><a xlink:href="../IDMEFv1/Address.html" xlink:title="The name of the Virtual LAN to which the address belongs.">
<polygon fill="none" stroke="black" points="738,-326 738,-347 912,-347 912,-326 738,-326"/>
<text text-anchor="start" x="755.5" y="-332.8" font-family="Nimbus Sans L" font-size="14.00">[] vlan&#45;name (Optional)</text>
</a>
</g>
<g id="a_node4_34"><a xlink:href="../IDMEFv1/Address.html" xlink:title="The number of the Virtual LAN to which the address belongs.">
<polygon fill="none" stroke="black" points="738,-305 738,-326 912,-326 912,-305 738,-305"/>
<text text-anchor="start" x="759" y="-311.8" font-family="Nimbus Sans L" font-size="14.00">[] vlan&#45;num (Optional)</text>
</a>
</g>
</g>
<!-- Node&#45;&gt;Address -->
<g id="edge1" class="edge">
<title>Node&#45;&gt;Address</title>
<path fill="none" stroke="black" d="M669.14,-379C685.56,-379 702.73,-379 719.42,-379"/>
<polygon fill="black" stroke="black" points="719.73,-382.5 729.73,-379 719.73,-375.5 719.73,-382.5"/>
<text text-anchor="middle" x="699.5" y="-382.8" font-family="Times,serif" font-size="14.00">0..*</text>
</g>
</g>
</svg>
