<?xml version="1.0" encoding="UTF-8" standalone="no"?>
<!DOCTYPE svg PUBLIC "-//W3C//DTD SVG 1.1//EN"
 "http://www.w3.org/Graphics/SVG/1.1/DTD/svg11.dtd">
<!-- Generated by graphviz version 2.43.0 (0)
 -->
<!-- Title: Linkage Pages: 1 -->
<svg width="924pt" height="384pt"
 viewBox="0.00 0.00 924.00 384.00" xmlns="http://www.w3.org/2000/svg" xmlns:xlink="http://www.w3.org/1999/xlink">
<g id="graph0" class="graph" transform="scale(1 1) rotate(0) translate(4 380)">
<title>Linkage</title>
<polygon fill="white" stroke="transparent" points="-4,4 -4,-380 920,-380 920,4 -4,4"/>
<!-- Linkage -->
<g id="node1" class="node">
<title>Linkage</title>
<g id="a_node1_0"><a xlink:href="../IDMEFv1/Linkage.html" xlink:title="The Linkage class represents file system connections between the file described in the &lt;File&gt; element and other objects in the file system. For example, if the &lt;File&gt; element is a symbolic link or shortcut, then the &lt;Linkage&gt; element should contain the name of the object the link points to. Further information can be provided about the object in the &lt;Linkage&gt; element with another &lt;File&gt; element, if appropriate. ">
<polygon fill="#cecece" stroke="transparent" points="8,-209 8,-230 132,-230 132,-209 8,-209"/>
<polygon fill="none" stroke="black" points="8,-209 8,-230 132,-230 132,-209 8,-209"/>
<text text-anchor="start" x="46" y="-215.8" font-family="Nimbus Sans L" font-size="14.00">Linkage</text>
</a>
</g>
<g id="a_node1_1"><a xlink:href="../IDMEFv1/Linkage.html" xlink:title="The name of the file system object, not including the path.">
<polygon fill="none" stroke="black" points="8,-188 8,-209 132,-209 132,-188 8,-188"/>
<text text-anchor="start" x="11" y="-194.8" font-family="Nimbus Sans L" font-size="14.00">[STRING] name (1)</text>
</a>
</g>
<g id="a_node1_2"><a xlink:href="../IDMEFv1/Linkage.html" xlink:title="The full path to the file system object, including the name. &#160;The path name should be represented in as &quot;universal&quot; a manner as possible, to facilitate processing of the alert.">
<polygon fill="none" stroke="black" points="8,-167 8,-188 132,-188 132,-167 8,-167"/>
<text text-anchor="start" x="15" y="-173.8" font-family="Nimbus Sans L" font-size="14.00">[STRING] path (1)</text>
</a>
</g>
<g id="a_node1_3"><a xlink:href="../IDMEFv1/Linkage.html" xlink:title="Section 10.)">
<polygon fill="none" stroke="black" points="8,-146 8,-167 132,-167 132,-146 8,-146"/>
<text text-anchor="start" x="11.5" y="-152.8" font-family="Nimbus Sans L" font-size="14.00">[ENUM] category ()</text>
</a>
</g>
</g>
<!-- File -->
<g id="node2" class="node">
<title>File</title>
<g id="a_node2_4"><a xlink:href="../IDMEFv1/File.html" xlink:title="The File class provides specific information about a file or other file&#45;like object that has been created, deleted, or modified on the target. The description can provide either the file settings prior to the event or the file settings at the time of the event, as specified using the &quot;category&quot; attribute. ">
<polygon fill="#cecece" stroke="transparent" points="209,-282 209,-303 403,-303 403,-282 209,-282"/>
<polygon fill="none" stroke="black" points="209,-282 209,-303 403,-303 403,-282 209,-282"/>
<text text-anchor="start" x="295" y="-288.8" font-family="Nimbus Sans L" font-size="14.00">File</text>
</a>
</g>
<g id="a_node2_5"><a xlink:href="../IDMEFv1/File.html" xlink:title="The name of the file to which the alert applies, not including the path to the file.">
<polygon fill="none" stroke="black" points="209,-261 209,-282 403,-282 403,-261 209,-261"/>
<text text-anchor="start" x="247" y="-267.8" font-family="Nimbus Sans L" font-size="14.00">[STRING] name (1)</text>
</a>
</g>
<g id="a_node2_6"><a xlink:href="../IDMEFv1/File.html" xlink:title="The full path to the file, including the name. &#160;The path name should be represented in as &quot;universal&quot; a manner as possible, to facilitate processing of the alert.">
<polygon fill="none" stroke="black" points="209,-240 209,-261 403,-261 403,-240 209,-240"/>
<text text-anchor="start" x="251" y="-246.8" font-family="Nimbus Sans L" font-size="14.00">[STRING] path (1)</text>
</a>
</g>
<g id="a_node2_7"><a xlink:href="../IDMEFv1/File.html" xlink:title="Time the file was created. &#160;Note that this is *not* the Unix &quot;st_ctime&quot; file attribute (which is not file creation time). &#160;The Unix &quot;st_ctime&quot; attribute is contained in the &quot;Inode&quot; class.">
<polygon fill="none" stroke="black" points="209,-219 209,-240 403,-240 403,-219 209,-219"/>
<text text-anchor="start" x="214" y="-225.8" font-family="Nimbus Sans L" font-size="14.00">[DATETIME] create&#45;time (0..1)</text>
</a>
</g>
<g id="a_node2_8"><a xlink:href="../IDMEFv1/File.html" xlink:title="Time the file was last modified.">
<polygon fill="none" stroke="black" points="209,-198 209,-219 403,-219 403,-198 209,-198"/>
<text text-anchor="start" x="212.5" y="-204.8" font-family="Nimbus Sans L" font-size="14.00">[DATETIME] modify&#45;time (0..1)</text>
</a>
</g>
<g id="a_node2_9"><a xlink:href="../IDMEFv1/File.html" xlink:title="Time the file was last accessed.">
<polygon fill="none" stroke="black" points="209,-177 209,-198 403,-198 403,-177 209,-177"/>
<text text-anchor="start" x="212" y="-183.8" font-family="Nimbus Sans L" font-size="14.00">[DATETIME] access&#45;time (0..1)</text>
</a>
</g>
<g id="a_node2_10"><a xlink:href="../IDMEFv1/File.html" xlink:title="The size of the data, in bytes. &#160;Typically what is meant when referring to file size. &#160;On Unix UFS file systems, this value corresponds to stat.st_size. &#160;On Windows NTFS, this value corresponds to Valid Data Length (VDL).">
<polygon fill="none" stroke="black" points="209,-156 209,-177 403,-177 403,-156 209,-156"/>
<text text-anchor="start" x="224.5" y="-162.8" font-family="Nimbus Sans L" font-size="14.00">[INTEGER] data&#45;size (0..1)</text>
</a>
</g>
<g id="a_node2_11"><a xlink:href="../IDMEFv1/File.html" xlink:title="The physical space on disk consumed by the file, in bytes. &#160;On Unix UFS file systems, this value corresponds to 512 * stat.st_blocks. &#160;On Windows NTFS, this value corresponds to End of File (EOF).">
<polygon fill="none" stroke="black" points="209,-135 209,-156 403,-156 403,-135 209,-135"/>
<text text-anchor="start" x="226" y="-141.8" font-family="Nimbus Sans L" font-size="14.00">[INTEGER] disk&#45;size (0..1)</text>
</a>
</g>
<g id="a_node2_12"><a xlink:href="../IDMEFv1/File.html" xlink:title="A unique identifier for this file; see Section 3.2.9.">
<polygon fill="none" stroke="black" points="209,-114 209,-135 403,-135 403,-114 209,-114"/>
<text text-anchor="start" x="268" y="-120.8" font-family="Nimbus Sans L" font-size="14.00">[] ident (0..1)</text>
</a>
</g>
<g id="a_node2_13"><a xlink:href="../IDMEFv1/File.html" xlink:title="The type of file system the file resides on. &#160;This attribute governs how path names and other attributes are interpreted.">
<polygon fill="none" stroke="black" points="209,-93 209,-114 403,-114 403,-93 209,-93"/>
<text text-anchor="start" x="256.5" y="-99.8" font-family="Nimbus Sans L" font-size="14.00">[] category (0..1)</text>
</a>
</g>
<g id="a_node2_14"><a xlink:href="../IDMEFv1/File.html" xlink:title="The type of file, as a mime&#45;type.">
<polygon fill="none" stroke="black" points="209,-72 209,-93 403,-93 403,-72 209,-72"/>
<text text-anchor="start" x="259" y="-78.8" font-family="Nimbus Sans L" font-size="14.00">[] file&#45;type (0..1)</text>
</a>
</g>
</g>
<!-- Linkage&#45;&gt;File -->
<g id="edge6" class="edge">
<title>Linkage&#45;&gt;File</title>
<path fill="none" stroke="black" d="M140.26,-188C156.14,-188 173.44,-188 190.67,-188"/>
<polygon fill="black" stroke="black" points="190.79,-191.5 200.79,-188 190.79,-184.5 190.79,-191.5"/>
<text text-anchor="middle" x="170.5" y="-191.8" font-family="Times,serif" font-size="14.00">1</text>
</g>
<!-- File&#45;&gt;Linkage -->
<g id="edge3" class="edge">
<title>File&#45;&gt;Linkage</title>
<path fill="none" stroke="black" d="M200.66,-169.42C186.34,-168.57 171.81,-168.59 158,-170 155.45,-170.26 152.86,-170.56 150.26,-170.9"/>
<polygon fill="black" stroke="black" points="149.53,-167.47 140.13,-172.37 150.53,-174.4 149.53,-167.47"/>
<text text-anchor="middle" x="170.5" y="-173.8" font-family="Times,serif" font-size="14.00">0..*</text>
</g>
<!-- FileAccess -->
<g id="node3" class="node">
<title>FileAccess</title>
<g id="a_node3_15"><a xlink:href="../IDMEFv1/FileAccess.html" xlink:title="The FileAccess class represents the access permissions on a file. The representation is intended to be useful across operating systems. ">
<polygon fill="#cecece" stroke="transparent" points="505.5,-309 505.5,-330 664.5,-330 664.5,-309 505.5,-309"/>
<polygon fill="none" stroke="black" points="505.5,-309 505.5,-330 664.5,-330 664.5,-309 505.5,-309"/>
<text text-anchor="start" x="552" y="-315.8" font-family="Nimbus Sans L" font-size="14.00">FileAccess</text>
</a>
</g>
<g id="a_node3_16"><a xlink:href="../IDMEFv1/FileAccess.html" xlink:title="Level of access allowed. &#160;The permitted values are shown below. &#160;There is no default value. &#160;(See also Section 10.)">
<polygon fill="none" stroke="black" points="505.5,-288 505.5,-309 664.5,-309 664.5,-288 505.5,-288"/>
<text text-anchor="start" x="508.5" y="-294.8" font-family="Nimbus Sans L" font-size="14.00">[ENUM] Permission (1..*)</text>
</a>
</g>
</g>
<!-- File&#45;&gt;FileAccess -->
<g id="edge2" class="edge">
<title>File&#45;&gt;FileAccess</title>
<path fill="none" stroke="black" d="M411.42,-245.63C432.18,-256.07 454.04,-266.37 475,-275 479.5,-276.85 484.13,-278.66 488.84,-280.42"/>
<polygon fill="black" stroke="black" points="487.99,-283.84 498.58,-283.96 490.38,-277.26 487.99,-283.84"/>
<text text-anchor="middle" x="443" y="-269.8" font-family="Times,serif" font-size="14.00">0..*</text>
</g>
<!-- Inode -->
<g id="node5" class="node">
<title>Inode</title>
<g id="a_node5_17"><a xlink:href="../IDMEFv1/Inode.html" xlink:title="The Inode class is used to represent the additional information contained in a Unix file system i&#45;node. ">
<polygon fill="#cecece" stroke="transparent" points="483.5,-240 483.5,-261 686.5,-261 686.5,-240 483.5,-240"/>
<polygon fill="none" stroke="black" points="483.5,-240 483.5,-261 686.5,-261 686.5,-240 483.5,-240"/>
<text text-anchor="start" x="568" y="-246.8" font-family="Nimbus Sans L" font-size="14.00">Inode</text>
</a>
</g>
<g id="a_node5_18"><a xlink:href="../IDMEFv1/Inode.html" xlink:title="The time of the last inode change, given by the st_ctime element of &quot;struct stat&quot;.">
<polygon fill="none" stroke="black" points="483.5,-219 483.5,-240 686.5,-240 686.5,-219 483.5,-219"/>
<text text-anchor="start" x="490" y="-225.8" font-family="Nimbus Sans L" font-size="14.00">[DATETIME] change&#45;time (0..1)</text>
</a>
</g>
<g id="a_node5_19"><a xlink:href="../IDMEFv1/Inode.html" xlink:title="The inode number.">
<polygon fill="none" stroke="black" points="483.5,-198 483.5,-219 686.5,-219 686.5,-198 483.5,-198"/>
<text text-anchor="start" x="508" y="-204.8" font-family="Nimbus Sans L" font-size="14.00">[INTEGER] number (0..1)</text>
</a>
</g>
<g id="a_node5_20"><a xlink:href="../IDMEFv1/Inode.html" xlink:title="The major device number of the device the file resides on.">
<polygon fill="none" stroke="black" points="483.5,-177 483.5,-198 686.5,-198 686.5,-177 483.5,-177"/>
<text text-anchor="start" x="492" y="-183.8" font-family="Nimbus Sans L" font-size="14.00">[INTEGER] major&#45;device (0..1)</text>
</a>
</g>
<g id="a_node5_21"><a xlink:href="../IDMEFv1/Inode.html" xlink:title="The minor device number of the device the file resides on.">
<polygon fill="none" stroke="black" points="483.5,-156 483.5,-177 686.5,-177 686.5,-156 483.5,-156"/>
<text text-anchor="start" x="492" y="-162.8" font-family="Nimbus Sans L" font-size="14.00">[INTEGER] minor&#45;device (0..1)</text>
</a>
</g>
<g id="a_node5_22"><a xlink:href="../IDMEFv1/Inode.html" xlink:title="The major device of the file itself, if it is a character special device.">
<polygon fill="none" stroke="black" points="483.5,-135 483.5,-156 686.5,-156 686.5,-135 483.5,-135"/>
<text text-anchor="start" x="486.5" y="-141.8" font-family="Nimbus Sans L" font-size="14.00">[INTEGER] c&#45;major&#45;device (0..1)</text>
</a>
</g>
<g id="a_node5_23"><a xlink:href="../IDMEFv1/Inode.html" xlink:title="The minor device of the file itself, if it is a character special device.">
<polygon fill="none" stroke="black" points="483.5,-114 483.5,-135 686.5,-135 686.5,-114 483.5,-114"/>
<text text-anchor="start" x="486.5" y="-120.8" font-family="Nimbus Sans L" font-size="14.00">[INTEGER] c&#45;minor&#45;device (0..1)</text>
</a>
</g>
</g>
<!-- File&#45;&gt;Inode -->
<g id="edge4" class="edge">
<title>File&#45;&gt;Inode</title>
<path fill="none" stroke="black" d="M411.14,-188C428.54,-188 446.72,-188 464.46,-188"/>
<polygon fill="black" stroke="black" points="464.85,-191.5 474.85,-188 464.85,-184.5 464.85,-191.5"/>
<text text-anchor="middle" x="443" y="-191.8" font-family="Times,serif" font-size="14.00">0..1</text>
</g>
<!-- Checksum -->
<g id="node6" class="node">
<title>Checksum</title>
<g id="a_node6_24"><a xlink:href="../IDMEFv1/Checksum.html" xlink:title="The Checksum class represents checksum information associated with the file. This checksum information can be provided by file integrity checkers, among others. ">
<polygon fill="#cecece" stroke="transparent" points="521.5,-67 521.5,-88 648.5,-88 648.5,-67 521.5,-67"/>
<polygon fill="none" stroke="black" points="521.5,-67 521.5,-88 648.5,-88 648.5,-67 521.5,-67"/>
<text text-anchor="start" x="552.5" y="-73.8" font-family="Nimbus Sans L" font-size="14.00">Checksum</text>
</a>
</g>
<g id="a_node6_25"><a xlink:href="../IDMEFv1/Checksum.html" xlink:title="The value of the checksum.">
<polygon fill="none" stroke="black" points="521.5,-46 521.5,-67 648.5,-67 648.5,-46 521.5,-46"/>
<text text-anchor="start" x="527" y="-52.8" font-family="Nimbus Sans L" font-size="14.00">[STRING] value (1)</text>
</a>
</g>
<g id="a_node6_26"><a xlink:href="../IDMEFv1/Checksum.html" xlink:title="The key to the checksum, if appropriate.">
<polygon fill="none" stroke="black" points="521.5,-25 521.5,-46 648.5,-46 648.5,-25 521.5,-25"/>
<text text-anchor="start" x="525" y="-31.8" font-family="Nimbus Sans L" font-size="14.00">[STRING] key (0..1)</text>
</a>
</g>
<g id="a_node6_27"><a xlink:href="../IDMEFv1/Checksum.html" xlink:title="default value. &#160;(See also Section 10.)">
<polygon fill="none" stroke="black" points="521.5,-4 521.5,-25 648.5,-25 648.5,-4 521.5,-4"/>
<text text-anchor="start" x="524.5" y="-10.8" font-family="Nimbus Sans L" font-size="14.00">[ENUM] algorithm ()</text>
</a>
</g>
</g>
<!-- File&#45;&gt;Checksum -->
<g id="edge5" class="edge">
<title>File&#45;&gt;Checksum</title>
<path fill="none" stroke="black" d="M411.33,-133.79C432.39,-122.9 454.39,-111.56 475,-101 484.35,-96.21 494.17,-91.2 503.92,-86.24"/>
<polygon fill="black" stroke="black" points="505.51,-89.36 512.83,-81.71 502.33,-83.12 505.51,-89.36"/>
<text text-anchor="middle" x="443" y="-126.8" font-family="Times,serif" font-size="14.00">0..*</text>
</g>
<!-- UserId -->
<g id="node4" class="node">
<title>UserId</title>
<g id="a_node4_28"><a xlink:href="../IDMEFv1/UserId.html" xlink:title="The UserId class provides specific information about a user. More than one UserId can be used within the User class to indicate attempts to transition from one user to another, or to provide complete information about a user&#39;s (or process&#39;) privileges. ">
<polygon fill="#cecece" stroke="transparent" points="748,-351 748,-372 908,-372 908,-351 748,-351"/>
<polygon fill="none" stroke="black" points="748,-351 748,-372 908,-372 908,-351 748,-351"/>
<text text-anchor="start" x="808" y="-357.8" font-family="Nimbus Sans L" font-size="14.00">UserId</text>
</a>
</g>
<g id="a_node4_29"><a xlink:href="../IDMEFv1/UserId.html" xlink:title="A user or group name.">
<polygon fill="none" stroke="black" points="748,-330 748,-351 908,-351 908,-330 748,-330"/>
<text text-anchor="start" x="761.5" y="-336.8" font-family="Nimbus Sans L" font-size="14.00">[STRING] name (0..1)</text>
</a>
</g>
<g id="a_node4_30"><a xlink:href="../IDMEFv1/UserId.html" xlink:title="A user or group number.">
<polygon fill="none" stroke="black" points="748,-309 748,-330 908,-330 908,-309 748,-309"/>
<text text-anchor="start" x="751" y="-315.8" font-family="Nimbus Sans L" font-size="14.00">[INTEGER] number (0..1)</text>
</a>
</g>
<g id="a_node4_31"><a xlink:href="../IDMEFv1/UserId.html" xlink:title="A unique identifier for the user id, see Section 3.2.9.">
<polygon fill="none" stroke="black" points="748,-288 748,-309 908,-309 908,-288 748,-288"/>
<text text-anchor="start" x="775.5" y="-294.8" font-family="Nimbus Sans L" font-size="14.00">[] ident (Optional)</text>
</a>
</g>
<g id="a_node4_32"><a xlink:href="../IDMEFv1/UserId.html" xlink:title="The type of user information represented. &#160;The permitted values for this attribute are shown below. &#160;The default value is &quot;original&#45;user&quot;. &#160;(See also Section 10.)">
<polygon fill="none" stroke="black" points="748,-267 748,-288 908,-288 908,-267 748,-267"/>
<text text-anchor="start" x="757" y="-273.8" font-family="Nimbus Sans L" font-size="14.00">[ENUM] type (Optional)</text>
</a>
</g>
<g id="a_node4_33"><a xlink:href="../IDMEFv1/UserId.html" xlink:title="The tty the user is using.">
<polygon fill="none" stroke="black" points="748,-246 748,-267 908,-267 908,-246 748,-246"/>
<text text-anchor="start" x="757" y="-252.8" font-family="Nimbus Sans L" font-size="14.00">[STRING] tty (Optional)</text>
</a>
</g>
</g>
<!-- FileAccess&#45;&gt;UserId -->
<g id="edge1" class="edge">
<title>FileAccess&#45;&gt;UserId</title>
<path fill="none" stroke="black" d="M672,-309C690.71,-309 710.6,-309 729.68,-309"/>
<polygon fill="black" stroke="black" points="729.88,-312.5 739.88,-309 729.88,-305.5 729.88,-312.5"/>
<text text-anchor="middle" x="717" y="-312.8" font-family="Times,serif" font-size="14.00">1</text>
</g>
</g>
</svg>
