<?xml version="1.0" encoding="UTF-8" standalone="no"?>
<!DOCTYPE svg PUBLIC "-//W3C//DTD SVG 1.1//EN"
 "http://www.w3.org/Graphics/SVG/1.1/DTD/svg11.dtd">
<!-- Generated by graphviz version 2.43.0 (0)
 -->
<!-- Title: OverflowAlert Pages: 1 -->
<svg width="165pt" height="100pt"
 viewBox="0.00 0.00 165.00 100.00" xmlns="http://www.w3.org/2000/svg" xmlns:xlink="http://www.w3.org/1999/xlink">
<g id="graph0" class="graph" transform="scale(1 1) rotate(0) translate(4 96)">
<title>OverflowAlert</title>
<polygon fill="white" stroke="transparent" points="-4,4 -4,-96 161,-96 161,4 -4,4"/>
<!-- OverflowAlert -->
<g id="node1" class="node">
<title>OverflowAlert</title>
<g id="a_node1_0"><a xlink:href="../IDMEFv1/OverflowAlert.html" xlink:title="The OverflowAlert carries additional information related to buffer overflow attacks. It is intended to enable an analyzer to provide the details of the overflow attack itself. ">
<polygon fill="#cecece" stroke="transparent" points="8.5,-67 8.5,-88 149.5,-88 149.5,-67 8.5,-67"/>
<polygon fill="none" stroke="black" points="8.5,-67 8.5,-88 149.5,-88 149.5,-67 8.5,-67"/>
<text text-anchor="start" x="38" y="-73.8" font-family="Nimbus Sans L" font-size="14.00">OverflowAlert</text>
</a>
</g>
<g id="a_node1_1"><a xlink:href="../IDMEFv1/OverflowAlert.html" xlink:title="The program that the overflow attack attempted to run (NOTE: this is not the program that was attacked).">
<polygon fill="none" stroke="black" points="8.5,-46 8.5,-67 149.5,-67 149.5,-46 8.5,-46"/>
<text text-anchor="start" x="11.5" y="-52.8" font-family="Nimbus Sans L" font-size="14.00">[STRING] program (1)</text>
</a>
</g>
<g id="a_node1_2"><a xlink:href="../IDMEFv1/OverflowAlert.html" xlink:title="The size, in bytes, of the overflow (i.e., the number of bytes the attacker sent).">
<polygon fill="none" stroke="black" points="8.5,-25 8.5,-46 149.5,-46 149.5,-25 8.5,-25"/>
<text text-anchor="start" x="13" y="-31.8" font-family="Nimbus Sans L" font-size="14.00">[INTEGER] size (0..1)</text>
</a>
</g>
<g id="a_node1_3"><a xlink:href="../IDMEFv1/OverflowAlert.html" xlink:title="Some or all of the overflow data itself (dependent on how much the analyzer can capture).">
<polygon fill="none" stroke="black" points="8.5,-4 8.5,-25 149.5,-25 149.5,-4 8.5,-4"/>
<text text-anchor="start" x="17" y="-10.8" font-family="Nimbus Sans L" font-size="14.00">[BYTE[]] buffer (0..1)</text>
</a>
</g>
</g>
</g>
</svg>
