<?xml version="1.0" encoding="UTF-8" standalone="no"?>
<!DOCTYPE svg PUBLIC "-//W3C//DTD SVG 1.1//EN"
 "http://www.w3.org/Graphics/SVG/1.1/DTD/svg11.dtd">
<!-- Generated by graphviz version 2.43.0 (0)
 -->
<!-- Title: Source Pages: 1 -->
<svg width="802pt" height="659pt"
 viewBox="0.00 0.00 802.00 659.00" xmlns="http://www.w3.org/2000/svg" xmlns:xlink="http://www.w3.org/1999/xlink">
<g id="graph0" class="graph" transform="scale(1 1) rotate(0) translate(4 655)">
<title>Source</title>
<polygon fill="white" stroke="transparent" points="-4,4 -4,-655 798,-655 798,4 -4,4"/>
<!-- Source -->
<g id="node1" class="node">
<title>Source</title>
<g id="a_node1_0"><a xlink:href="../IDMEFv1/Source.html" xlink:title="The Source class contains information about the possible source(s) of the event(s) that generated an alert. An event may have more than one source (e.g., in a distributed denial&#45;of&#45;service attack). ">
<polygon fill="#cecece" stroke="transparent" points="8,-332.5 8,-353.5 178,-353.5 178,-332.5 8,-332.5"/>
<polygon fill="none" stroke="black" points="8,-332.5 8,-353.5 178,-353.5 178,-332.5 8,-332.5"/>
<text text-anchor="start" x="71.5" y="-339.3" font-family="Nimbus Sans L" font-size="14.00">Source</text>
</a>
</g>
<g id="a_node1_1"><a xlink:href="../IDMEFv1/Source.html" xlink:title="A unique identifier for this source; see Section 3.2.9.">
<polygon fill="none" stroke="black" points="8,-311.5 8,-332.5 178,-332.5 178,-311.5 8,-311.5"/>
<text text-anchor="start" x="40.5" y="-318.3" font-family="Nimbus Sans L" font-size="14.00">[] ident (Optional)</text>
</a>
</g>
<g id="a_node1_2"><a xlink:href="../IDMEFv1/Source.html" xlink:title="An indication of whether the source is, as far as the analyzer can determine, a spoofed address used for hiding the real origin of the attack. &#160;The permitted values for this attribute are shown below. &#160;The default value is &quot;unknown&quot;. &#160;(See also Section 10.)">
<polygon fill="none" stroke="black" points="8,-290.5 8,-311.5 178,-311.5 178,-290.5 8,-290.5"/>
<text text-anchor="start" x="11" y="-297.3" font-family="Nimbus Sans L" font-size="14.00">[ENUM] spoofed (Optional)</text>
</a>
</g>
<g id="a_node1_3"><a xlink:href="../IDMEFv1/Source.html" xlink:title="May be used by a network&#45;based analyzer with multiple interfaces to indicate which interface this source was seen on.">
<polygon fill="none" stroke="black" points="8,-269.5 8,-290.5 178,-290.5 178,-269.5 8,-269.5"/>
<text text-anchor="start" x="29.5" y="-276.3" font-family="Nimbus Sans L" font-size="14.00">[] interface (Optional)</text>
</a>
</g>
</g>
<!-- Node -->
<g id="node2" class="node">
<title>Node</title>
<g id="a_node2_4"><a xlink:href="../IDMEFv1/Node.html" xlink:title="The Node class is used to identify hosts and other network devices (routers, switches, etc.). ">
<polygon fill="#cecece" stroke="transparent" points="309.5,-578.5 309.5,-599.5 483.5,-599.5 483.5,-578.5 309.5,-578.5"/>
<polygon fill="none" stroke="black" points="309.5,-578.5 309.5,-599.5 483.5,-599.5 483.5,-578.5 309.5,-578.5"/>
<text text-anchor="start" x="380" y="-585.3" font-family="Nimbus Sans L" font-size="14.00">Node</text>
</a>
</g>
<g id="a_node2_5"><a xlink:href="../IDMEFv1/Node.html" xlink:title="The location of the equipment.">
<polygon fill="none" stroke="black" points="309.5,-557.5 309.5,-578.5 483.5,-578.5 483.5,-557.5 309.5,-557.5"/>
<text text-anchor="start" x="324" y="-564.3" font-family="Nimbus Sans L" font-size="14.00">[STRING] location (0..1)</text>
</a>
</g>
<g id="a_node2_6"><a xlink:href="../IDMEFv1/Node.html" xlink:title="The name of the equipment. &#160;This information MUST be provided if no Address information is given.">
<polygon fill="none" stroke="black" points="309.5,-536.5 309.5,-557.5 483.5,-557.5 483.5,-536.5 309.5,-536.5"/>
<text text-anchor="start" x="330" y="-543.3" font-family="Nimbus Sans L" font-size="14.00">[STRING] name (0..1)</text>
</a>
</g>
<g id="a_node2_7"><a xlink:href="../IDMEFv1/Node.html" xlink:title="A unique identifier for the node; see Section 3.2.9.">
<polygon fill="none" stroke="black" points="309.5,-515.5 309.5,-536.5 483.5,-536.5 483.5,-515.5 309.5,-515.5"/>
<text text-anchor="start" x="344" y="-522.3" font-family="Nimbus Sans L" font-size="14.00">[] ident (Optional)</text>
</a>
</g>
<g id="a_node2_8"><a xlink:href="../IDMEFv1/Node.html" xlink:title="The &quot;domain&quot; from which the name information was obtained, if relevant. &#160;The permitted values for this attribute are shown in the table below. &#160;The default value is &quot;unknown&quot;. (See also Section 10 for extensions to the table.)">
<polygon fill="none" stroke="black" points="309.5,-494.5 309.5,-515.5 483.5,-515.5 483.5,-494.5 309.5,-494.5"/>
<text text-anchor="start" x="312.5" y="-501.3" font-family="Nimbus Sans L" font-size="14.00">[ENUM] category (Optional)</text>
</a>
</g>
</g>
<!-- Source&#45;&gt;Node -->
<g id="edge2" class="edge">
<title>Source&#45;&gt;Node</title>
<path fill="none" stroke="black" d="M133.28,-357.71C163.11,-391.06 206.33,-435.78 250,-468.5 263.27,-478.44 277.94,-487.91 292.72,-496.62"/>
<polygon fill="black" stroke="black" points="291.01,-499.68 301.42,-501.66 294.52,-493.62 291.01,-499.68"/>
<text text-anchor="middle" x="218" y="-457.3" font-family="Times,serif" font-size="14.00">0..1</text>
</g>
<!-- User -->
<g id="node4" class="node">
<title>User</title>
<g id="a_node4_9"><a xlink:href="../IDMEFv1/User.html" xlink:title="The User class is used to describe users. It is primarily used as a &quot;container&quot; class for the UserId aggregate class, as shown in Figure 16. ">
<polygon fill="#cecece" stroke="transparent" points="309.5,-433.5 309.5,-454.5 483.5,-454.5 483.5,-433.5 309.5,-433.5"/>
<polygon fill="none" stroke="black" points="309.5,-433.5 309.5,-454.5 483.5,-454.5 483.5,-433.5 309.5,-433.5"/>
<text text-anchor="start" x="382" y="-440.3" font-family="Nimbus Sans L" font-size="14.00">User</text>
</a>
</g>
<g id="a_node4_10"><a xlink:href="../IDMEFv1/User.html" xlink:title="A unique identifier for the user; see Section 3.2.9.">
<polygon fill="none" stroke="black" points="309.5,-412.5 309.5,-433.5 483.5,-433.5 483.5,-412.5 309.5,-412.5"/>
<text text-anchor="start" x="344" y="-419.3" font-family="Nimbus Sans L" font-size="14.00">[] ident (Optional)</text>
</a>
</g>
<g id="a_node4_11"><a xlink:href="../IDMEFv1/User.html" xlink:title="The type of user represented. &#160;The permitted values for this attribute are shown below. &#160;The default value is &quot;unknown&quot;. (See also Section 10.)">
<polygon fill="none" stroke="black" points="309.5,-391.5 309.5,-412.5 483.5,-412.5 483.5,-391.5 309.5,-391.5"/>
<text text-anchor="start" x="312.5" y="-398.3" font-family="Nimbus Sans L" font-size="14.00">[ENUM] category (Optional)</text>
</a>
</g>
</g>
<!-- Source&#45;&gt;User -->
<g id="edge4" class="edge">
<title>Source&#45;&gt;User</title>
<path fill="none" stroke="black" d="M186.07,-353.76C206.91,-362.73 229.06,-371.8 250,-379.5 263.38,-384.42 277.6,-389.22 291.7,-393.74"/>
<polygon fill="black" stroke="black" points="290.84,-397.14 301.43,-396.82 292.95,-390.47 290.84,-397.14"/>
<text text-anchor="middle" x="218" y="-374.3" font-family="Times,serif" font-size="14.00">0..1</text>
</g>
<!-- Process -->
<g id="node6" class="node">
<title>Process</title>
<g id="a_node6_12"><a xlink:href="../IDMEFv1/Process.html" xlink:title="The Process class is used to describe processes being executed on sources, targets, and analyzers. ">
<polygon fill="#cecece" stroke="transparent" points="330.5,-344.5 330.5,-365.5 462.5,-365.5 462.5,-344.5 330.5,-344.5"/>
<polygon fill="none" stroke="black" points="330.5,-344.5 330.5,-365.5 462.5,-365.5 462.5,-344.5 330.5,-344.5"/>
<text text-anchor="start" x="372" y="-351.3" font-family="Nimbus Sans L" font-size="14.00">Process</text>
</a>
</g>
<g id="a_node6_13"><a xlink:href="../IDMEFv1/Process.html" xlink:title="The name of the program being executed. This is a short name; path and argument information are provided elsewhere.">
<polygon fill="none" stroke="black" points="330.5,-323.5 330.5,-344.5 462.5,-344.5 462.5,-323.5 330.5,-323.5"/>
<text text-anchor="start" x="337.5" y="-330.3" font-family="Nimbus Sans L" font-size="14.00">[STRING] name (1)</text>
</a>
</g>
<g id="a_node6_14"><a xlink:href="../IDMEFv1/Process.html" xlink:title="The process identifier of the process.">
<polygon fill="none" stroke="black" points="330.5,-302.5 330.5,-323.5 462.5,-323.5 462.5,-302.5 330.5,-302.5"/>
<text text-anchor="start" x="333.5" y="-309.3" font-family="Nimbus Sans L" font-size="14.00">[INTEGER] pid (0..1)</text>
</a>
</g>
<g id="a_node6_15"><a xlink:href="../IDMEFv1/Process.html" xlink:title="The full path of the program being executed.">
<polygon fill="none" stroke="black" points="330.5,-281.5 330.5,-302.5 462.5,-302.5 462.5,-281.5 330.5,-281.5"/>
<text text-anchor="start" x="334" y="-288.3" font-family="Nimbus Sans L" font-size="14.00">[STRING] path (0..1)</text>
</a>
</g>
<g id="a_node6_16"><a xlink:href="../IDMEFv1/Process.html" xlink:title="A command&#45;line argument to the program. Multiple arguments may be specified (they are assumed to have occurred in the same order they are provided) with multiple uses of arg.">
<polygon fill="none" stroke="black" points="330.5,-260.5 330.5,-281.5 462.5,-281.5 462.5,-260.5 330.5,-260.5"/>
<text text-anchor="start" x="338.5" y="-267.3" font-family="Nimbus Sans L" font-size="14.00">[STRING] arg (0..*)</text>
</a>
</g>
<g id="a_node6_17"><a xlink:href="../IDMEFv1/Process.html" xlink:title="An environment string associated with the process; generally of the format &quot;VARIABLE=value&quot;. &#160;Multiple environment strings may be specified with multiple uses of env.">
<polygon fill="none" stroke="black" points="330.5,-239.5 330.5,-260.5 462.5,-260.5 462.5,-239.5 330.5,-239.5"/>
<text text-anchor="start" x="337.5" y="-246.3" font-family="Nimbus Sans L" font-size="14.00">[STRING] env (0..*)</text>
</a>
</g>
<g id="a_node6_18"><a xlink:href="../IDMEFv1/Process.html" xlink:title="A unique identifier for the process; see Section 3.2.9.">
<polygon fill="none" stroke="black" points="330.5,-218.5 330.5,-239.5 462.5,-239.5 462.5,-218.5 330.5,-218.5"/>
<text text-anchor="start" x="344" y="-225.3" font-family="Nimbus Sans L" font-size="14.00">[] ident (Optional)</text>
</a>
</g>
</g>
<!-- Source&#45;&gt;Process -->
<g id="edge5" class="edge">
<title>Source&#45;&gt;Process</title>
<path fill="none" stroke="black" d="M186.1,-305.7C226.16,-303.17 272.77,-300.23 311.83,-297.77"/>
<polygon fill="black" stroke="black" points="312.35,-301.25 322.11,-297.13 311.91,-294.26 312.35,-301.25"/>
<text text-anchor="middle" x="218" y="-307.3" font-family="Times,serif" font-size="14.00">0..1</text>
</g>
<!-- Service -->
<g id="node7" class="node">
<title>Service</title>
<g id="a_node7_19"><a xlink:href="../IDMEFv1/Service.html" xlink:title="The Service class describes network services on sources and targets. It can identify services by name, port, and protocol. When Service occurs as an aggregate class of Source, it is understood that the service is one from which activity of interest is originating; and that the service is &quot;attached&quot; to the Node, Process, and User information also contained in Source. Likewise, when Service occurs as an aggregate class of Target, it is understood that the service is one to which activity of interest is being directed; and that the service is &quot;attached&quot; to the Node, Process, and User information also contained in Target. If Service occurs in both Source and Target, then information in both locations should be the same. If information is the same in both locations and implementers wish to carry it in only one location, they should specify it as an aggregate of the Target class. ">
<polygon fill="#cecece" stroke="transparent" points="258.5,-171.5 258.5,-192.5 535.5,-192.5 535.5,-171.5 258.5,-171.5"/>
<polygon fill="none" stroke="black" points="258.5,-171.5 258.5,-192.5 535.5,-192.5 535.5,-171.5 258.5,-171.5"/>
<text text-anchor="start" x="374" y="-178.3" font-family="Nimbus Sans L" font-size="14.00">Service</text>
</a>
</g>
<g id="a_node7_20"><a xlink:href="../IDMEFv1/Service.html" xlink:title="The name of the service. &#160;Whenever possible, the name from the IANA list of well&#45;known ports SHOULD be used.">
<polygon fill="none" stroke="black" points="258.5,-150.5 258.5,-171.5 535.5,-171.5 535.5,-150.5 258.5,-150.5"/>
<text text-anchor="start" x="330.5" y="-157.3" font-family="Nimbus Sans L" font-size="14.00">[STRING] name (0..1)</text>
</a>
</g>
<g id="a_node7_21"><a xlink:href="../IDMEFv1/Service.html" xlink:title="The port number being used.">
<polygon fill="none" stroke="black" points="258.5,-129.5 258.5,-150.5 535.5,-150.5 535.5,-129.5 258.5,-129.5"/>
<text text-anchor="start" x="331.5" y="-136.3" font-family="Nimbus Sans L" font-size="14.00">[INTEGER] port (0..1)</text>
</a>
</g>
<g id="a_node7_22"><a xlink:href="../IDMEFv1/Service.html" xlink:title="A list of port numbers being used; see Section 3.2.8 for formatting rules. &#160;If a portlist is given, the iana_protocol_number and iana_protocol_name MUST apply to all the elements of the list.">
<polygon fill="none" stroke="black" points="258.5,-108.5 258.5,-129.5 535.5,-129.5 535.5,-108.5 258.5,-108.5"/>
<text text-anchor="start" x="320" y="-115.3" font-family="Nimbus Sans L" font-size="14.00">[PORTLIST] portlist (0..1)</text>
</a>
</g>
<g id="a_node7_23"><a xlink:href="../IDMEFv1/Service.html" xlink:title="Additional information about the protocol being used. &#160;The intent of the protocol field is to carry additional information related to the protocol being used when the &lt;Service&gt; attributes iana_protocol_number or/and iana_protocol_name are filed.">
<polygon fill="none" stroke="black" points="258.5,-87.5 258.5,-108.5 535.5,-108.5 535.5,-87.5 258.5,-87.5"/>
<text text-anchor="start" x="323.5" y="-94.3" font-family="Nimbus Sans L" font-size="14.00">[STRING] protocol (0..1)</text>
</a>
</g>
<g id="a_node7_24"><a xlink:href="../IDMEFv1/Service.html" xlink:title="A unique identifier for the service; see Section 3.2.9.">
<polygon fill="none" stroke="black" points="258.5,-66.5 258.5,-87.5 535.5,-87.5 535.5,-66.5 258.5,-66.5"/>
<text text-anchor="start" x="344.5" y="-73.3" font-family="Nimbus Sans L" font-size="14.00">[] ident (Optional)</text>
</a>
</g>
<g id="a_node7_25"><a xlink:href="../IDMEFv1/Service.html" xlink:title="The IP version number.">
<polygon fill="none" stroke="black" points="258.5,-45.5 258.5,-66.5 535.5,-66.5 535.5,-45.5 258.5,-45.5"/>
<text text-anchor="start" x="298" y="-52.3" font-family="Nimbus Sans L" font-size="14.00">[INTEGER] ip_version (Optional)</text>
</a>
</g>
<g id="a_node7_26"><a xlink:href="../IDMEFv1/Service.html" xlink:title="The IANA protocol number.">
<polygon fill="none" stroke="black" points="258.5,-24.5 258.5,-45.5 535.5,-45.5 535.5,-24.5 258.5,-24.5"/>
<text text-anchor="start" x="261.5" y="-31.3" font-family="Nimbus Sans L" font-size="14.00">[INTEGER] iana_protocol_number (Optional)</text>
</a>
</g>
<g id="a_node7_27"><a xlink:href="../IDMEFv1/Service.html" xlink:title="The IANA protocol name.">
<polygon fill="none" stroke="black" points="258.5,-3.5 258.5,-24.5 535.5,-24.5 535.5,-3.5 258.5,-3.5"/>
<text text-anchor="start" x="272" y="-10.3" font-family="Nimbus Sans L" font-size="14.00">[STRING] iana_protocol_name (Optional)</text>
</a>
</g>
</g>
<!-- Source&#45;&gt;Service -->
<g id="edge6" class="edge">
<title>Source&#45;&gt;Service</title>
<path fill="none" stroke="black" d="M159.42,-265.28C185.49,-246.86 216.65,-224.85 247.63,-202.96"/>
<polygon fill="black" stroke="black" points="249.79,-205.73 255.93,-197.1 245.75,-200.01 249.79,-205.73"/>
<text text-anchor="middle" x="218" y="-233.3" font-family="Times,serif" font-size="14.00">0..1</text>
</g>
<!-- Address -->
<g id="node3" class="node">
<title>Address</title>
<g id="a_node3_28"><a xlink:href="../IDMEFv1/Address.html" xlink:title="The Address class is used to represent network, hardware, and application addresses. ">
<polygon fill="#cecece" stroke="transparent" points="612,-625.5 612,-646.5 786,-646.5 786,-625.5 612,-625.5"/>
<polygon fill="none" stroke="black" points="612,-625.5 612,-646.5 786,-646.5 786,-625.5 612,-625.5"/>
<text text-anchor="start" x="674" y="-632.3" font-family="Nimbus Sans L" font-size="14.00">Address</text>
</a>
</g>
<g id="a_node3_29"><a xlink:href="../IDMEFv1/Address.html" xlink:title="The address information. &#160;The format of this data is governed by the category attribute.">
<polygon fill="none" stroke="black" points="612,-604.5 612,-625.5 786,-625.5 786,-604.5 612,-604.5"/>
<text text-anchor="start" x="633" y="-611.3" font-family="Nimbus Sans L" font-size="14.00">[STRING] address (1)</text>
</a>
</g>
<g id="a_node3_30"><a xlink:href="../IDMEFv1/Address.html" xlink:title="The network mask for the address, if appropriate.">
<polygon fill="none" stroke="black" points="612,-583.5 612,-604.5 786,-604.5 786,-583.5 612,-583.5"/>
<text text-anchor="start" x="623.5" y="-590.3" font-family="Nimbus Sans L" font-size="14.00">[STRING] netmask (0..1)</text>
</a>
</g>
<g id="a_node3_31"><a xlink:href="../IDMEFv1/Address.html" xlink:title="A unique identifier for the address; see Section 3.2.9.">
<polygon fill="none" stroke="black" points="612,-562.5 612,-583.5 786,-583.5 786,-562.5 612,-562.5"/>
<text text-anchor="start" x="646.5" y="-569.3" font-family="Nimbus Sans L" font-size="14.00">[] ident (Optional)</text>
</a>
</g>
<g id="a_node3_32"><a xlink:href="../IDMEFv1/Address.html" xlink:title="The type of address represented. &#160;The permitted values for this attribute are shown below. &#160;The default value is &quot;unknown&quot;. &#160;(See also Section 10.)">
<polygon fill="none" stroke="black" points="612,-541.5 612,-562.5 786,-562.5 786,-541.5 612,-541.5"/>
<text text-anchor="start" x="615" y="-548.3" font-family="Nimbus Sans L" font-size="14.00">[ENUM] category (Optional)</text>
</a>
</g>
<g id="a_node3_33"><a xlink:href="../IDMEFv1/Address.html" xlink:title="The name of the Virtual LAN to which the address belongs.">
<polygon fill="none" stroke="black" points="612,-520.5 612,-541.5 786,-541.5 786,-520.5 612,-520.5"/>
<text text-anchor="start" x="629.5" y="-527.3" font-family="Nimbus Sans L" font-size="14.00">[] vlan&#45;name (Optional)</text>
</a>
</g>
<g id="a_node3_34"><a xlink:href="../IDMEFv1/Address.html" xlink:title="The number of the Virtual LAN to which the address belongs.">
<polygon fill="none" stroke="black" points="612,-499.5 612,-520.5 786,-520.5 786,-499.5 612,-499.5"/>
<text text-anchor="start" x="633" y="-506.3" font-family="Nimbus Sans L" font-size="14.00">[] vlan&#45;num (Optional)</text>
</a>
</g>
</g>
<!-- Node&#45;&gt;Address -->
<g id="edge1" class="edge">
<title>Node&#45;&gt;Address</title>
<path fill="none" stroke="black" d="M491.76,-555.66C524.12,-558.46 560.54,-561.61 593.66,-564.47"/>
<polygon fill="black" stroke="black" points="593.56,-567.98 603.82,-565.35 594.16,-561 593.56,-567.98"/>
<text text-anchor="middle" x="573.5" y="-567.3" font-family="Times,serif" font-size="14.00">0..*</text>
</g>
<!-- UserId -->
<g id="node5" class="node">
<title>UserId</title>
<g id="a_node5_35"><a xlink:href="../IDMEFv1/UserId.html" xlink:title="The UserId class provides specific information about a user. More than one UserId can be used within the User class to indicate attempts to transition from one user to another, or to provide complete information about a user&#39;s (or process&#39;) privileges. ">
<polygon fill="#cecece" stroke="transparent" points="619,-452.5 619,-473.5 779,-473.5 779,-452.5 619,-452.5"/>
<polygon fill="none" stroke="black" points="619,-452.5 619,-473.5 779,-473.5 779,-452.5 619,-452.5"/>
<text text-anchor="start" x="679" y="-459.3" font-family="Nimbus Sans L" font-size="14.00">UserId</text>
</a>
</g>
<g id="a_node5_36"><a xlink:href="../IDMEFv1/UserId.html" xlink:title="A user or group name.">
<polygon fill="none" stroke="black" points="619,-431.5 619,-452.5 779,-452.5 779,-431.5 619,-431.5"/>
<text text-anchor="start" x="632.5" y="-438.3" font-family="Nimbus Sans L" font-size="14.00">[STRING] name (0..1)</text>
</a>
</g>
<g id="a_node5_37"><a xlink:href="../IDMEFv1/UserId.html" xlink:title="A user or group number.">
<polygon fill="none" stroke="black" points="619,-410.5 619,-431.5 779,-431.5 779,-410.5 619,-410.5"/>
<text text-anchor="start" x="622" y="-417.3" font-family="Nimbus Sans L" font-size="14.00">[INTEGER] number (0..1)</text>
</a>
</g>
<g id="a_node5_38"><a xlink:href="../IDMEFv1/UserId.html" xlink:title="A unique identifier for the user id, see Section 3.2.9.">
<polygon fill="none" stroke="black" points="619,-389.5 619,-410.5 779,-410.5 779,-389.5 619,-389.5"/>
<text text-anchor="start" x="646.5" y="-396.3" font-family="Nimbus Sans L" font-size="14.00">[] ident (Optional)</text>
</a>
</g>
<g id="a_node5_39"><a xlink:href="../IDMEFv1/UserId.html" xlink:title="The type of user information represented. &#160;The permitted values for this attribute are shown below. &#160;The default value is &quot;original&#45;user&quot;. &#160;(See also Section 10.)">
<polygon fill="none" stroke="black" points="619,-368.5 619,-389.5 779,-389.5 779,-368.5 619,-368.5"/>
<text text-anchor="start" x="628" y="-375.3" font-family="Nimbus Sans L" font-size="14.00">[ENUM] type (Optional)</text>
</a>
</g>
<g id="a_node5_40"><a xlink:href="../IDMEFv1/UserId.html" xlink:title="The tty the user is using.">
<polygon fill="none" stroke="black" points="619,-347.5 619,-368.5 779,-368.5 779,-347.5 619,-347.5"/>
<text text-anchor="start" x="628" y="-354.3" font-family="Nimbus Sans L" font-size="14.00">[STRING] tty (Optional)</text>
</a>
</g>
</g>
<!-- User&#45;&gt;UserId -->
<g id="edge3" class="edge">
<title>User&#45;&gt;UserId</title>
<path fill="none" stroke="black" d="M491.76,-419.42C526.46,-417.92 565.81,-416.22 600.76,-414.71"/>
<polygon fill="black" stroke="black" points="601.14,-418.19 610.98,-414.26 600.84,-411.2 601.14,-418.19"/>
<text text-anchor="middle" x="573.5" y="-419.3" font-family="Times,serif" font-size="14.00">1..*</text>
</g>
</g>
</svg>
