<?xml version="1.0" encoding="UTF-8" standalone="no"?>
<!DOCTYPE svg PUBLIC "-//W3C//DTD SVG 1.1//EN"
 "http://www.w3.org/Graphics/SVG/1.1/DTD/svg11.dtd">
<!-- Generated by graphviz version 2.43.0 (0)
 -->
<!-- Title: Target Pages: 1 -->
<svg width="1206pt" height="947pt"
 viewBox="0.00 0.00 1206.00 946.50" xmlns="http://www.w3.org/2000/svg" xmlns:xlink="http://www.w3.org/1999/xlink">
<g id="graph0" class="graph" transform="scale(1 1) rotate(0) translate(4 942.5)">
<title>Target</title>
<polygon fill="white" stroke="transparent" points="-4,4 -4,-942.5 1202,-942.5 1202,4 -4,4"/>
<!-- Target -->
<g id="node1" class="node">
<title>Target</title>
<g id="a_node1_0"><a xlink:href="../IDMEFv1/Target.html" xlink:title="The Target class contains information about the possible target(s) of the event(s) that generated an alert. An event may have more than one target (e.g., in the case of a port sweep). ">
<polygon fill="#cecece" stroke="transparent" points="8,-691 8,-712 166,-712 166,-691 8,-691"/>
<polygon fill="none" stroke="black" points="8,-691 8,-712 166,-712 166,-691 8,-691"/>
<text text-anchor="start" x="68" y="-697.8" font-family="Nimbus Sans L" font-size="14.00">Target</text>
</a>
</g>
<g id="a_node1_1"><a xlink:href="../IDMEFv1/Target.html" xlink:title="A unique identifier for this target, see Section 3.2.9.">
<polygon fill="none" stroke="black" points="8,-670 8,-691 166,-691 166,-670 8,-670"/>
<text text-anchor="start" x="34.5" y="-676.8" font-family="Nimbus Sans L" font-size="14.00">[] ident (Optional)</text>
</a>
</g>
<g id="a_node1_2"><a xlink:href="../IDMEFv1/Target.html" xlink:title="An indication of whether the target is, as far as the analyzer can determine, a decoy. &#160;The permitted values for this attribute are shown below. &#160;The default value is &quot;unknown&quot;. &#160;(See also Section 10.)">
<polygon fill="none" stroke="black" points="8,-649 8,-670 166,-670 166,-649 8,-649"/>
<text text-anchor="start" x="11" y="-655.8" font-family="Nimbus Sans L" font-size="14.00">[ENUM] decoy (Optional)</text>
</a>
</g>
<g id="a_node1_3"><a xlink:href="../IDMEFv1/Target.html" xlink:title="May be used by a network&#45;based analyzer with multiple interfaces to indicate which interface this target was seen on.">
<polygon fill="none" stroke="black" points="8,-628 8,-649 166,-649 166,-628 8,-628"/>
<text text-anchor="start" x="23.5" y="-634.8" font-family="Nimbus Sans L" font-size="14.00">[] interface (Optional)</text>
</a>
</g>
</g>
<!-- Node -->
<g id="node2" class="node">
<title>Node</title>
<g id="a_node2_4"><a xlink:href="../IDMEFv1/Node.html" xlink:title="The Node class is used to identify hosts and other network devices (routers, switches, etc.). ">
<polygon fill="#cecece" stroke="transparent" points="297.5,-892 297.5,-913 471.5,-913 471.5,-892 297.5,-892"/>
<polygon fill="none" stroke="black" points="297.5,-892 297.5,-913 471.5,-913 471.5,-892 297.5,-892"/>
<text text-anchor="start" x="368" y="-898.8" font-family="Nimbus Sans L" font-size="14.00">Node</text>
</a>
</g>
<g id="a_node2_5"><a xlink:href="../IDMEFv1/Node.html" xlink:title="The location of the equipment.">
<polygon fill="none" stroke="black" points="297.5,-871 297.5,-892 471.5,-892 471.5,-871 297.5,-871"/>
<text text-anchor="start" x="312" y="-877.8" font-family="Nimbus Sans L" font-size="14.00">[STRING] location (0..1)</text>
</a>
</g>
<g id="a_node2_6"><a xlink:href="../IDMEFv1/Node.html" xlink:title="The name of the equipment. &#160;This information MUST be provided if no Address information is given.">
<polygon fill="none" stroke="black" points="297.5,-850 297.5,-871 471.5,-871 471.5,-850 297.5,-850"/>
<text text-anchor="start" x="318" y="-856.8" font-family="Nimbus Sans L" font-size="14.00">[STRING] name (0..1)</text>
</a>
</g>
<g id="a_node2_7"><a xlink:href="../IDMEFv1/Node.html" xlink:title="A unique identifier for the node; see Section 3.2.9.">
<polygon fill="none" stroke="black" points="297.5,-829 297.5,-850 471.5,-850 471.5,-829 297.5,-829"/>
<text text-anchor="start" x="332" y="-835.8" font-family="Nimbus Sans L" font-size="14.00">[] ident (Optional)</text>
</a>
</g>
<g id="a_node2_8"><a xlink:href="../IDMEFv1/Node.html" xlink:title="The &quot;domain&quot; from which the name information was obtained, if relevant. &#160;The permitted values for this attribute are shown in the table below. &#160;The default value is &quot;unknown&quot;. (See also Section 10 for extensions to the table.)">
<polygon fill="none" stroke="black" points="297.5,-808 297.5,-829 471.5,-829 471.5,-808 297.5,-808"/>
<text text-anchor="start" x="300.5" y="-814.8" font-family="Nimbus Sans L" font-size="14.00">[ENUM] category (Optional)</text>
</a>
</g>
</g>
<!-- Target&#45;&gt;Node -->
<g id="edge2" class="edge">
<title>Target&#45;&gt;Node</title>
<path fill="none" stroke="black" d="M117.05,-716.18C135.66,-742.48 161.92,-774.23 192,-795 218.11,-813.03 249.61,-826.55 279.45,-836.5"/>
<polygon fill="black" stroke="black" points="278.48,-839.86 289.07,-839.61 280.63,-833.2 278.48,-839.86"/>
<text text-anchor="middle" x="206" y="-812.8" font-family="Times,serif" font-size="14.00">0..1</text>
</g>
<!-- User -->
<g id="node4" class="node">
<title>User</title>
<g id="a_node4_9"><a xlink:href="../IDMEFv1/User.html" xlink:title="The User class is used to describe users. It is primarily used as a &quot;container&quot; class for the UserId aggregate class, as shown in Figure 16. ">
<polygon fill="#cecece" stroke="transparent" points="557,-739 557,-760 731,-760 731,-739 557,-739"/>
<polygon fill="none" stroke="black" points="557,-739 557,-760 731,-760 731,-739 557,-739"/>
<text text-anchor="start" x="629.5" y="-745.8" font-family="Nimbus Sans L" font-size="14.00">User</text>
</a>
</g>
<g id="a_node4_10"><a xlink:href="../IDMEFv1/User.html" xlink:title="A unique identifier for the user; see Section 3.2.9.">
<polygon fill="none" stroke="black" points="557,-718 557,-739 731,-739 731,-718 557,-718"/>
<text text-anchor="start" x="591.5" y="-724.8" font-family="Nimbus Sans L" font-size="14.00">[] ident (Optional)</text>
</a>
</g>
<g id="a_node4_11"><a xlink:href="../IDMEFv1/User.html" xlink:title="The type of user represented. &#160;The permitted values for this attribute are shown below. &#160;The default value is &quot;unknown&quot;. (See also Section 10.)">
<polygon fill="none" stroke="black" points="557,-697 557,-718 731,-718 731,-697 557,-697"/>
<text text-anchor="start" x="560" y="-703.8" font-family="Nimbus Sans L" font-size="14.00">[ENUM] category (Optional)</text>
</a>
</g>
</g>
<!-- Target&#45;&gt;User -->
<g id="edge4" class="edge">
<title>Target&#45;&gt;User</title>
<path fill="none" stroke="black" d="M150.41,-716.07C176.17,-732.37 207.18,-748.71 238,-757 363.75,-790.83 401.75,-772.91 531,-757 533.57,-756.68 536.16,-756.33 538.77,-755.94"/>
<polygon fill="black" stroke="black" points="539.6,-759.35 548.9,-754.27 538.47,-752.44 539.6,-759.35"/>
<text text-anchor="middle" x="206" y="-753.8" font-family="Times,serif" font-size="14.00">0..1</text>
</g>
<!-- Process -->
<g id="node6" class="node">
<title>Process</title>
<g id="a_node6_12"><a xlink:href="../IDMEFv1/Process.html" xlink:title="The Process class is used to describe processes being executed on sources, targets, and analyzers. ">
<polygon fill="#cecece" stroke="transparent" points="318.5,-722 318.5,-743 450.5,-743 450.5,-722 318.5,-722"/>
<polygon fill="none" stroke="black" points="318.5,-722 318.5,-743 450.5,-743 450.5,-722 318.5,-722"/>
<text text-anchor="start" x="360" y="-728.8" font-family="Nimbus Sans L" font-size="14.00">Process</text>
</a>
</g>
<g id="a_node6_13"><a xlink:href="../IDMEFv1/Process.html" xlink:title="The name of the program being executed. This is a short name; path and argument information are provided elsewhere.">
<polygon fill="none" stroke="black" points="318.5,-701 318.5,-722 450.5,-722 450.5,-701 318.5,-701"/>
<text text-anchor="start" x="325.5" y="-707.8" font-family="Nimbus Sans L" font-size="14.00">[STRING] name (1)</text>
</a>
</g>
<g id="a_node6_14"><a xlink:href="../IDMEFv1/Process.html" xlink:title="The process identifier of the process.">
<polygon fill="none" stroke="black" points="318.5,-680 318.5,-701 450.5,-701 450.5,-680 318.5,-680"/>
<text text-anchor="start" x="321.5" y="-686.8" font-family="Nimbus Sans L" font-size="14.00">[INTEGER] pid (0..1)</text>
</a>
</g>
<g id="a_node6_15"><a xlink:href="../IDMEFv1/Process.html" xlink:title="The full path of the program being executed.">
<polygon fill="none" stroke="black" points="318.5,-659 318.5,-680 450.5,-680 450.5,-659 318.5,-659"/>
<text text-anchor="start" x="322" y="-665.8" font-family="Nimbus Sans L" font-size="14.00">[STRING] path (0..1)</text>
</a>
</g>
<g id="a_node6_16"><a xlink:href="../IDMEFv1/Process.html" xlink:title="A command&#45;line argument to the program. Multiple arguments may be specified (they are assumed to have occurred in the same order they are provided) with multiple uses of arg.">
<polygon fill="none" stroke="black" points="318.5,-638 318.5,-659 450.5,-659 450.5,-638 318.5,-638"/>
<text text-anchor="start" x="326.5" y="-644.8" font-family="Nimbus Sans L" font-size="14.00">[STRING] arg (0..*)</text>
</a>
</g>
<g id="a_node6_17"><a xlink:href="../IDMEFv1/Process.html" xlink:title="An environment string associated with the process; generally of the format &quot;VARIABLE=value&quot;. &#160;Multiple environment strings may be specified with multiple uses of env.">
<polygon fill="none" stroke="black" points="318.5,-617 318.5,-638 450.5,-638 450.5,-617 318.5,-617"/>
<text text-anchor="start" x="325.5" y="-623.8" font-family="Nimbus Sans L" font-size="14.00">[STRING] env (0..*)</text>
</a>
</g>
<g id="a_node6_18"><a xlink:href="../IDMEFv1/Process.html" xlink:title="A unique identifier for the process; see Section 3.2.9.">
<polygon fill="none" stroke="black" points="318.5,-596 318.5,-617 450.5,-617 450.5,-596 318.5,-596"/>
<text text-anchor="start" x="332" y="-602.8" font-family="Nimbus Sans L" font-size="14.00">[] ident (Optional)</text>
</a>
</g>
</g>
<!-- Target&#45;&gt;Process -->
<g id="edge5" class="edge">
<title>Target&#45;&gt;Process</title>
<path fill="none" stroke="black" d="M174.27,-670C213.91,-670 260.75,-670 300.05,-670"/>
<polygon fill="black" stroke="black" points="300.13,-673.5 310.13,-670 300.13,-666.5 300.13,-673.5"/>
<text text-anchor="middle" x="206" y="-673.8" font-family="Times,serif" font-size="14.00">0..1</text>
</g>
<!-- Service -->
<g id="node7" class="node">
<title>Service</title>
<g id="a_node7_19"><a xlink:href="../IDMEFv1/Service.html" xlink:title="The Service class describes network services on sources and targets. It can identify services by name, port, and protocol. When Service occurs as an aggregate class of Source, it is understood that the service is one from which activity of interest is originating; and that the service is &quot;attached&quot; to the Node, Process, and User information also contained in Source. Likewise, when Service occurs as an aggregate class of Target, it is understood that the service is one to which activity of interest is being directed; and that the service is &quot;attached&quot; to the Node, Process, and User information also contained in Target. If Service occurs in both Source and Target, then information in both locations should be the same. If information is the same in both locations and implementers wish to carry it in only one location, they should specify it as an aggregate of the Target class. ">
<polygon fill="#cecece" stroke="transparent" points="246.5,-549 246.5,-570 523.5,-570 523.5,-549 246.5,-549"/>
<polygon fill="none" stroke="black" points="246.5,-549 246.5,-570 523.5,-570 523.5,-549 246.5,-549"/>
<text text-anchor="start" x="362" y="-555.8" font-family="Nimbus Sans L" font-size="14.00">Service</text>
</a>
</g>
<g id="a_node7_20"><a xlink:href="../IDMEFv1/Service.html" xlink:title="The name of the service. &#160;Whenever possible, the name from the IANA list of well&#45;known ports SHOULD be used.">
<polygon fill="none" stroke="black" points="246.5,-528 246.5,-549 523.5,-549 523.5,-528 246.5,-528"/>
<text text-anchor="start" x="318.5" y="-534.8" font-family="Nimbus Sans L" font-size="14.00">[STRING] name (0..1)</text>
</a>
</g>
<g id="a_node7_21"><a xlink:href="../IDMEFv1/Service.html" xlink:title="The port number being used.">
<polygon fill="none" stroke="black" points="246.5,-507 246.5,-528 523.5,-528 523.5,-507 246.5,-507"/>
<text text-anchor="start" x="319.5" y="-513.8" font-family="Nimbus Sans L" font-size="14.00">[INTEGER] port (0..1)</text>
</a>
</g>
<g id="a_node7_22"><a xlink:href="../IDMEFv1/Service.html" xlink:title="A list of port numbers being used; see Section 3.2.8 for formatting rules. &#160;If a portlist is given, the iana_protocol_number and iana_protocol_name MUST apply to all the elements of the list.">
<polygon fill="none" stroke="black" points="246.5,-486 246.5,-507 523.5,-507 523.5,-486 246.5,-486"/>
<text text-anchor="start" x="308" y="-492.8" font-family="Nimbus Sans L" font-size="14.00">[PORTLIST] portlist (0..1)</text>
</a>
</g>
<g id="a_node7_23"><a xlink:href="../IDMEFv1/Service.html" xlink:title="Additional information about the protocol being used. &#160;The intent of the protocol field is to carry additional information related to the protocol being used when the &lt;Service&gt; attributes iana_protocol_number or/and iana_protocol_name are filed.">
<polygon fill="none" stroke="black" points="246.5,-465 246.5,-486 523.5,-486 523.5,-465 246.5,-465"/>
<text text-anchor="start" x="311.5" y="-471.8" font-family="Nimbus Sans L" font-size="14.00">[STRING] protocol (0..1)</text>
</a>
</g>
<g id="a_node7_24"><a xlink:href="../IDMEFv1/Service.html" xlink:title="A unique identifier for the service; see Section 3.2.9.">
<polygon fill="none" stroke="black" points="246.5,-444 246.5,-465 523.5,-465 523.5,-444 246.5,-444"/>
<text text-anchor="start" x="332.5" y="-450.8" font-family="Nimbus Sans L" font-size="14.00">[] ident (Optional)</text>
</a>
</g>
<g id="a_node7_25"><a xlink:href="../IDMEFv1/Service.html" xlink:title="The IP version number.">
<polygon fill="none" stroke="black" points="246.5,-423 246.5,-444 523.5,-444 523.5,-423 246.5,-423"/>
<text text-anchor="start" x="286" y="-429.8" font-family="Nimbus Sans L" font-size="14.00">[INTEGER] ip_version (Optional)</text>
</a>
</g>
<g id="a_node7_26"><a xlink:href="../IDMEFv1/Service.html" xlink:title="The IANA protocol number.">
<polygon fill="none" stroke="black" points="246.5,-402 246.5,-423 523.5,-423 523.5,-402 246.5,-402"/>
<text text-anchor="start" x="249.5" y="-408.8" font-family="Nimbus Sans L" font-size="14.00">[INTEGER] iana_protocol_number (Optional)</text>
</a>
</g>
<g id="a_node7_27"><a xlink:href="../IDMEFv1/Service.html" xlink:title="The IANA protocol name.">
<polygon fill="none" stroke="black" points="246.5,-381 246.5,-402 523.5,-402 523.5,-381 246.5,-381"/>
<text text-anchor="start" x="260" y="-387.8" font-family="Nimbus Sans L" font-size="14.00">[STRING] iana_protocol_name (Optional)</text>
</a>
</g>
</g>
<!-- Target&#45;&gt;Service -->
<g id="edge6" class="edge">
<title>Target&#45;&gt;Service</title>
<path fill="none" stroke="black" d="M158.4,-623.78C179.95,-609.63 204.56,-593.48 229.4,-577.17"/>
<polygon fill="black" stroke="black" points="231.4,-580.05 237.83,-571.63 227.55,-574.19 231.4,-580.05"/>
<text text-anchor="middle" x="206" y="-604.8" font-family="Times,serif" font-size="14.00">0..1</text>
</g>
<!-- File -->
<g id="node8" class="node">
<title>File</title>
<g id="a_node8_28"><a xlink:href="../IDMEFv1/File.html" xlink:title="The File class provides specific information about a file or other file&#45;like object that has been created, deleted, or modified on the target. The description can provide either the file settings prior to the event or the file settings at the time of the event, as specified using the &quot;category&quot; attribute. ">
<polygon fill="#cecece" stroke="transparent" points="287.5,-334 287.5,-355 481.5,-355 481.5,-334 287.5,-334"/>
<polygon fill="none" stroke="black" points="287.5,-334 287.5,-355 481.5,-355 481.5,-334 287.5,-334"/>
<text text-anchor="start" x="373.5" y="-340.8" font-family="Nimbus Sans L" font-size="14.00">File</text>
</a>
</g>
<g id="a_node8_29"><a xlink:href="../IDMEFv1/File.html" xlink:title="The name of the file to which the alert applies, not including the path to the file.">
<polygon fill="none" stroke="black" points="287.5,-313 287.5,-334 481.5,-334 481.5,-313 287.5,-313"/>
<text text-anchor="start" x="325.5" y="-319.8" font-family="Nimbus Sans L" font-size="14.00">[STRING] name (1)</text>
</a>
</g>
<g id="a_node8_30"><a xlink:href="../IDMEFv1/File.html" xlink:title="The full path to the file, including the name. &#160;The path name should be represented in as &quot;universal&quot; a manner as possible, to facilitate processing of the alert.">
<polygon fill="none" stroke="black" points="287.5,-292 287.5,-313 481.5,-313 481.5,-292 287.5,-292"/>
<text text-anchor="start" x="329.5" y="-298.8" font-family="Nimbus Sans L" font-size="14.00">[STRING] path (1)</text>
</a>
</g>
<g id="a_node8_31"><a xlink:href="../IDMEFv1/File.html" xlink:title="Time the file was created. &#160;Note that this is *not* the Unix &quot;st_ctime&quot; file attribute (which is not file creation time). &#160;The Unix &quot;st_ctime&quot; attribute is contained in the &quot;Inode&quot; class.">
<polygon fill="none" stroke="black" points="287.5,-271 287.5,-292 481.5,-292 481.5,-271 287.5,-271"/>
<text text-anchor="start" x="292.5" y="-277.8" font-family="Nimbus Sans L" font-size="14.00">[DATETIME] create&#45;time (0..1)</text>
</a>
</g>
<g id="a_node8_32"><a xlink:href="../IDMEFv1/File.html" xlink:title="Time the file was last modified.">
<polygon fill="none" stroke="black" points="287.5,-250 287.5,-271 481.5,-271 481.5,-250 287.5,-250"/>
<text text-anchor="start" x="291" y="-256.8" font-family="Nimbus Sans L" font-size="14.00">[DATETIME] modify&#45;time (0..1)</text>
</a>
</g>
<g id="a_node8_33"><a xlink:href="../IDMEFv1/File.html" xlink:title="Time the file was last accessed.">
<polygon fill="none" stroke="black" points="287.5,-229 287.5,-250 481.5,-250 481.5,-229 287.5,-229"/>
<text text-anchor="start" x="290.5" y="-235.8" font-family="Nimbus Sans L" font-size="14.00">[DATETIME] access&#45;time (0..1)</text>
</a>
</g>
<g id="a_node8_34"><a xlink:href="../IDMEFv1/File.html" xlink:title="The size of the data, in bytes. &#160;Typically what is meant when referring to file size. &#160;On Unix UFS file systems, this value corresponds to stat.st_size. &#160;On Windows NTFS, this value corresponds to Valid Data Length (VDL).">
<polygon fill="none" stroke="black" points="287.5,-208 287.5,-229 481.5,-229 481.5,-208 287.5,-208"/>
<text text-anchor="start" x="303" y="-214.8" font-family="Nimbus Sans L" font-size="14.00">[INTEGER] data&#45;size (0..1)</text>
</a>
</g>
<g id="a_node8_35"><a xlink:href="../IDMEFv1/File.html" xlink:title="The physical space on disk consumed by the file, in bytes. &#160;On Unix UFS file systems, this value corresponds to 512 * stat.st_blocks. &#160;On Windows NTFS, this value corresponds to End of File (EOF).">
<polygon fill="none" stroke="black" points="287.5,-187 287.5,-208 481.5,-208 481.5,-187 287.5,-187"/>
<text text-anchor="start" x="304.5" y="-193.8" font-family="Nimbus Sans L" font-size="14.00">[INTEGER] disk&#45;size (0..1)</text>
</a>
</g>
<g id="a_node8_36"><a xlink:href="../IDMEFv1/File.html" xlink:title="A unique identifier for this file; see Section 3.2.9.">
<polygon fill="none" stroke="black" points="287.5,-166 287.5,-187 481.5,-187 481.5,-166 287.5,-166"/>
<text text-anchor="start" x="346.5" y="-172.8" font-family="Nimbus Sans L" font-size="14.00">[] ident (0..1)</text>
</a>
</g>
<g id="a_node8_37"><a xlink:href="../IDMEFv1/File.html" xlink:title="The type of file system the file resides on. &#160;This attribute governs how path names and other attributes are interpreted.">
<polygon fill="none" stroke="black" points="287.5,-145 287.5,-166 481.5,-166 481.5,-145 287.5,-145"/>
<text text-anchor="start" x="335" y="-151.8" font-family="Nimbus Sans L" font-size="14.00">[] category (0..1)</text>
</a>
</g>
<g id="a_node8_38"><a xlink:href="../IDMEFv1/File.html" xlink:title="The type of file, as a mime&#45;type.">
<polygon fill="none" stroke="black" points="287.5,-124 287.5,-145 481.5,-145 481.5,-124 287.5,-124"/>
<text text-anchor="start" x="337.5" y="-130.8" font-family="Nimbus Sans L" font-size="14.00">[] file&#45;type (0..1)</text>
</a>
</g>
</g>
<!-- Target&#45;&gt;File -->
<g id="edge13" class="edge">
<title>Target&#45;&gt;File</title>
<path fill="none" stroke="black" d="M104.4,-623.89C127.87,-561.81 175.22,-449.7 238,-368 248.2,-354.73 259.92,-341.79 272.2,-329.54"/>
<polygon fill="black" stroke="black" points="274.78,-331.91 279.48,-322.41 269.89,-326.9 274.78,-331.91"/>
<text text-anchor="middle" x="206" y="-440.8" font-family="Times,serif" font-size="14.00">0..1</text>
</g>
<!-- Address -->
<g id="node3" class="node">
<title>Address</title>
<g id="a_node3_39"><a xlink:href="../IDMEFv1/Address.html" xlink:title="The Address class is used to represent network, hardware, and application addresses. ">
<polygon fill="#cecece" stroke="transparent" points="779.5,-913 779.5,-934 953.5,-934 953.5,-913 779.5,-913"/>
<polygon fill="none" stroke="black" points="779.5,-913 779.5,-934 953.5,-934 953.5,-913 779.5,-913"/>
<text text-anchor="start" x="841.5" y="-919.8" font-family="Nimbus Sans L" font-size="14.00">Address</text>
</a>
</g>
<g id="a_node3_40"><a xlink:href="../IDMEFv1/Address.html" xlink:title="The address information. &#160;The format of this data is governed by the category attribute.">
<polygon fill="none" stroke="black" points="779.5,-892 779.5,-913 953.5,-913 953.5,-892 779.5,-892"/>
<text text-anchor="start" x="800.5" y="-898.8" font-family="Nimbus Sans L" font-size="14.00">[STRING] address (1)</text>
</a>
</g>
<g id="a_node3_41"><a xlink:href="../IDMEFv1/Address.html" xlink:title="The network mask for the address, if appropriate.">
<polygon fill="none" stroke="black" points="779.5,-871 779.5,-892 953.5,-892 953.5,-871 779.5,-871"/>
<text text-anchor="start" x="791" y="-877.8" font-family="Nimbus Sans L" font-size="14.00">[STRING] netmask (0..1)</text>
</a>
</g>
<g id="a_node3_42"><a xlink:href="../IDMEFv1/Address.html" xlink:title="A unique identifier for the address; see Section 3.2.9.">
<polygon fill="none" stroke="black" points="779.5,-850 779.5,-871 953.5,-871 953.5,-850 779.5,-850"/>
<text text-anchor="start" x="814" y="-856.8" font-family="Nimbus Sans L" font-size="14.00">[] ident (Optional)</text>
</a>
</g>
<g id="a_node3_43"><a xlink:href="../IDMEFv1/Address.html" xlink:title="The type of address represented. &#160;The permitted values for this attribute are shown below. &#160;The default value is &quot;unknown&quot;. &#160;(See also Section 10.)">
<polygon fill="none" stroke="black" points="779.5,-829 779.5,-850 953.5,-850 953.5,-829 779.5,-829"/>
<text text-anchor="start" x="782.5" y="-835.8" font-family="Nimbus Sans L" font-size="14.00">[ENUM] category (Optional)</text>
</a>
</g>
<g id="a_node3_44"><a xlink:href="../IDMEFv1/Address.html" xlink:title="The name of the Virtual LAN to which the address belongs.">
<polygon fill="none" stroke="black" points="779.5,-808 779.5,-829 953.5,-829 953.5,-808 779.5,-808"/>
<text text-anchor="start" x="797" y="-814.8" font-family="Nimbus Sans L" font-size="14.00">[] vlan&#45;name (Optional)</text>
</a>
</g>
<g id="a_node3_45"><a xlink:href="../IDMEFv1/Address.html" xlink:title="The number of the Virtual LAN to which the address belongs.">
<polygon fill="none" stroke="black" points="779.5,-787 779.5,-808 953.5,-808 953.5,-787 779.5,-787"/>
<text text-anchor="start" x="800.5" y="-793.8" font-family="Nimbus Sans L" font-size="14.00">[] vlan&#45;num (Optional)</text>
</a>
</g>
</g>
<!-- Node&#45;&gt;Address -->
<g id="edge1" class="edge">
<title>Node&#45;&gt;Address</title>
<path fill="none" stroke="black" d="M479.76,-861C560.83,-861 677.6,-861 761.4,-861"/>
<polygon fill="black" stroke="black" points="761.46,-864.5 771.46,-861 761.46,-857.5 761.46,-864.5"/>
<text text-anchor="middle" x="644" y="-864.8" font-family="Times,serif" font-size="14.00">0..*</text>
</g>
<!-- UserId -->
<g id="node5" class="node">
<title>UserId</title>
<g id="a_node5_46"><a xlink:href="../IDMEFv1/UserId.html" xlink:title="The UserId class provides specific information about a user. More than one UserId can be used within the User class to indicate attempts to transition from one user to another, or to provide complete information about a user&#39;s (or process&#39;) privileges. ">
<polygon fill="#cecece" stroke="transparent" points="1030,-627 1030,-648 1190,-648 1190,-627 1030,-627"/>
<polygon fill="none" stroke="black" points="1030,-627 1030,-648 1190,-648 1190,-627 1030,-627"/>
<text text-anchor="start" x="1090" y="-633.8" font-family="Nimbus Sans L" font-size="14.00">UserId</text>
</a>
</g>
<g id="a_node5_47"><a xlink:href="../IDMEFv1/UserId.html" xlink:title="A user or group name.">
<polygon fill="none" stroke="black" points="1030,-606 1030,-627 1190,-627 1190,-606 1030,-606"/>
<text text-anchor="start" x="1043.5" y="-612.8" font-family="Nimbus Sans L" font-size="14.00">[STRING] name (0..1)</text>
</a>
</g>
<g id="a_node5_48"><a xlink:href="../IDMEFv1/UserId.html" xlink:title="A user or group number.">
<polygon fill="none" stroke="black" points="1030,-585 1030,-606 1190,-606 1190,-585 1030,-585"/>
<text text-anchor="start" x="1033" y="-591.8" font-family="Nimbus Sans L" font-size="14.00">[INTEGER] number (0..1)</text>
</a>
</g>
<g id="a_node5_49"><a xlink:href="../IDMEFv1/UserId.html" xlink:title="A unique identifier for the user id, see Section 3.2.9.">
<polygon fill="none" stroke="black" points="1030,-564 1030,-585 1190,-585 1190,-564 1030,-564"/>
<text text-anchor="start" x="1057.5" y="-570.8" font-family="Nimbus Sans L" font-size="14.00">[] ident (Optional)</text>
</a>
</g>
<g id="a_node5_50"><a xlink:href="../IDMEFv1/UserId.html" xlink:title="The type of user information represented. &#160;The permitted values for this attribute are shown below. &#160;The default value is &quot;original&#45;user&quot;. &#160;(See also Section 10.)">
<polygon fill="none" stroke="black" points="1030,-543 1030,-564 1190,-564 1190,-543 1030,-543"/>
<text text-anchor="start" x="1039" y="-549.8" font-family="Nimbus Sans L" font-size="14.00">[ENUM] type (Optional)</text>
</a>
</g>
<g id="a_node5_51"><a xlink:href="../IDMEFv1/UserId.html" xlink:title="The tty the user is using.">
<polygon fill="none" stroke="black" points="1030,-522 1030,-543 1190,-543 1190,-522 1030,-522"/>
<text text-anchor="start" x="1039" y="-528.8" font-family="Nimbus Sans L" font-size="14.00">[STRING] tty (Optional)</text>
</a>
</g>
</g>
<!-- User&#45;&gt;UserId -->
<g id="edge3" class="edge">
<title>User&#45;&gt;UserId</title>
<path fill="none" stroke="black" d="M739.18,-699.77C818.59,-675.13 931.81,-639.99 1012.01,-615.1"/>
<polygon fill="black" stroke="black" points="1013.11,-618.42 1021.63,-612.12 1011.04,-611.74 1013.11,-618.42"/>
<text text-anchor="middle" x="866.5" y="-695.8" font-family="Times,serif" font-size="14.00">1..*</text>
</g>
<!-- FileAccess -->
<g id="node9" class="node">
<title>FileAccess</title>
<g id="a_node9_52"><a xlink:href="../IDMEFv1/FileAccess.html" xlink:title="The FileAccess class represents the access permissions on a file. The representation is intended to be useful across operating systems. ">
<polygon fill="#cecece" stroke="transparent" points="787.5,-487 787.5,-508 946.5,-508 946.5,-487 787.5,-487"/>
<polygon fill="none" stroke="black" points="787.5,-487 787.5,-508 946.5,-508 946.5,-487 787.5,-487"/>
<text text-anchor="start" x="834" y="-493.8" font-family="Nimbus Sans L" font-size="14.00">FileAccess</text>
</a>
</g>
<g id="a_node9_53"><a xlink:href="../IDMEFv1/FileAccess.html" xlink:title="Level of access allowed. &#160;The permitted values are shown below. &#160;There is no default value. &#160;(See also Section 10.)">
<polygon fill="none" stroke="black" points="787.5,-466 787.5,-487 946.5,-487 946.5,-466 787.5,-466"/>
<text text-anchor="start" x="790.5" y="-472.8" font-family="Nimbus Sans L" font-size="14.00">[ENUM] Permission (1..*)</text>
</a>
</g>
</g>
<!-- File&#45;&gt;FileAccess -->
<g id="edge8" class="edge">
<title>File&#45;&gt;FileAccess</title>
<path fill="none" stroke="black" d="M489.61,-300.54C509.22,-311.57 529.64,-322.8 549,-333 635.56,-378.62 737.66,-427.42 802,-457.57"/>
<polygon fill="black" stroke="black" points="800.67,-460.82 811.21,-461.89 803.64,-454.48 800.67,-460.82"/>
<text text-anchor="middle" x="644" y="-430.8" font-family="Times,serif" font-size="14.00">0..*</text>
</g>
<!-- Linkage -->
<g id="node10" class="node">
<title>Linkage</title>
<g id="a_node10_54"><a xlink:href="../IDMEFv1/Linkage.html" xlink:title="The Linkage class represents file system connections between the file described in the &lt;File&gt; element and other objects in the file system. For example, if the &lt;File&gt; element is a symbolic link or shortcut, then the &lt;Linkage&gt; element should contain the name of the object the link points to. Further information can be provided about the object in the &lt;Linkage&gt; element with another &lt;File&gt; element, if appropriate. ">
<polygon fill="#cecece" stroke="transparent" points="804.5,-351 804.5,-372 928.5,-372 928.5,-351 804.5,-351"/>
<polygon fill="none" stroke="black" points="804.5,-351 804.5,-372 928.5,-372 928.5,-351 804.5,-351"/>
<text text-anchor="start" x="842.5" y="-357.8" font-family="Nimbus Sans L" font-size="14.00">Linkage</text>
</a>
</g>
<g id="a_node10_55"><a xlink:href="../IDMEFv1/Linkage.html" xlink:title="The name of the file system object, not including the path.">
<polygon fill="none" stroke="black" points="804.5,-330 804.5,-351 928.5,-351 928.5,-330 804.5,-330"/>
<text text-anchor="start" x="807.5" y="-336.8" font-family="Nimbus Sans L" font-size="14.00">[STRING] name (1)</text>
</a>
</g>
<g id="a_node10_56"><a xlink:href="../IDMEFv1/Linkage.html" xlink:title="The full path to the file system object, including the name. &#160;The path name should be represented in as &quot;universal&quot; a manner as possible, to facilitate processing of the alert.">
<polygon fill="none" stroke="black" points="804.5,-309 804.5,-330 928.5,-330 928.5,-309 804.5,-309"/>
<text text-anchor="start" x="811.5" y="-315.8" font-family="Nimbus Sans L" font-size="14.00">[STRING] path (1)</text>
</a>
</g>
<g id="a_node10_57"><a xlink:href="../IDMEFv1/Linkage.html" xlink:title="Section 10.)">
<polygon fill="none" stroke="black" points="804.5,-288 804.5,-309 928.5,-309 928.5,-288 804.5,-288"/>
<text text-anchor="start" x="808" y="-294.8" font-family="Nimbus Sans L" font-size="14.00">[ENUM] category ()</text>
</a>
</g>
</g>
<!-- File&#45;&gt;Linkage -->
<g id="edge10" class="edge">
<title>File&#45;&gt;Linkage</title>
<path fill="none" stroke="black" d="M489.8,-268.47C509.39,-273.34 529.76,-278.08 549,-282 629.25,-298.35 721.99,-311.78 786.24,-320.24"/>
<polygon fill="black" stroke="black" points="785.94,-323.73 796.31,-321.55 786.84,-316.79 785.94,-323.73"/>
<text text-anchor="middle" x="644" y="-317.8" font-family="Times,serif" font-size="14.00">0..*</text>
</g>
<!-- Inode -->
<g id="node11" class="node">
<title>Inode</title>
<g id="a_node11_58"><a xlink:href="../IDMEFv1/Inode.html" xlink:title="The Inode class is used to represent the additional information contained in a Unix file system i&#45;node. ">
<polygon fill="#cecece" stroke="transparent" points="765.5,-240 765.5,-261 968.5,-261 968.5,-240 765.5,-240"/>
<polygon fill="none" stroke="black" points="765.5,-240 765.5,-261 968.5,-261 968.5,-240 765.5,-240"/>
<text text-anchor="start" x="850" y="-246.8" font-family="Nimbus Sans L" font-size="14.00">Inode</text>
</a>
</g>
<g id="a_node11_59"><a xlink:href="../IDMEFv1/Inode.html" xlink:title="The time of the last inode change, given by the st_ctime element of &quot;struct stat&quot;.">
<polygon fill="none" stroke="black" points="765.5,-219 765.5,-240 968.5,-240 968.5,-219 765.5,-219"/>
<text text-anchor="start" x="772" y="-225.8" font-family="Nimbus Sans L" font-size="14.00">[DATETIME] change&#45;time (0..1)</text>
</a>
</g>
<g id="a_node11_60"><a xlink:href="../IDMEFv1/Inode.html" xlink:title="The inode number.">
<polygon fill="none" stroke="black" points="765.5,-198 765.5,-219 968.5,-219 968.5,-198 765.5,-198"/>
<text text-anchor="start" x="790" y="-204.8" font-family="Nimbus Sans L" font-size="14.00">[INTEGER] number (0..1)</text>
</a>
</g>
<g id="a_node11_61"><a xlink:href="../IDMEFv1/Inode.html" xlink:title="The major device number of the device the file resides on.">
<polygon fill="none" stroke="black" points="765.5,-177 765.5,-198 968.5,-198 968.5,-177 765.5,-177"/>
<text text-anchor="start" x="774" y="-183.8" font-family="Nimbus Sans L" font-size="14.00">[INTEGER] major&#45;device (0..1)</text>
</a>
</g>
<g id="a_node11_62"><a xlink:href="../IDMEFv1/Inode.html" xlink:title="The minor device number of the device the file resides on.">
<polygon fill="none" stroke="black" points="765.5,-156 765.5,-177 968.5,-177 968.5,-156 765.5,-156"/>
<text text-anchor="start" x="774" y="-162.8" font-family="Nimbus Sans L" font-size="14.00">[INTEGER] minor&#45;device (0..1)</text>
</a>
</g>
<g id="a_node11_63"><a xlink:href="../IDMEFv1/Inode.html" xlink:title="The major device of the file itself, if it is a character special device.">
<polygon fill="none" stroke="black" points="765.5,-135 765.5,-156 968.5,-156 968.5,-135 765.5,-135"/>
<text text-anchor="start" x="768.5" y="-141.8" font-family="Nimbus Sans L" font-size="14.00">[INTEGER] c&#45;major&#45;device (0..1)</text>
</a>
</g>
<g id="a_node11_64"><a xlink:href="../IDMEFv1/Inode.html" xlink:title="The minor device of the file itself, if it is a character special device.">
<polygon fill="none" stroke="black" points="765.5,-114 765.5,-135 968.5,-135 968.5,-114 765.5,-114"/>
<text text-anchor="start" x="768.5" y="-120.8" font-family="Nimbus Sans L" font-size="14.00">[INTEGER] c&#45;minor&#45;device (0..1)</text>
</a>
</g>
</g>
<!-- File&#45;&gt;Inode -->
<g id="edge11" class="edge">
<title>File&#45;&gt;Inode</title>
<path fill="none" stroke="black" d="M489.61,-223.8C509.31,-221 529.77,-218.26 549,-216 614.25,-208.33 687.3,-201.74 746.76,-196.88"/>
<polygon fill="black" stroke="black" points="747.26,-200.35 756.94,-196.05 746.69,-193.37 747.26,-200.35"/>
<text text-anchor="middle" x="644" y="-219.8" font-family="Times,serif" font-size="14.00">0..1</text>
</g>
<!-- Checksum -->
<g id="node12" class="node">
<title>Checksum</title>
<g id="a_node12_65"><a xlink:href="../IDMEFv1/Checksum.html" xlink:title="The Checksum class represents checksum information associated with the file. This checksum information can be provided by file integrity checkers, among others. ">
<polygon fill="#cecece" stroke="transparent" points="803.5,-67 803.5,-88 930.5,-88 930.5,-67 803.5,-67"/>
<polygon fill="none" stroke="black" points="803.5,-67 803.5,-88 930.5,-88 930.5,-67 803.5,-67"/>
<text text-anchor="start" x="834.5" y="-73.8" font-family="Nimbus Sans L" font-size="14.00">Checksum</text>
</a>
</g>
<g id="a_node12_66"><a xlink:href="../IDMEFv1/Checksum.html" xlink:title="The value of the checksum.">
<polygon fill="none" stroke="black" points="803.5,-46 803.5,-67 930.5,-67 930.5,-46 803.5,-46"/>
<text text-anchor="start" x="809" y="-52.8" font-family="Nimbus Sans L" font-size="14.00">[STRING] value (1)</text>
</a>
</g>
<g id="a_node12_67"><a xlink:href="../IDMEFv1/Checksum.html" xlink:title="The key to the checksum, if appropriate.">
<polygon fill="none" stroke="black" points="803.5,-25 803.5,-46 930.5,-46 930.5,-25 803.5,-25"/>
<text text-anchor="start" x="807" y="-31.8" font-family="Nimbus Sans L" font-size="14.00">[STRING] key (0..1)</text>
</a>
</g>
<g id="a_node12_68"><a xlink:href="../IDMEFv1/Checksum.html" xlink:title="default value. &#160;(See also Section 10.)">
<polygon fill="none" stroke="black" points="803.5,-4 803.5,-25 930.5,-25 930.5,-4 803.5,-4"/>
<text text-anchor="start" x="806.5" y="-10.8" font-family="Nimbus Sans L" font-size="14.00">[ENUM] algorithm ()</text>
</a>
</g>
</g>
<!-- File&#45;&gt;Checksum -->
<g id="edge12" class="edge">
<title>File&#45;&gt;Checksum</title>
<path fill="none" stroke="black" d="M489.65,-197.9C578.41,-162.03 704.14,-111.22 785.25,-78.43"/>
<polygon fill="black" stroke="black" points="786.96,-81.52 794.92,-74.53 784.34,-75.03 786.96,-81.52"/>
<text text-anchor="middle" x="644" y="-175.8" font-family="Times,serif" font-size="14.00">0..*</text>
</g>
<!-- FileAccess&#45;&gt;UserId -->
<g id="edge7" class="edge">
<title>FileAccess&#45;&gt;UserId</title>
<path fill="none" stroke="black" d="M929.38,-512.11C954.62,-522.35 984.4,-534.44 1012.37,-545.79"/>
<polygon fill="black" stroke="black" points="1011.2,-549.09 1021.78,-549.61 1013.83,-542.6 1011.2,-549.09"/>
<text text-anchor="middle" x="999" y="-544.8" font-family="Times,serif" font-size="14.00">1</text>
</g>
<!-- Linkage&#45;&gt;File -->
<g id="edge9" class="edge">
<title>Linkage&#45;&gt;File</title>
<path fill="none" stroke="black" d="M796.39,-294.18C770.44,-281 745.59,-268.82 739,-267 661.1,-245.51 570.12,-238.96 499.97,-237.68"/>
<polygon fill="black" stroke="black" points="499.83,-234.18 489.78,-237.53 499.72,-241.18 499.83,-234.18"/>
<text text-anchor="middle" x="644" y="-270.8" font-family="Times,serif" font-size="14.00">1</text>
</g>
</g>
</svg>
