<?xml version="1.0" encoding="UTF-8" standalone="no"?>
<!DOCTYPE svg PUBLIC "-//W3C//DTD SVG 1.1//EN"
 "http://www.w3.org/Graphics/SVG/1.1/DTD/svg11.dtd">
<!-- Generated by graphviz version 2.43.0 (0)
 -->
<!-- Title: UserId Pages: 1 -->
<svg width="184pt" height="142pt"
 viewBox="0.00 0.00 184.00 142.00" xmlns="http://www.w3.org/2000/svg" xmlns:xlink="http://www.w3.org/1999/xlink">
<g id="graph0" class="graph" transform="scale(1 1) rotate(0) translate(4 138)">
<title>UserId</title>
<polygon fill="white" stroke="transparent" points="-4,4 -4,-138 180,-138 180,4 -4,4"/>
<!-- UserId -->
<g id="node1" class="node">
<title>UserId</title>
<g id="a_node1_0"><a xlink:href="../IDMEFv1/UserId.html" xlink:title="The UserId class provides specific information about a user. More than one UserId can be used within the User class to indicate attempts to transition from one user to another, or to provide complete information about a user&#39;s (or process&#39;) privileges. ">
<polygon fill="#cecece" stroke="transparent" points="8,-109 8,-130 168,-130 168,-109 8,-109"/>
<polygon fill="none" stroke="black" points="8,-109 8,-130 168,-130 168,-109 8,-109"/>
<text text-anchor="start" x="68" y="-115.8" font-family="Nimbus Sans L" font-size="14.00">UserId</text>
</a>
</g>
<g id="a_node1_1"><a xlink:href="../IDMEFv1/UserId.html" xlink:title="A user or group name.">
<polygon fill="none" stroke="black" points="8,-88 8,-109 168,-109 168,-88 8,-88"/>
<text text-anchor="start" x="21.5" y="-94.8" font-family="Nimbus Sans L" font-size="14.00">[STRING] name (0..1)</text>
</a>
</g>
<g id="a_node1_2"><a xlink:href="../IDMEFv1/UserId.html" xlink:title="A user or group number.">
<polygon fill="none" stroke="black" points="8,-67 8,-88 168,-88 168,-67 8,-67"/>
<text text-anchor="start" x="11" y="-73.8" font-family="Nimbus Sans L" font-size="14.00">[INTEGER] number (0..1)</text>
</a>
</g>
<g id="a_node1_3"><a xlink:href="../IDMEFv1/UserId.html" xlink:title="A unique identifier for the user id, see Section 3.2.9.">
<polygon fill="none" stroke="black" points="8,-46 8,-67 168,-67 168,-46 8,-46"/>
<text text-anchor="start" x="35.5" y="-52.8" font-family="Nimbus Sans L" font-size="14.00">[] ident (Optional)</text>
</a>
</g>
<g id="a_node1_4"><a xlink:href="../IDMEFv1/UserId.html" xlink:title="The type of user information represented. &#160;The permitted values for this attribute are shown below. &#160;The default value is &quot;original&#45;user&quot;. &#160;(See also Section 10.)">
<polygon fill="none" stroke="black" points="8,-25 8,-46 168,-46 168,-25 8,-25"/>
<text text-anchor="start" x="17" y="-31.8" font-family="Nimbus Sans L" font-size="14.00">[ENUM] type (Optional)</text>
</a>
</g>
<g id="a_node1_5"><a xlink:href="../IDMEFv1/UserId.html" xlink:title="The tty the user is using.">
<polygon fill="none" stroke="black" points="8,-4 8,-25 168,-25 168,-4 8,-4"/>
<text text-anchor="start" x="17" y="-10.8" font-family="Nimbus Sans L" font-size="14.00">[STRING] tty (Optional)</text>
</a>
</g>
</g>
</g>
</svg>
