<?xml version="1.0" encoding="UTF-8" standalone="no"?>
<!DOCTYPE svg PUBLIC "-//W3C//DTD SVG 1.1//EN"
 "http://www.w3.org/Graphics/SVG/1.1/DTD/svg11.dtd">
<!-- Generated by graphviz version 2.43.0 (0)
 -->
<!-- Title: WebService Pages: 1 -->
<svg width="202pt" height="121pt"
 viewBox="0.00 0.00 202.00 121.00" xmlns="http://www.w3.org/2000/svg" xmlns:xlink="http://www.w3.org/1999/xlink">
<g id="graph0" class="graph" transform="scale(1 1) rotate(0) translate(4 117)">
<title>WebService</title>
<polygon fill="white" stroke="transparent" points="-4,4 -4,-117 198,-117 198,4 -4,4"/>
<!-- WebService -->
<g id="node1" class="node">
<title>WebService</title>
<g id="a_node1_0"><a xlink:href="../IDMEFv1/WebService.html" xlink:title="The WebService class carries additional information related to web traffic. ">
<polygon fill="#cecece" stroke="transparent" points="8,-87.5 8,-108.5 186,-108.5 186,-87.5 8,-87.5"/>
<polygon fill="none" stroke="black" points="8,-87.5 8,-108.5 186,-108.5 186,-87.5 8,-87.5"/>
<text text-anchor="start" x="60.5" y="-94.3" font-family="Nimbus Sans L" font-size="14.00">WebService</text>
</a>
</g>
<g id="a_node1_1"><a xlink:href="../IDMEFv1/WebService.html" xlink:title="The URL in the request.">
<polygon fill="none" stroke="black" points="8,-66.5 8,-87.5 186,-87.5 186,-66.5 8,-66.5"/>
<text text-anchor="start" x="47.5" y="-73.3" font-family="Nimbus Sans L" font-size="14.00">[STRING] url (1)</text>
</a>
</g>
<g id="a_node1_2"><a xlink:href="../IDMEFv1/WebService.html" xlink:title="The CGI script in the request, without arguments.">
<polygon fill="none" stroke="black" points="8,-45.5 8,-66.5 186,-66.5 186,-45.5 8,-45.5"/>
<text text-anchor="start" x="39" y="-52.3" font-family="Nimbus Sans L" font-size="14.00">[STRING] cgi (0..1)</text>
</a>
</g>
<g id="a_node1_3"><a xlink:href="../IDMEFv1/WebService.html" xlink:title="The HTTP method (PUT, GET) used in the request.">
<polygon fill="none" stroke="black" points="8,-24.5 8,-45.5 186,-45.5 186,-24.5 8,-24.5"/>
<text text-anchor="start" x="11" y="-31.3" font-family="Nimbus Sans L" font-size="14.00">[STRING] http&#45;method (0..1)</text>
</a>
</g>
<g id="a_node1_4"><a xlink:href="../IDMEFv1/WebService.html" xlink:title="The arguments to the CGI script.">
<polygon fill="none" stroke="black" points="8,-3.5 8,-24.5 186,-24.5 186,-3.5 8,-3.5"/>
<text text-anchor="start" x="39" y="-10.3" font-family="Nimbus Sans L" font-size="14.00">[STRING] arg (0..*)</text>
</a>
</g>
</g>
</g>
</svg>
