<?xml version="1.0" encoding="UTF-8" standalone="no"?>
<!DOCTYPE svg PUBLIC "-//W3C//DTD SVG 1.1//EN"
 "http://www.w3.org/Graphics/SVG/1.1/DTD/svg11.dtd">
<!-- Generated by graphviz version 2.43.0 (0)
 -->
<!-- Title: Alert Pages: 1 -->
<svg width="452pt" height="1728pt"
 viewBox="0.00 0.00 452.00 1727.50" xmlns="http://www.w3.org/2000/svg" xmlns:xlink="http://www.w3.org/1999/xlink">
<g id="graph0" class="graph" transform="scale(1 1) rotate(0) translate(4 1723.5)">
<title>Alert</title>
<polygon fill="white" stroke="transparent" points="-4,4 -4,-1723.5 448,-1723.5 448,4 -4,4"/>
<!-- Alert -->
<g id="node1" class="node">
<title>Alert</title>
<g id="a_node1_0"><a xlink:href="../IDMEFv2/Alert.html" xlink:title="The Alert class contains high level information about the event that triggered the alert. ">
<polygon fill="#cecece" stroke="transparent" points="8,-996.5 8,-1017.5 174,-1017.5 174,-996.5 8,-996.5"/>
<polygon fill="none" stroke="black" points="8,-996.5 8,-1017.5 174,-1017.5 174,-996.5 8,-996.5"/>
<text text-anchor="start" x="77" y="-1003.3" font-family="Nimbus Sans L" font-size="14.00">Alert</text>
</a>
</g>
<g id="a_node1_1"><a xlink:href="../IDMEFv2/Alert.html" xlink:title="The version of the IDMEF format in use by this alert.">
<polygon fill="none" stroke="black" points="8,-975.5 8,-996.5 174,-996.5 174,-975.5 8,-975.5"/>
<text text-anchor="start" x="24" y="-982.3" font-family="Nimbus Sans L" font-size="14.00">[Mandatory] Version ()</text>
</a>
</g>
<g id="a_node1_2"><a xlink:href="../IDMEFv2/Alert.html" xlink:title="Unique identifier for the alert.">
<polygon fill="none" stroke="black" points="8,-954.5 8,-975.5 174,-975.5 174,-954.5 8,-954.5"/>
<text text-anchor="start" x="39.5" y="-961.3" font-family="Nimbus Sans L" font-size="14.00">[Mandatory] ID ()</text>
</a>
</g>
<g id="a_node1_3"><a xlink:href="../IDMEFv2/Alert.html" xlink:title="Tenant ID to support multi&#45;tenancy (e.g. decentralized infrastructure, local agency, subsidiary company, etc.).">
<polygon fill="none" stroke="black" points="8,-933.5 8,-954.5 174,-954.5 174,-933.5 8,-933.5"/>
<text text-anchor="start" x="36.5" y="-940.3" font-family="Nimbus Sans L" font-size="14.00">[] Entity (Optional)</text>
</a>
</g>
<g id="a_node1_4"><a xlink:href="../IDMEFv2/Alert.html" xlink:title="The incident&#39;s category &amp; subcategory as listed in [ENISA&#45;RIST] using the format &quot;category.subcategory&quot; (e.g. &quot;Attempt.Exploit&quot;).">
<polygon fill="none" stroke="black" points="8,-912.5 8,-933.5 174,-933.5 174,-912.5 8,-912.5"/>
<text text-anchor="start" x="26" y="-919.3" font-family="Nimbus Sans L" font-size="14.00">[] Category (Optional)</text>
</a>
</g>
<g id="a_node1_5"><a xlink:href="../IDMEFv2/Alert.html" xlink:title="Alert cause, if known at the time of detection.">
<polygon fill="none" stroke="black" points="8,-891.5 8,-912.5 174,-912.5 174,-891.5 8,-891.5"/>
<text text-anchor="start" x="33.5" y="-898.3" font-family="Nimbus Sans L" font-size="14.00">[] Cause (Optional)</text>
</a>
</g>
<g id="a_node1_6"><a xlink:href="../IDMEFv2/Alert.html" xlink:title="Short free text human&#45;readable description.">
<polygon fill="none" stroke="black" points="8,-870.5 8,-891.5 174,-891.5 174,-870.5 8,-870.5"/>
<text text-anchor="start" x="19.5" y="-877.3" font-family="Nimbus Sans L" font-size="14.00">[] Description (Optional)</text>
</a>
</g>
<g id="a_node1_7"><a xlink:href="../IDMEFv2/Alert.html" xlink:title="Expires 18 April 2023 &#160;&#160;&#160;&#160;&#160;&#160;&#160;&#160;&#160;&#160;&#160;&#160;&#160;&#160;&#160;[Page 28]">
<polygon fill="none" stroke="black" points="8,-849.5 8,-870.5 174,-870.5 174,-849.5 8,-849.5"/>
<text text-anchor="start" x="59.5" y="-856.3" font-family="Nimbus Sans L" font-size="14.00">[] Status ()</text>
</a>
</g>
<g id="a_node1_8"><a xlink:href="../IDMEFv2/Alert.html" xlink:title="Severity of the alert.">
<polygon fill="none" stroke="black" points="8,-828.5 8,-849.5 174,-849.5 174,-828.5 8,-828.5"/>
<text text-anchor="start" x="29" y="-835.3" font-family="Nimbus Sans L" font-size="14.00">[] Severity (Optional)</text>
</a>
</g>
<g id="a_node1_9"><a xlink:href="../IDMEFv2/Alert.html" xlink:title="A floating&#45;point value between 0 and 1 indicating the analyzer&#39;s confidence in its own reliability of this particular detection, where 0 means that the detection is surely incorrect while 1 means there is no doubt about the detection made.">
<polygon fill="none" stroke="black" points="8,-807.5 8,-828.5 174,-828.5 174,-807.5 8,-807.5"/>
<text text-anchor="start" x="19" y="-814.3" font-family="Nimbus Sans L" font-size="14.00">[] Confidence (Optional)</text>
</a>
</g>
<g id="a_node1_10"><a xlink:href="../IDMEFv2/Alert.html" xlink:title="Free text human&#45;readable additional note, possibly a longer description of the incident if is not already obvious.">
<polygon fill="none" stroke="black" points="8,-786.5 8,-807.5 174,-807.5 174,-786.5 8,-786.5"/>
<text text-anchor="start" x="39" y="-793.3" font-family="Nimbus Sans L" font-size="14.00">[] Note (Optional)</text>
</a>
</g>
<g id="a_node1_11"><a xlink:href="../IDMEFv2/Alert.html" xlink:title="events.">
<polygon fill="none" stroke="black" points="8,-765.5 8,-786.5 174,-786.5 174,-765.5 8,-765.5"/>
<text text-anchor="start" x="43" y="-772.3" font-family="Nimbus Sans L" font-size="14.00">[] CreateTime ()</text>
</a>
</g>
<g id="a_node1_12"><a xlink:href="../IDMEFv2/Alert.html" xlink:title="Timestamp indicating the deduced start of the event.">
<polygon fill="none" stroke="black" points="8,-744.5 8,-765.5 174,-765.5 174,-744.5 8,-744.5"/>
<text text-anchor="start" x="23.5" y="-751.3" font-family="Nimbus Sans L" font-size="14.00">[] StartTime (Optional)</text>
</a>
</g>
<g id="a_node1_13"><a xlink:href="../IDMEFv2/Alert.html" xlink:title="Timestamp indicating the deduced end of the event.">
<polygon fill="none" stroke="black" points="8,-723.5 8,-744.5 174,-744.5 174,-723.5 8,-723.5"/>
<text text-anchor="start" x="18.5" y="-730.3" font-family="Nimbus Sans L" font-size="14.00">[] CeaseTime (Optional)</text>
</a>
</g>
<g id="a_node1_14"><a xlink:href="../IDMEFv2/Alert.html" xlink:title="Timestamp indicating when the message must be deleted.">
<polygon fill="none" stroke="black" points="8,-702.5 8,-723.5 174,-723.5 174,-702.5 8,-702.5"/>
<text text-anchor="start" x="18.5" y="-709.3" font-family="Nimbus Sans L" font-size="14.00">[] DeleteTime (Optional)</text>
</a>
</g>
<g id="a_node1_15"><a xlink:href="../IDMEFv2/Alert.html" xlink:title="Alternative identifiers; strings which help pair the event to internal systems&#39; information (for example ticket IDs inside a request tracking systems).">
<polygon fill="none" stroke="black" points="8,-681.5 8,-702.5 174,-702.5 174,-681.5 8,-681.5"/>
<text text-anchor="start" x="24" y="-688.3" font-family="Nimbus Sans L" font-size="14.00">[] AltNames (Optional)</text>
</a>
</g>
<g id="a_node1_16"><a xlink:href="../IDMEFv2/Alert.html" xlink:title="Alternate categories from a reference other than [ENISA&#45;RIST] (e.g. &#160;MISP, MITRE ATT@CK or another proprietary/ internal reference).">
<polygon fill="none" stroke="black" points="8,-660.5 8,-681.5 174,-681.5 174,-660.5 8,-660.5"/>
<text text-anchor="start" x="18.5" y="-667.3" font-family="Nimbus Sans L" font-size="14.00">[] AltCategory (Optional)</text>
</a>
</g>
<g id="a_node1_17"><a xlink:href="../IDMEFv2/Alert.html" xlink:title="References to sources of information related to the alert and/or vulnerability, and specific to this alert.">
<polygon fill="none" stroke="black" points="8,-639.5 8,-660.5 174,-660.5 174,-639.5 8,-639.5"/>
<text text-anchor="start" x="42.5" y="-646.3" font-family="Nimbus Sans L" font-size="14.00">[] Ref (Optional)</text>
</a>
</g>
<g id="a_node1_18"><a xlink:href="../IDMEFv2/Alert.html" xlink:title="Identifiers for the messages which were used as information sources to create this message, in case the message has been created based on correlation/analysis/deduction from other messages.">
<polygon fill="none" stroke="black" points="8,-618.5 8,-639.5 174,-639.5 174,-618.5 8,-618.5"/>
<text text-anchor="start" x="28" y="-625.3" font-family="Nimbus Sans L" font-size="14.00">[] CorrelID (Optional)</text>
</a>
</g>
<g id="a_node1_19"><a xlink:href="../IDMEFv2/Alert.html" xlink:title="A list of IDMEF fields used to aggregate events. &#160;The values for these fields will be the same in all aggregated events.">
<polygon fill="none" stroke="black" points="8,-597.5 8,-618.5 174,-618.5 174,-597.5 8,-597.5"/>
<text text-anchor="start" x="11" y="-604.3" font-family="Nimbus Sans L" font-size="14.00">[] AggrCondition (Optional)</text>
</a>
</g>
<g id="a_node1_20"><a xlink:href="../IDMEFv2/Alert.html" xlink:title="A list containing the identifiers of previous messages which are obsoleted by this message.">
<polygon fill="none" stroke="black" points="8,-576.5 8,-597.5 174,-597.5 174,-576.5 8,-576.5"/>
<text text-anchor="start" x="32" y="-583.3" font-family="Nimbus Sans L" font-size="14.00">[] PredID (Optional)</text>
</a>
</g>
<g id="a_node1_21"><a xlink:href="../IDMEFv2/Alert.html" xlink:title="A list containing the identifiers of other messages related to this message.">
<polygon fill="none" stroke="black" points="8,-555.5 8,-576.5 174,-576.5 174,-555.5 8,-555.5"/>
<text text-anchor="start" x="36.5" y="-562.3" font-family="Nimbus Sans L" font-size="14.00">[] RelID (Optional)</text>
</a>
</g>
</g>
<!-- Analyzer -->
<g id="node2" class="node">
<title>Analyzer</title>
<g id="a_node2_22"><a xlink:href="../IDMEFv2/Analyzer.html" xlink:title="The Analyzer class describes the module that has analyzed the data captured by the sensors, identified an event of interest and decided to create an alert. ">
<polygon fill="#cecece" stroke="transparent" points="264.5,-1694.5 264.5,-1715.5 423.5,-1715.5 423.5,-1694.5 264.5,-1694.5"/>
<polygon fill="none" stroke="black" points="264.5,-1694.5 264.5,-1715.5 423.5,-1715.5 423.5,-1694.5 264.5,-1694.5"/>
<text text-anchor="start" x="317.5" y="-1701.3" font-family="Nimbus Sans L" font-size="14.00">Analyzer</text>
</a>
</g>
<g id="a_node2_23"><a xlink:href="../IDMEFv2/Analyzer.html" xlink:title="Analyzer IP address.">
<polygon fill="none" stroke="black" points="264.5,-1673.5 264.5,-1694.5 423.5,-1694.5 423.5,-1673.5 264.5,-1673.5"/>
<text text-anchor="start" x="293" y="-1680.3" font-family="Nimbus Sans L" font-size="14.00">[Mandatory] IP ()</text>
</a>
</g>
<g id="a_node2_24"><a xlink:href="../IDMEFv2/Analyzer.html" xlink:title="however still bear some meaningful sense.">
<polygon fill="none" stroke="black" points="264.5,-1652.5 264.5,-1673.5 423.5,-1673.5 423.5,-1652.5 264.5,-1652.5"/>
<text text-anchor="start" x="313.5" y="-1659.3" font-family="Nimbus Sans L" font-size="14.00">[] Name ()</text>
</a>
</g>
<g id="a_node2_25"><a xlink:href="../IDMEFv2/Analyzer.html" xlink:title="Hostname of this analyzer.">
<polygon fill="none" stroke="black" points="264.5,-1631.5 264.5,-1652.5 423.5,-1652.5 423.5,-1631.5 264.5,-1631.5"/>
<text text-anchor="start" x="275" y="-1638.3" font-family="Nimbus Sans L" font-size="14.00">[] Hostname (Optional)</text>
</a>
</g>
<g id="a_node2_26"><a xlink:href="../IDMEFv2/Analyzer.html" xlink:title="brand and version).">
<polygon fill="none" stroke="black" points="264.5,-1610.5 264.5,-1631.5 423.5,-1631.5 423.5,-1610.5 264.5,-1610.5"/>
<text text-anchor="start" x="313" y="-1617.3" font-family="Nimbus Sans L" font-size="14.00">[] Model ()</text>
</a>
</g>
<g id="a_node2_27"><a xlink:href="../IDMEFv2/Analyzer.html" xlink:title="Analyzer type.">
<polygon fill="none" stroke="black" points="264.5,-1589.5 264.5,-1610.5 423.5,-1610.5 423.5,-1589.5 264.5,-1589.5"/>
<text text-anchor="start" x="291.5" y="-1596.3" font-family="Nimbus Sans L" font-size="14.00">[] Type (Optional)</text>
</a>
</g>
<g id="a_node2_28"><a xlink:href="../IDMEFv2/Analyzer.html" xlink:title="Analyzer categories.">
<polygon fill="none" stroke="black" points="264.5,-1568.5 264.5,-1589.5 423.5,-1589.5 423.5,-1568.5 264.5,-1568.5"/>
<text text-anchor="start" x="272" y="-1575.3" font-family="Nimbus Sans L" font-size="14.00">[Mandatory] Category ()</text>
</a>
</g>
<g id="a_node2_29"><a xlink:href="../IDMEFv2/Analyzer.html" xlink:title="Type of data analyzed during the detection.">
<polygon fill="none" stroke="black" points="264.5,-1547.5 264.5,-1568.5 423.5,-1568.5 423.5,-1547.5 264.5,-1547.5"/>
<text text-anchor="start" x="285" y="-1554.3" font-family="Nimbus Sans L" font-size="14.00">[Mandatory] Data ()</text>
</a>
</g>
<g id="a_node2_30"><a xlink:href="../IDMEFv2/Analyzer.html" xlink:title="Detection method.">
<polygon fill="none" stroke="black" points="264.5,-1526.5 264.5,-1547.5 423.5,-1547.5 423.5,-1526.5 264.5,-1526.5"/>
<text text-anchor="start" x="276.5" y="-1533.3" font-family="Nimbus Sans L" font-size="14.00">[Mandatory] Method ()</text>
</a>
</g>
<g id="a_node2_31"><a xlink:href="../IDMEFv2/Analyzer.html" xlink:title="GPS coordinates for the analyzer.">
<polygon fill="none" stroke="black" points="264.5,-1505.5 264.5,-1526.5 423.5,-1526.5 423.5,-1505.5 264.5,-1505.5"/>
<text text-anchor="start" x="267.5" y="-1512.3" font-family="Nimbus Sans L" font-size="14.00">[] GeoLocation (Optional)</text>
</a>
</g>
<g id="a_node2_32"><a xlink:href="../IDMEFv2/Analyzer.html" xlink:title="Standard UN/Locode for the analyzer.">
<polygon fill="none" stroke="black" points="264.5,-1484.5 264.5,-1505.5 423.5,-1505.5 423.5,-1484.5 264.5,-1484.5"/>
<text text-anchor="start" x="272" y="-1491.3" font-family="Nimbus Sans L" font-size="14.00">[] UnLocation (Optional)</text>
</a>
</g>
<g id="a_node2_33"><a xlink:href="../IDMEFv2/Analyzer.html" xlink:title="Internal name for the location of the analyzer.">
<polygon fill="none" stroke="black" points="264.5,-1463.5 264.5,-1484.5 423.5,-1484.5 423.5,-1463.5 264.5,-1463.5"/>
<text text-anchor="start" x="280.5" y="-1470.3" font-family="Nimbus Sans L" font-size="14.00">[] Location (Optional)</text>
</a>
</g>
</g>
<!-- Alert&#45;&gt;Analyzer -->
<g id="edge1" class="edge">
<title>Alert&#45;&gt;Analyzer</title>
<path fill="none" stroke="black" d="M122.09,-1021.56C144.47,-1151.98 181.99,-1314.77 243,-1450.5 245.46,-1455.96 248.14,-1461.43 251.01,-1466.86"/>
<polygon fill="black" stroke="black" points="248.12,-1468.88 255.99,-1475.97 254.26,-1465.52 248.12,-1468.88"/>
<text text-anchor="middle" x="212.5" y="-1403.3" font-family="Times,serif" font-size="14.00">1</text>
</g>
<!-- Sensor -->
<g id="node3" class="node">
<title>Sensor</title>
<g id="a_node3_34"><a xlink:href="../IDMEFv2/Sensor.html" xlink:title="The Sensor class describes the module that captured the data before sending it to an analyzer. The Sensor may be a subpart of the Analyzer. ">
<polygon fill="#cecece" stroke="transparent" points="263.5,-1416.5 263.5,-1437.5 423.5,-1437.5 423.5,-1416.5 263.5,-1416.5"/>
<polygon fill="none" stroke="black" points="263.5,-1416.5 263.5,-1437.5 423.5,-1437.5 423.5,-1416.5 263.5,-1416.5"/>
<text text-anchor="start" x="322" y="-1423.3" font-family="Nimbus Sans L" font-size="14.00">Sensor</text>
</a>
</g>
<g id="a_node3_35"><a xlink:href="../IDMEFv2/Sensor.html" xlink:title="The sensor&#39;s IP address.">
<polygon fill="none" stroke="black" points="263.5,-1395.5 263.5,-1416.5 423.5,-1416.5 423.5,-1395.5 263.5,-1395.5"/>
<text text-anchor="start" x="292.5" y="-1402.3" font-family="Nimbus Sans L" font-size="14.00">[Mandatory] IP ()</text>
</a>
</g>
<g id="a_node3_36"><a xlink:href="../IDMEFv2/Sensor.html" xlink:title="however still bear some meaningful sense.">
<polygon fill="none" stroke="black" points="263.5,-1374.5 263.5,-1395.5 423.5,-1395.5 423.5,-1374.5 263.5,-1374.5"/>
<text text-anchor="start" x="313" y="-1381.3" font-family="Nimbus Sans L" font-size="14.00">[] Name ()</text>
</a>
</g>
<g id="a_node3_37"><a xlink:href="../IDMEFv2/Sensor.html" xlink:title="The sensor&#39;s hostname.">
<polygon fill="none" stroke="black" points="263.5,-1353.5 263.5,-1374.5 423.5,-1374.5 423.5,-1353.5 263.5,-1353.5"/>
<text text-anchor="start" x="274.5" y="-1360.3" font-family="Nimbus Sans L" font-size="14.00">[] Hostname (Optional)</text>
</a>
</g>
<g id="a_node3_38"><a xlink:href="../IDMEFv2/Sensor.html" xlink:title="Expires 18 April 2023 &#160;&#160;&#160;&#160;&#160;&#160;&#160;&#160;&#160;&#160;&#160;&#160;&#160;&#160;&#160;[Page 37]">
<polygon fill="none" stroke="black" points="263.5,-1332.5 263.5,-1353.5 423.5,-1353.5 423.5,-1332.5 263.5,-1332.5"/>
<text text-anchor="start" x="312.5" y="-1339.3" font-family="Nimbus Sans L" font-size="14.00">[] Model ()</text>
</a>
</g>
<g id="a_node3_39"><a xlink:href="../IDMEFv2/Sensor.html" xlink:title="Standard UN/Locode for the sensor.">
<polygon fill="none" stroke="black" points="263.5,-1311.5 263.5,-1332.5 423.5,-1332.5 423.5,-1311.5 263.5,-1311.5"/>
<text text-anchor="start" x="271.5" y="-1318.3" font-family="Nimbus Sans L" font-size="14.00">[] UnLocation (Optional)</text>
</a>
</g>
<g id="a_node3_40"><a xlink:href="../IDMEFv2/Sensor.html" xlink:title="Internal name for the location of the sensor.">
<polygon fill="none" stroke="black" points="263.5,-1290.5 263.5,-1311.5 423.5,-1311.5 423.5,-1290.5 263.5,-1290.5"/>
<text text-anchor="start" x="280" y="-1297.3" font-family="Nimbus Sans L" font-size="14.00">[] Location (Optional)</text>
</a>
</g>
<g id="a_node3_41"><a xlink:href="../IDMEFv2/Sensor.html" xlink:title="A string that describes the &quot;capture zone&quot; of the sensor, as a JSON&#45;serialized string.">
<polygon fill="none" stroke="black" points="263.5,-1269.5 263.5,-1290.5 423.5,-1290.5 423.5,-1269.5 263.5,-1269.5"/>
<text text-anchor="start" x="266.5" y="-1276.3" font-family="Nimbus Sans L" font-size="14.00">[] CaptureZone (Optional)</text>
</a>
</g>
</g>
<!-- Alert&#45;&gt;Sensor -->
<g id="edge2" class="edge">
<title>Alert&#45;&gt;Sensor</title>
<path fill="none" stroke="black" d="M143.2,-1021.6C166.45,-1099.92 198.89,-1185.28 243,-1256.5 244.99,-1259.71 247.11,-1262.9 249.34,-1266.04"/>
<polygon fill="black" stroke="black" points="246.68,-1268.34 255.46,-1274.28 252.3,-1264.16 246.68,-1268.34"/>
<text text-anchor="middle" x="212.5" y="-1225.3" font-family="Times,serif" font-size="14.00">0..*</text>
</g>
<!-- Source -->
<g id="node4" class="node">
<title>Source</title>
<g id="a_node4_42"><a xlink:href="../IDMEFv2/Source.html" xlink:title="The Source class describes the source(s) of the event(s) leading up to the alert. ">
<polygon fill="#cecece" stroke="transparent" points="264.5,-1222.5 264.5,-1243.5 423.5,-1243.5 423.5,-1222.5 264.5,-1222.5"/>
<polygon fill="none" stroke="black" points="264.5,-1222.5 264.5,-1243.5 423.5,-1243.5 423.5,-1222.5 264.5,-1222.5"/>
<text text-anchor="start" x="322.5" y="-1229.3" font-family="Nimbus Sans L" font-size="14.00">Source</text>
</a>
</g>
<g id="a_node4_43"><a xlink:href="../IDMEFv2/Source.html" xlink:title="Source IP address.">
<polygon fill="none" stroke="black" points="264.5,-1201.5 264.5,-1222.5 423.5,-1222.5 423.5,-1201.5 264.5,-1201.5"/>
<text text-anchor="start" x="300" y="-1208.3" font-family="Nimbus Sans L" font-size="14.00">[] IP (Optional)</text>
</a>
</g>
<g id="a_node4_44"><a xlink:href="../IDMEFv2/Source.html" xlink:title="Hostname of this source.">
<polygon fill="none" stroke="black" points="264.5,-1180.5 264.5,-1201.5 423.5,-1201.5 423.5,-1180.5 264.5,-1180.5"/>
<text text-anchor="start" x="275" y="-1187.3" font-family="Nimbus Sans L" font-size="14.00">[] Hostname (Optional)</text>
</a>
</g>
<g id="a_node4_45"><a xlink:href="../IDMEFv2/Source.html" xlink:title="Free text human&#45;readable additional note for this source.">
<polygon fill="none" stroke="black" points="264.5,-1159.5 264.5,-1180.5 423.5,-1180.5 423.5,-1159.5 264.5,-1159.5"/>
<text text-anchor="start" x="292" y="-1166.3" font-family="Nimbus Sans L" font-size="14.00">[] Note (Optional)</text>
</a>
</g>
<g id="a_node4_46"><a xlink:href="../IDMEFv2/Source.html" xlink:title="Threat Intelligence data about the source.">
<polygon fill="none" stroke="black" points="264.5,-1138.5 264.5,-1159.5 423.5,-1159.5 423.5,-1138.5 264.5,-1138.5"/>
<text text-anchor="start" x="300" y="-1145.3" font-family="Nimbus Sans L" font-size="14.00">[] TI (Optional)</text>
</a>
</g>
<g id="a_node4_47"><a xlink:href="../IDMEFv2/Source.html" xlink:title="User ID or login responsible for the alert.">
<polygon fill="none" stroke="black" points="264.5,-1117.5 264.5,-1138.5 423.5,-1138.5 423.5,-1117.5 264.5,-1117.5"/>
<text text-anchor="start" x="292" y="-1124.3" font-family="Nimbus Sans L" font-size="14.00">[] User (Optional)</text>
</a>
</g>
<g id="a_node4_48"><a xlink:href="../IDMEFv2/Source.html" xlink:title="Email address responsible for the alert.">
<polygon fill="none" stroke="black" points="264.5,-1096.5 264.5,-1117.5 423.5,-1117.5 423.5,-1096.5 264.5,-1096.5"/>
<text text-anchor="start" x="289" y="-1103.3" font-family="Nimbus Sans L" font-size="14.00">[] Email (Optional)</text>
</a>
</g>
<g id="a_node4_49"><a xlink:href="../IDMEFv2/Source.html" xlink:title="Protocols related to connections from/to this source.">
<polygon fill="none" stroke="black" points="264.5,-1075.5 264.5,-1096.5 423.5,-1096.5 423.5,-1075.5 264.5,-1075.5"/>
<text text-anchor="start" x="281.5" y="-1082.3" font-family="Nimbus Sans L" font-size="14.00">[] Protocol (Optional)</text>
</a>
</g>
<g id="a_node4_50"><a xlink:href="../IDMEFv2/Source.html" xlink:title="Source ports involved in the alert.">
<polygon fill="none" stroke="black" points="264.5,-1054.5 264.5,-1075.5 423.5,-1075.5 423.5,-1054.5 264.5,-1054.5"/>
<text text-anchor="start" x="294" y="-1061.3" font-family="Nimbus Sans L" font-size="14.00">[] Port (Optional)</text>
</a>
</g>
<g id="a_node4_51"><a xlink:href="../IDMEFv2/Source.html" xlink:title="GPS coordinates for the source.">
<polygon fill="none" stroke="black" points="264.5,-1033.5 264.5,-1054.5 423.5,-1054.5 423.5,-1033.5 264.5,-1033.5"/>
<text text-anchor="start" x="267.5" y="-1040.3" font-family="Nimbus Sans L" font-size="14.00">[] GeoLocation (Optional)</text>
</a>
</g>
<g id="a_node4_52"><a xlink:href="../IDMEFv2/Source.html" xlink:title="Standard UN/Locode for the source.">
<polygon fill="none" stroke="black" points="264.5,-1012.5 264.5,-1033.5 423.5,-1033.5 423.5,-1012.5 264.5,-1012.5"/>
<text text-anchor="start" x="272" y="-1019.3" font-family="Nimbus Sans L" font-size="14.00">[] UnLocation (Optional)</text>
</a>
</g>
<g id="a_node4_53"><a xlink:href="../IDMEFv2/Source.html" xlink:title="Internal name for the location of the source.">
<polygon fill="none" stroke="black" points="264.5,-991.5 264.5,-1012.5 423.5,-1012.5 423.5,-991.5 264.5,-991.5"/>
<text text-anchor="start" x="280.5" y="-998.3" font-family="Nimbus Sans L" font-size="14.00">[] Location (Optional)</text>
</a>
</g>
<g id="a_node4_54"><a xlink:href="../IDMEFv2/Source.html" xlink:title="Identifiers for attachments related to this source.">
<polygon fill="none" stroke="black" points="264.5,-970.5 264.5,-991.5 423.5,-991.5 423.5,-970.5 264.5,-970.5"/>
<text text-anchor="start" x="272" y="-977.3" font-family="Nimbus Sans L" font-size="14.00">[] Attachment (Optional)</text>
</a>
</g>
<g id="a_node4_55"><a xlink:href="../IDMEFv2/Source.html" xlink:title="Identifiers for observables related to this source.">
<polygon fill="none" stroke="black" points="264.5,-949.5 264.5,-970.5 423.5,-970.5 423.5,-949.5 264.5,-949.5"/>
<text text-anchor="start" x="271.5" y="-956.3" font-family="Nimbus Sans L" font-size="14.00">[] Observable (Optional)</text>
</a>
</g>
</g>
<!-- Alert&#45;&gt;Source -->
<g id="edge3" class="edge">
<title>Alert&#45;&gt;Source</title>
<path fill="none" stroke="black" d="M182.08,-897.98C203.98,-925.07 227.43,-954.1 249.46,-981.36"/>
<polygon fill="black" stroke="black" points="246.93,-983.8 255.94,-989.38 252.38,-979.4 246.93,-983.8"/>
<text text-anchor="middle" x="212.5" y="-954.3" font-family="Times,serif" font-size="14.00">0..*</text>
</g>
<!-- Target -->
<g id="node5" class="node">
<title>Target</title>
<g id="a_node5_56"><a xlink:href="../IDMEFv2/Target.html" xlink:title="The Target class describes the target(s) of the event(s) leading up to the alert. ">
<polygon fill="#cecece" stroke="transparent" points="264.5,-901.5 264.5,-922.5 423.5,-922.5 423.5,-901.5 264.5,-901.5"/>
<polygon fill="none" stroke="black" points="264.5,-901.5 264.5,-922.5 423.5,-922.5 423.5,-901.5 264.5,-901.5"/>
<text text-anchor="start" x="325" y="-908.3" font-family="Nimbus Sans L" font-size="14.00">Target</text>
</a>
</g>
<g id="a_node5_57"><a xlink:href="../IDMEFv2/Target.html" xlink:title="Target IP address.">
<polygon fill="none" stroke="black" points="264.5,-880.5 264.5,-901.5 423.5,-901.5 423.5,-880.5 264.5,-880.5"/>
<text text-anchor="start" x="300" y="-887.3" font-family="Nimbus Sans L" font-size="14.00">[] IP (Optional)</text>
</a>
</g>
<g id="a_node5_58"><a xlink:href="../IDMEFv2/Target.html" xlink:title="Hostname of this target.">
<polygon fill="none" stroke="black" points="264.5,-859.5 264.5,-880.5 423.5,-880.5 423.5,-859.5 264.5,-859.5"/>
<text text-anchor="start" x="275" y="-866.3" font-family="Nimbus Sans L" font-size="14.00">[] Hostname (Optional)</text>
</a>
</g>
<g id="a_node5_59"><a xlink:href="../IDMEFv2/Target.html" xlink:title="Expires 18 April 2023 &#160;&#160;&#160;&#160;&#160;&#160;&#160;&#160;&#160;&#160;&#160;&#160;&#160;&#160;&#160;[Page 41]">
<polygon fill="none" stroke="black" points="264.5,-838.5 264.5,-859.5 423.5,-859.5 423.5,-838.5 264.5,-838.5"/>
<text text-anchor="start" x="317.5" y="-845.3" font-family="Nimbus Sans L" font-size="14.00">[] Note ()</text>
</a>
</g>
<g id="a_node5_60"><a xlink:href="../IDMEFv2/Target.html" xlink:title="Service or process impacted by the alert.">
<polygon fill="none" stroke="black" points="264.5,-817.5 264.5,-838.5 423.5,-838.5 423.5,-817.5 264.5,-817.5"/>
<text text-anchor="start" x="283.5" y="-824.3" font-family="Nimbus Sans L" font-size="14.00">[] Service (Optional)</text>
</a>
</g>
<g id="a_node5_61"><a xlink:href="../IDMEFv2/Target.html" xlink:title="User ID or login targeted by the alert.">
<polygon fill="none" stroke="black" points="264.5,-796.5 264.5,-817.5 423.5,-817.5 423.5,-796.5 264.5,-796.5"/>
<text text-anchor="start" x="292" y="-803.3" font-family="Nimbus Sans L" font-size="14.00">[] User (Optional)</text>
</a>
</g>
<g id="a_node5_62"><a xlink:href="../IDMEFv2/Target.html" xlink:title="Email address targeted by the alert.">
<polygon fill="none" stroke="black" points="264.5,-775.5 264.5,-796.5 423.5,-796.5 423.5,-775.5 264.5,-775.5"/>
<text text-anchor="start" x="289" y="-782.3" font-family="Nimbus Sans L" font-size="14.00">[] Email (Optional)</text>
</a>
</g>
<g id="a_node5_63"><a xlink:href="../IDMEFv2/Target.html" xlink:title="Target ports involved in the alert.">
<polygon fill="none" stroke="black" points="264.5,-754.5 264.5,-775.5 423.5,-775.5 423.5,-754.5 264.5,-754.5"/>
<text text-anchor="start" x="294" y="-761.3" font-family="Nimbus Sans L" font-size="14.00">[] Port (Optional)</text>
</a>
</g>
<g id="a_node5_64"><a xlink:href="../IDMEFv2/Target.html" xlink:title="GPS coordinates for the target.">
<polygon fill="none" stroke="black" points="264.5,-733.5 264.5,-754.5 423.5,-754.5 423.5,-733.5 264.5,-733.5"/>
<text text-anchor="start" x="267.5" y="-740.3" font-family="Nimbus Sans L" font-size="14.00">[] GeoLocation (Optional)</text>
</a>
</g>
<g id="a_node5_65"><a xlink:href="../IDMEFv2/Target.html" xlink:title="Standard UN/Locode for the target.">
<polygon fill="none" stroke="black" points="264.5,-712.5 264.5,-733.5 423.5,-733.5 423.5,-712.5 264.5,-712.5"/>
<text text-anchor="start" x="272" y="-719.3" font-family="Nimbus Sans L" font-size="14.00">[] UnLocation (Optional)</text>
</a>
</g>
<g id="a_node5_66"><a xlink:href="../IDMEFv2/Target.html" xlink:title="Internal name for the location of the target.">
<polygon fill="none" stroke="black" points="264.5,-691.5 264.5,-712.5 423.5,-712.5 423.5,-691.5 264.5,-691.5"/>
<text text-anchor="start" x="280.5" y="-698.3" font-family="Nimbus Sans L" font-size="14.00">[] Location (Optional)</text>
</a>
</g>
<g id="a_node5_67"><a xlink:href="../IDMEFv2/Target.html" xlink:title="Identifiers for attachments related to this target.">
<polygon fill="none" stroke="black" points="264.5,-670.5 264.5,-691.5 423.5,-691.5 423.5,-670.5 264.5,-670.5"/>
<text text-anchor="start" x="272" y="-677.3" font-family="Nimbus Sans L" font-size="14.00">[] Attachment (Optional)</text>
</a>
</g>
<g id="a_node5_68"><a xlink:href="../IDMEFv2/Target.html" xlink:title="Identifiers for observables related to this target.">
<polygon fill="none" stroke="black" points="264.5,-649.5 264.5,-670.5 423.5,-670.5 423.5,-649.5 264.5,-649.5"/>
<text text-anchor="start" x="271.5" y="-656.3" font-family="Nimbus Sans L" font-size="14.00">[] Observable (Optional)</text>
</a>
</g>
</g>
<!-- Alert&#45;&gt;Target -->
<g id="edge4" class="edge">
<title>Alert&#45;&gt;Target</title>
<path fill="none" stroke="black" d="M182.08,-786.5C202.69,-786.5 224.69,-786.5 245.58,-786.5"/>
<polygon fill="black" stroke="black" points="245.73,-790 255.73,-786.5 245.73,-783 245.73,-790"/>
<text text-anchor="middle" x="212.5" y="-790.3" font-family="Times,serif" font-size="14.00">0..*</text>
</g>
<!-- Vector -->
<g id="node6" class="node">
<title>Vector</title>
<g id="a_node6_69"><a xlink:href="../IDMEFv2/Vector.html" xlink:title="The Vector class describes the vector(s) of the event(s) leading up to the alert. o Name, location, description, ... ">
<polygon fill="#cecece" stroke="transparent" points="264.5,-602.5 264.5,-623.5 423.5,-623.5 423.5,-602.5 264.5,-602.5"/>
<polygon fill="none" stroke="black" points="264.5,-602.5 264.5,-623.5 423.5,-623.5 423.5,-602.5 264.5,-602.5"/>
<text text-anchor="start" x="324.5" y="-609.3" font-family="Nimbus Sans L" font-size="14.00">Vector</text>
</a>
</g>
<g id="a_node6_70"><a xlink:href="../IDMEFv2/Vector.html" xlink:title="Category for the detected &quot;vector&quot;.">
<polygon fill="none" stroke="black" points="264.5,-581.5 264.5,-602.5 423.5,-602.5 423.5,-581.5 264.5,-581.5"/>
<text text-anchor="start" x="272" y="-588.3" font-family="Nimbus Sans L" font-size="14.00">[Mandatory] Category ()</text>
</a>
</g>
<g id="a_node6_71"><a xlink:href="../IDMEFv2/Vector.html" xlink:title="Name of the detected vector or &quot;Unknown&quot;.">
<polygon fill="none" stroke="black" points="264.5,-560.5 264.5,-581.5 423.5,-581.5 423.5,-560.5 264.5,-560.5"/>
<text text-anchor="start" x="288" y="-567.3" font-family="Nimbus Sans L" font-size="14.00">[] Name (Optional)</text>
</a>
</g>
<g id="a_node6_72"><a xlink:href="../IDMEFv2/Vector.html" xlink:title="Rough estimate of the detected vector&#39;s size.">
<polygon fill="none" stroke="black" points="264.5,-539.5 264.5,-560.5 423.5,-560.5 423.5,-539.5 264.5,-539.5"/>
<text text-anchor="start" x="293" y="-546.3" font-family="Nimbus Sans L" font-size="14.00">[] Size (Optional)</text>
</a>
</g>
<g id="a_node6_73"><a xlink:href="../IDMEFv2/Vector.html" xlink:title="Free text human&#45;readable additional note for this vector.">
<polygon fill="none" stroke="black" points="264.5,-518.5 264.5,-539.5 423.5,-539.5 423.5,-518.5 264.5,-518.5"/>
<text text-anchor="start" x="292" y="-525.3" font-family="Nimbus Sans L" font-size="14.00">[] Note (Optional)</text>
</a>
</g>
<g id="a_node6_74"><a xlink:href="../IDMEFv2/Vector.html" xlink:title="Expires 18 April 2023 &#160;&#160;&#160;&#160;&#160;&#160;&#160;&#160;&#160;&#160;&#160;&#160;&#160;&#160;&#160;[Page 45]">
<polygon fill="none" stroke="black" points="264.5,-497.5 264.5,-518.5 423.5,-518.5 423.5,-497.5 264.5,-497.5"/>
<text text-anchor="start" x="325.5" y="-504.3" font-family="Nimbus Sans L" font-size="14.00">[] TI ()</text>
</a>
</g>
<g id="a_node6_75"><a xlink:href="../IDMEFv2/Vector.html" xlink:title="GPS coordinates for the vector.">
<polygon fill="none" stroke="black" points="264.5,-476.5 264.5,-497.5 423.5,-497.5 423.5,-476.5 264.5,-476.5"/>
<text text-anchor="start" x="267.5" y="-483.3" font-family="Nimbus Sans L" font-size="14.00">[] GeoLocation (Optional)</text>
</a>
</g>
<g id="a_node6_76"><a xlink:href="../IDMEFv2/Vector.html" xlink:title="Estimated radius around the provided geolocation in meters.">
<polygon fill="none" stroke="black" points="264.5,-455.5 264.5,-476.5 423.5,-476.5 423.5,-455.5 264.5,-455.5"/>
<text text-anchor="start" x="272" y="-462.3" font-family="Nimbus Sans L" font-size="14.00">[] GeoRadius (Optional)</text>
</a>
</g>
<g id="a_node6_77"><a xlink:href="../IDMEFv2/Vector.html" xlink:title="Standard UN/Locode for the vector.">
<polygon fill="none" stroke="black" points="264.5,-434.5 264.5,-455.5 423.5,-455.5 423.5,-434.5 264.5,-434.5"/>
<text text-anchor="start" x="272" y="-441.3" font-family="Nimbus Sans L" font-size="14.00">[] UnLocation (Optional)</text>
</a>
</g>
<g id="a_node6_78"><a xlink:href="../IDMEFv2/Vector.html" xlink:title="Internal name for the location of the vector.">
<polygon fill="none" stroke="black" points="264.5,-413.5 264.5,-434.5 423.5,-434.5 423.5,-413.5 264.5,-413.5"/>
<text text-anchor="start" x="280.5" y="-420.3" font-family="Nimbus Sans L" font-size="14.00">[] Location (Optional)</text>
</a>
</g>
<g id="a_node6_79"><a xlink:href="../IDMEFv2/Vector.html" xlink:title="Identifiers for attachments related to this vector.">
<polygon fill="none" stroke="black" points="264.5,-392.5 264.5,-413.5 423.5,-413.5 423.5,-392.5 264.5,-392.5"/>
<text text-anchor="start" x="272" y="-399.3" font-family="Nimbus Sans L" font-size="14.00">[] Attachment (Optional)</text>
</a>
</g>
<g id="a_node6_80"><a xlink:href="../IDMEFv2/Vector.html" xlink:title="Identifiers for observables related to this vector.">
<polygon fill="none" stroke="black" points="264.5,-371.5 264.5,-392.5 423.5,-392.5 423.5,-371.5 264.5,-371.5"/>
<text text-anchor="start" x="271.5" y="-378.3" font-family="Nimbus Sans L" font-size="14.00">[] Observable (Optional)</text>
</a>
</g>
</g>
<!-- Alert&#45;&gt;Vector -->
<g id="edge5" class="edge">
<title>Alert&#45;&gt;Vector</title>
<path fill="none" stroke="black" d="M182.08,-682.57C203.82,-657.5 227.09,-630.64 248.98,-605.39"/>
<polygon fill="black" stroke="black" points="251.82,-607.46 255.73,-597.61 246.53,-602.87 251.82,-607.46"/>
<text text-anchor="middle" x="212.5" y="-662.3" font-family="Times,serif" font-size="14.00">0..*</text>
</g>
<!-- Observable -->
<g id="node7" class="node">
<title>Observable</title>
<g id="a_node7_81"><a xlink:href="../IDMEFv2/Observable.html" xlink:title="The Observable class describes a feature or phenomenon that can be observed or measured for the purposes of detecting malicious behavior. ">
<polygon fill="#cecece" stroke="transparent" points="271.5,-324.5 271.5,-345.5 415.5,-345.5 415.5,-324.5 271.5,-324.5"/>
<polygon fill="none" stroke="black" points="271.5,-324.5 271.5,-345.5 415.5,-345.5 415.5,-324.5 271.5,-324.5"/>
<text text-anchor="start" x="308.5" y="-331.3" font-family="Nimbus Sans L" font-size="14.00">Observable</text>
</a>
</g>
<g id="a_node7_82"><a xlink:href="../IDMEFv2/Observable.html" xlink:title="&quot;Observable&quot; attribute.">
<polygon fill="none" stroke="black" points="271.5,-303.5 271.5,-324.5 415.5,-324.5 415.5,-303.5 271.5,-303.5"/>
<text text-anchor="start" x="313" y="-310.3" font-family="Nimbus Sans L" font-size="14.00">[] Name ()</text>
</a>
</g>
<g id="a_node7_83"><a xlink:href="../IDMEFv2/Observable.html" xlink:title="Name of the reference where the observable is specified.">
<polygon fill="none" stroke="black" points="271.5,-282.5 271.5,-303.5 415.5,-303.5 415.5,-282.5 271.5,-282.5"/>
<text text-anchor="start" x="274.5" y="-289.3" font-family="Nimbus Sans L" font-size="14.00">[] Reference (Optional)</text>
</a>
</g>
<g id="a_node7_84"><a xlink:href="../IDMEFv2/Observable.html" xlink:title="Observable content.">
<polygon fill="none" stroke="black" points="271.5,-261.5 271.5,-282.5 415.5,-282.5 415.5,-261.5 271.5,-261.5"/>
<text text-anchor="start" x="275.5" y="-268.3" font-family="Nimbus Sans L" font-size="14.00">[Mandatory] Content ()</text>
</a>
</g>
</g>
<!-- Alert&#45;&gt;Observable -->
<g id="edge6" class="edge">
<title>Alert&#45;&gt;Observable</title>
<path fill="none" stroke="black" d="M141.31,-551.33C163.93,-483.7 196.48,-413.45 243,-358.5 246.76,-354.06 250.97,-349.91 255.48,-346.05"/>
<polygon fill="black" stroke="black" points="257.67,-348.78 263.33,-339.82 253.32,-343.3 257.67,-348.78"/>
<text text-anchor="middle" x="212.5" y="-421.3" font-family="Times,serif" font-size="14.00">0..*</text>
</g>
<!-- Attachment -->
<g id="node8" class="node">
<title>Attachment</title>
<g id="a_node8_85"><a xlink:href="../IDMEFv2/Attachment.html" xlink:title="The Attachment class contains additional data which was captured in relation with the event. ">
<polygon fill="#cecece" stroke="transparent" points="251.5,-213.5 251.5,-234.5 436.5,-234.5 436.5,-213.5 251.5,-213.5"/>
<polygon fill="none" stroke="black" points="251.5,-213.5 251.5,-234.5 436.5,-234.5 436.5,-213.5 251.5,-213.5"/>
<text text-anchor="start" x="309" y="-220.3" font-family="Nimbus Sans L" font-size="14.00">Attachment</text>
</a>
</g>
<g id="a_node8_86"><a xlink:href="../IDMEFv2/Attachment.html" xlink:title="&quot;Attachment&quot; attribute.">
<polygon fill="none" stroke="black" points="251.5,-192.5 251.5,-213.5 436.5,-213.5 436.5,-192.5 251.5,-192.5"/>
<text text-anchor="start" x="313.5" y="-199.3" font-family="Nimbus Sans L" font-size="14.00">[] Name ()</text>
</a>
</g>
<g id="a_node8_87"><a xlink:href="../IDMEFv2/Attachment.html" xlink:title="Attachment filename.">
<polygon fill="none" stroke="black" points="251.5,-171.5 251.5,-192.5 436.5,-192.5 436.5,-171.5 251.5,-171.5"/>
<text text-anchor="start" x="277" y="-178.3" font-family="Nimbus Sans L" font-size="14.00">[] FileName (Optional)</text>
</a>
</g>
<g id="a_node8_88"><a xlink:href="../IDMEFv2/Attachment.html" xlink:title="A list of hash results for the attachment&#39;s Content.">
<polygon fill="none" stroke="black" points="251.5,-150.5 251.5,-171.5 436.5,-171.5 436.5,-150.5 251.5,-150.5"/>
<text text-anchor="start" x="290.5" y="-157.3" font-family="Nimbus Sans L" font-size="14.00">[] Hash (Optional)</text>
</a>
</g>
<g id="a_node8_89"><a xlink:href="../IDMEFv2/Attachment.html" xlink:title="Length of the content (in bytes).">
<polygon fill="none" stroke="black" points="251.5,-129.5 251.5,-150.5 436.5,-150.5 436.5,-129.5 251.5,-129.5"/>
<text text-anchor="start" x="293" y="-136.3" font-family="Nimbus Sans L" font-size="14.00">[] Size (Optional)</text>
</a>
</g>
<g id="a_node8_90"><a xlink:href="../IDMEFv2/Attachment.html" xlink:title="References to sources of information related to the alert and/or vulnerability, and specific to this attachment.">
<polygon fill="none" stroke="black" points="251.5,-108.5 251.5,-129.5 436.5,-129.5 436.5,-108.5 251.5,-108.5"/>
<text text-anchor="start" x="295.5" y="-115.3" font-family="Nimbus Sans L" font-size="14.00">[] Ref (Optional)</text>
</a>
</g>
<g id="a_node8_91"><a xlink:href="../IDMEFv2/Attachment.html" xlink:title="If the attachment&#39;s content is available and/or recognizable from an external resource, this is the URI (usually a URL) to that resource.">
<polygon fill="none" stroke="black" points="251.5,-87.5 251.5,-108.5 436.5,-108.5 436.5,-87.5 251.5,-87.5"/>
<text text-anchor="start" x="270" y="-94.3" font-family="Nimbus Sans L" font-size="14.00">[] ExternalURI (Optional)</text>
</a>
</g>
<g id="a_node8_92"><a xlink:href="../IDMEFv2/Attachment.html" xlink:title="Free text human&#45;readable additional note for this attachment.">
<polygon fill="none" stroke="black" points="251.5,-66.5 251.5,-87.5 436.5,-87.5 436.5,-66.5 251.5,-66.5"/>
<text text-anchor="start" x="292" y="-73.3" font-family="Nimbus Sans L" font-size="14.00">[] Note (Optional)</text>
</a>
</g>
<g id="a_node8_93"><a xlink:href="../IDMEFv2/Attachment.html" xlink:title="Internet Media Type of the attachment.">
<polygon fill="none" stroke="black" points="251.5,-45.5 251.5,-66.5 436.5,-66.5 436.5,-45.5 251.5,-45.5"/>
<text text-anchor="start" x="268" y="-52.3" font-family="Nimbus Sans L" font-size="14.00">[] ContentType (Optional)</text>
</a>
</g>
<g id="a_node8_94"><a xlink:href="../IDMEFv2/Attachment.html" xlink:title="Content encoding.">
<polygon fill="none" stroke="black" points="251.5,-24.5 251.5,-45.5 436.5,-45.5 436.5,-24.5 251.5,-24.5"/>
<text text-anchor="start" x="254.5" y="-31.3" font-family="Nimbus Sans L" font-size="14.00">[] ContentEncoding (Optional)</text>
</a>
</g>
<g id="a_node8_95"><a xlink:href="../IDMEFv2/Attachment.html" xlink:title="The attachment&#39;s content, in case it is directly embedded inside the message.">
<polygon fill="none" stroke="black" points="251.5,-3.5 251.5,-24.5 436.5,-24.5 436.5,-3.5 251.5,-3.5"/>
<text text-anchor="start" x="282.5" y="-10.3" font-family="Nimbus Sans L" font-size="14.00">[] Content (Optional)</text>
</a>
</g>
</g>
<!-- Alert&#45;&gt;Attachment -->
<g id="edge7" class="edge">
<title>Alert&#45;&gt;Attachment</title>
<path fill="none" stroke="black" d="M133.47,-551.42C156.8,-453.77 191.84,-341.73 243,-248.5 243.11,-248.31 243.21,-248.11 243.32,-247.92"/>
<polygon fill="black" stroke="black" points="246.38,-249.61 248.3,-239.19 240.3,-246.14 246.38,-249.61"/>
<text text-anchor="middle" x="212.5" y="-334.3" font-family="Times,serif" font-size="14.00">0..*</text>
</g>
</g>
</svg>
