<?xml version="1.0" encoding="UTF-8" standalone="no"?>
<!DOCTYPE svg PUBLIC "-//W3C//DTD SVG 1.1//EN"
 "http://www.w3.org/Graphics/SVG/1.1/DTD/svg11.dtd">
<!-- Generated by graphviz version 2.43.0 (0)
 -->
<!-- Title: Analyzer Pages: 1 -->
<svg width="183pt" height="268pt"
 viewBox="0.00 0.00 183.00 268.00" xmlns="http://www.w3.org/2000/svg" xmlns:xlink="http://www.w3.org/1999/xlink">
<g id="graph0" class="graph" transform="scale(1 1) rotate(0) translate(4 264)">
<title>Analyzer</title>
<polygon fill="white" stroke="transparent" points="-4,4 -4,-264 179,-264 179,4 -4,4"/>
<!-- Analyzer -->
<g id="node1" class="node">
<title>Analyzer</title>
<g id="a_node1_0"><a xlink:href="../IDMEFv2/Analyzer.html" xlink:title="The Analyzer class describes the module that has analyzed the data captured by the sensors, identified an event of interest and decided to create an alert. ">
<polygon fill="#cecece" stroke="transparent" points="8.5,-235 8.5,-256 167.5,-256 167.5,-235 8.5,-235"/>
<polygon fill="none" stroke="black" points="8.5,-235 8.5,-256 167.5,-256 167.5,-235 8.5,-235"/>
<text text-anchor="start" x="61.5" y="-241.8" font-family="Nimbus Sans L" font-size="14.00">Analyzer</text>
</a>
</g>
<g id="a_node1_1"><a xlink:href="../IDMEFv2/Analyzer.html" xlink:title="Analyzer IP address.">
<polygon fill="none" stroke="black" points="8.5,-214 8.5,-235 167.5,-235 167.5,-214 8.5,-214"/>
<text text-anchor="start" x="37" y="-220.8" font-family="Nimbus Sans L" font-size="14.00">[Mandatory] IP ()</text>
</a>
</g>
<g id="a_node1_2"><a xlink:href="../IDMEFv2/Analyzer.html" xlink:title="however still bear some meaningful sense.">
<polygon fill="none" stroke="black" points="8.5,-193 8.5,-214 167.5,-214 167.5,-193 8.5,-193"/>
<text text-anchor="start" x="57.5" y="-199.8" font-family="Nimbus Sans L" font-size="14.00">[] Name ()</text>
</a>
</g>
<g id="a_node1_3"><a xlink:href="../IDMEFv2/Analyzer.html" xlink:title="Hostname of this analyzer.">
<polygon fill="none" stroke="black" points="8.5,-172 8.5,-193 167.5,-193 167.5,-172 8.5,-172"/>
<text text-anchor="start" x="19" y="-178.8" font-family="Nimbus Sans L" font-size="14.00">[] Hostname (Optional)</text>
</a>
</g>
<g id="a_node1_4"><a xlink:href="../IDMEFv2/Analyzer.html" xlink:title="brand and version).">
<polygon fill="none" stroke="black" points="8.5,-151 8.5,-172 167.5,-172 167.5,-151 8.5,-151"/>
<text text-anchor="start" x="57" y="-157.8" font-family="Nimbus Sans L" font-size="14.00">[] Model ()</text>
</a>
</g>
<g id="a_node1_5"><a xlink:href="../IDMEFv2/Analyzer.html" xlink:title="Analyzer type.">
<polygon fill="none" stroke="black" points="8.5,-130 8.5,-151 167.5,-151 167.5,-130 8.5,-130"/>
<text text-anchor="start" x="35.5" y="-136.8" font-family="Nimbus Sans L" font-size="14.00">[] Type (Optional)</text>
</a>
</g>
<g id="a_node1_6"><a xlink:href="../IDMEFv2/Analyzer.html" xlink:title="Analyzer categories.">
<polygon fill="none" stroke="black" points="8.5,-109 8.5,-130 167.5,-130 167.5,-109 8.5,-109"/>
<text text-anchor="start" x="16" y="-115.8" font-family="Nimbus Sans L" font-size="14.00">[Mandatory] Category ()</text>
</a>
</g>
<g id="a_node1_7"><a xlink:href="../IDMEFv2/Analyzer.html" xlink:title="Type of data analyzed during the detection.">
<polygon fill="none" stroke="black" points="8.5,-88 8.5,-109 167.5,-109 167.5,-88 8.5,-88"/>
<text text-anchor="start" x="29" y="-94.8" font-family="Nimbus Sans L" font-size="14.00">[Mandatory] Data ()</text>
</a>
</g>
<g id="a_node1_8"><a xlink:href="../IDMEFv2/Analyzer.html" xlink:title="Detection method.">
<polygon fill="none" stroke="black" points="8.5,-67 8.5,-88 167.5,-88 167.5,-67 8.5,-67"/>
<text text-anchor="start" x="20.5" y="-73.8" font-family="Nimbus Sans L" font-size="14.00">[Mandatory] Method ()</text>
</a>
</g>
<g id="a_node1_9"><a xlink:href="../IDMEFv2/Analyzer.html" xlink:title="GPS coordinates for the analyzer.">
<polygon fill="none" stroke="black" points="8.5,-46 8.5,-67 167.5,-67 167.5,-46 8.5,-46"/>
<text text-anchor="start" x="11.5" y="-52.8" font-family="Nimbus Sans L" font-size="14.00">[] GeoLocation (Optional)</text>
</a>
</g>
<g id="a_node1_10"><a xlink:href="../IDMEFv2/Analyzer.html" xlink:title="Standard UN/Locode for the analyzer.">
<polygon fill="none" stroke="black" points="8.5,-25 8.5,-46 167.5,-46 167.5,-25 8.5,-25"/>
<text text-anchor="start" x="16" y="-31.8" font-family="Nimbus Sans L" font-size="14.00">[] UnLocation (Optional)</text>
</a>
</g>
<g id="a_node1_11"><a xlink:href="../IDMEFv2/Analyzer.html" xlink:title="Internal name for the location of the analyzer.">
<polygon fill="none" stroke="black" points="8.5,-4 8.5,-25 167.5,-25 167.5,-4 8.5,-4"/>
<text text-anchor="start" x="24.5" y="-10.8" font-family="Nimbus Sans L" font-size="14.00">[] Location (Optional)</text>
</a>
</g>
</g>
</g>
</svg>
