<?xml version="1.0" encoding="UTF-8" standalone="no"?>
<!DOCTYPE svg PUBLIC "-//W3C//DTD SVG 1.1//EN"
 "http://www.w3.org/Graphics/SVG/1.1/DTD/svg11.dtd">
<!-- Generated by graphviz version 2.43.0 (0)
 -->
<!-- Title: Observable Pages: 1 -->
<svg width="168pt" height="100pt"
 viewBox="0.00 0.00 168.00 100.00" xmlns="http://www.w3.org/2000/svg" xmlns:xlink="http://www.w3.org/1999/xlink">
<g id="graph0" class="graph" transform="scale(1 1) rotate(0) translate(4 96)">
<title>Observable</title>
<polygon fill="white" stroke="transparent" points="-4,4 -4,-96 164,-96 164,4 -4,4"/>
<!-- Observable -->
<g id="node1" class="node">
<title>Observable</title>
<g id="a_node1_0"><a xlink:href="../IDMEFv2/Observable.html" xlink:title="The Observable class describes a feature or phenomenon that can be observed or measured for the purposes of detecting malicious behavior. ">
<polygon fill="#cecece" stroke="transparent" points="8,-67 8,-88 152,-88 152,-67 8,-67"/>
<polygon fill="none" stroke="black" points="8,-67 8,-88 152,-88 152,-67 8,-67"/>
<text text-anchor="start" x="45" y="-73.8" font-family="Nimbus Sans L" font-size="14.00">Observable</text>
</a>
</g>
<g id="a_node1_1"><a xlink:href="../IDMEFv2/Observable.html" xlink:title="&quot;Observable&quot; attribute.">
<polygon fill="none" stroke="black" points="8,-46 8,-67 152,-67 152,-46 8,-46"/>
<text text-anchor="start" x="49.5" y="-52.8" font-family="Nimbus Sans L" font-size="14.00">[] Name ()</text>
</a>
</g>
<g id="a_node1_2"><a xlink:href="../IDMEFv2/Observable.html" xlink:title="Name of the reference where the observable is specified.">
<polygon fill="none" stroke="black" points="8,-25 8,-46 152,-46 152,-25 8,-25"/>
<text text-anchor="start" x="11" y="-31.8" font-family="Nimbus Sans L" font-size="14.00">[] Reference (Optional)</text>
</a>
</g>
<g id="a_node1_3"><a xlink:href="../IDMEFv2/Observable.html" xlink:title="Observable content.">
<polygon fill="none" stroke="black" points="8,-4 8,-25 152,-25 152,-4 8,-4"/>
<text text-anchor="start" x="12" y="-10.8" font-family="Nimbus Sans L" font-size="14.00">[Mandatory] Content ()</text>
</a>
</g>
</g>
</g>
</svg>
