<?xml version="1.0" encoding="UTF-8" standalone="no"?>
<!DOCTYPE svg PUBLIC "-//W3C//DTD SVG 1.1//EN"
 "http://www.w3.org/Graphics/SVG/1.1/DTD/svg11.dtd">
<!-- Generated by graphviz version 2.43.0 (0)
 -->
<!-- Title: Vector Pages: 1 -->
<svg width="183pt" height="268pt"
 viewBox="0.00 0.00 183.00 268.00" xmlns="http://www.w3.org/2000/svg" xmlns:xlink="http://www.w3.org/1999/xlink">
<g id="graph0" class="graph" transform="scale(1 1) rotate(0) translate(4 264)">
<title>Vector</title>
<polygon fill="white" stroke="transparent" points="-4,4 -4,-264 179,-264 179,4 -4,4"/>
<!-- Vector -->
<g id="node1" class="node">
<title>Vector</title>
<g id="a_node1_0"><a xlink:href="../IDMEFv2/Vector.html" xlink:title="The Vector class describes the vector(s) of the event(s) leading up to the alert. o Name, location, description, ... ">
<polygon fill="#cecece" stroke="transparent" points="8.5,-235 8.5,-256 167.5,-256 167.5,-235 8.5,-235"/>
<polygon fill="none" stroke="black" points="8.5,-235 8.5,-256 167.5,-256 167.5,-235 8.5,-235"/>
<text text-anchor="start" x="68.5" y="-241.8" font-family="Nimbus Sans L" font-size="14.00">Vector</text>
</a>
</g>
<g id="a_node1_1"><a xlink:href="../IDMEFv2/Vector.html" xlink:title="Category for the detected &quot;vector&quot;.">
<polygon fill="none" stroke="black" points="8.5,-214 8.5,-235 167.5,-235 167.5,-214 8.5,-214"/>
<text text-anchor="start" x="16" y="-220.8" font-family="Nimbus Sans L" font-size="14.00">[Mandatory] Category ()</text>
</a>
</g>
<g id="a_node1_2"><a xlink:href="../IDMEFv2/Vector.html" xlink:title="Name of the detected vector or &quot;Unknown&quot;.">
<polygon fill="none" stroke="black" points="8.5,-193 8.5,-214 167.5,-214 167.5,-193 8.5,-193"/>
<text text-anchor="start" x="32" y="-199.8" font-family="Nimbus Sans L" font-size="14.00">[] Name (Optional)</text>
</a>
</g>
<g id="a_node1_3"><a xlink:href="../IDMEFv2/Vector.html" xlink:title="Rough estimate of the detected vector&#39;s size.">
<polygon fill="none" stroke="black" points="8.5,-172 8.5,-193 167.5,-193 167.5,-172 8.5,-172"/>
<text text-anchor="start" x="37" y="-178.8" font-family="Nimbus Sans L" font-size="14.00">[] Size (Optional)</text>
</a>
</g>
<g id="a_node1_4"><a xlink:href="../IDMEFv2/Vector.html" xlink:title="Free text human&#45;readable additional note for this vector.">
<polygon fill="none" stroke="black" points="8.5,-151 8.5,-172 167.5,-172 167.5,-151 8.5,-151"/>
<text text-anchor="start" x="36" y="-157.8" font-family="Nimbus Sans L" font-size="14.00">[] Note (Optional)</text>
</a>
</g>
<g id="a_node1_5"><a xlink:href="../IDMEFv2/Vector.html" xlink:title="Expires 18 April 2023 &#160;&#160;&#160;&#160;&#160;&#160;&#160;&#160;&#160;&#160;&#160;&#160;&#160;&#160;&#160;[Page 45]">
<polygon fill="none" stroke="black" points="8.5,-130 8.5,-151 167.5,-151 167.5,-130 8.5,-130"/>
<text text-anchor="start" x="69.5" y="-136.8" font-family="Nimbus Sans L" font-size="14.00">[] TI ()</text>
</a>
</g>
<g id="a_node1_6"><a xlink:href="../IDMEFv2/Vector.html" xlink:title="GPS coordinates for the vector.">
<polygon fill="none" stroke="black" points="8.5,-109 8.5,-130 167.5,-130 167.5,-109 8.5,-109"/>
<text text-anchor="start" x="11.5" y="-115.8" font-family="Nimbus Sans L" font-size="14.00">[] GeoLocation (Optional)</text>
</a>
</g>
<g id="a_node1_7"><a xlink:href="../IDMEFv2/Vector.html" xlink:title="Estimated radius around the provided geolocation in meters.">
<polygon fill="none" stroke="black" points="8.5,-88 8.5,-109 167.5,-109 167.5,-88 8.5,-88"/>
<text text-anchor="start" x="16" y="-94.8" font-family="Nimbus Sans L" font-size="14.00">[] GeoRadius (Optional)</text>
</a>
</g>
<g id="a_node1_8"><a xlink:href="../IDMEFv2/Vector.html" xlink:title="Standard UN/Locode for the vector.">
<polygon fill="none" stroke="black" points="8.5,-67 8.5,-88 167.5,-88 167.5,-67 8.5,-67"/>
<text text-anchor="start" x="16" y="-73.8" font-family="Nimbus Sans L" font-size="14.00">[] UnLocation (Optional)</text>
</a>
</g>
<g id="a_node1_9"><a xlink:href="../IDMEFv2/Vector.html" xlink:title="Internal name for the location of the vector.">
<polygon fill="none" stroke="black" points="8.5,-46 8.5,-67 167.5,-67 167.5,-46 8.5,-46"/>
<text text-anchor="start" x="24.5" y="-52.8" font-family="Nimbus Sans L" font-size="14.00">[] Location (Optional)</text>
</a>
</g>
<g id="a_node1_10"><a xlink:href="../IDMEFv2/Vector.html" xlink:title="Identifiers for attachments related to this vector.">
<polygon fill="none" stroke="black" points="8.5,-25 8.5,-46 167.5,-46 167.5,-25 8.5,-25"/>
<text text-anchor="start" x="16" y="-31.8" font-family="Nimbus Sans L" font-size="14.00">[] Attachment (Optional)</text>
</a>
</g>
<g id="a_node1_11"><a xlink:href="../IDMEFv2/Vector.html" xlink:title="Identifiers for observables related to this vector.">
<polygon fill="none" stroke="black" points="8.5,-4 8.5,-25 167.5,-25 167.5,-4 8.5,-4"/>
<text text-anchor="start" x="15.5" y="-10.8" font-family="Nimbus Sans L" font-size="14.00">[] Observable (Optional)</text>
</a>
</g>
</g>
</g>
</svg>
